<svg width="199" height="48" viewBox="0 0 199 48" fill="none" xmlns="http://www.w3.org/2000/svg">
<mask id="mask0_1080_8131" style="mask-type:alpha" maskUnits="userSpaceOnUse" x="0" y="0" width="199" height="48">
<rect width="199" height="48" fill="#111111"/>
</mask>
<g mask="url(#mask0_1080_8131)">
<path d="M79.2257 34V9.52H89.1197C89.3577 9.52 89.6524 9.53133 90.0037 9.554C90.355 9.56533 90.6894 9.59933 91.0067 9.656C92.3667 9.87133 93.5 10.336 94.4067 11.05C95.3247 11.764 96.0104 12.665 96.4637 13.753C96.917 14.841 97.1437 16.0423 97.1437 17.357C97.1437 18.683 96.917 19.89 96.4637 20.978C96.0104 22.066 95.3247 22.967 94.4067 23.681C93.5 24.395 92.3667 24.8597 91.0067 25.075C90.6894 25.1203 90.3494 25.1543 89.9867 25.177C89.6354 25.1997 89.3464 25.211 89.1197 25.211H82.7787V34H79.2257ZM82.7787 21.845H88.9837C89.2104 21.845 89.4597 21.8337 89.7317 21.811C90.015 21.7883 90.2814 21.7487 90.5307 21.692C91.256 21.522 91.8397 21.2103 92.2817 20.757C92.7237 20.2923 93.041 19.7597 93.2337 19.159C93.4264 18.5583 93.5227 17.9577 93.5227 17.357C93.5227 16.7563 93.4264 16.1613 93.2337 15.572C93.041 14.9713 92.7237 14.4443 92.2817 13.991C91.8397 13.5263 91.256 13.209 90.5307 13.039C90.2814 12.971 90.015 12.9257 89.7317 12.903C89.4597 12.8803 89.2104 12.869 88.9837 12.869H82.7787V21.845ZM113.428 34V24.973C113.428 24.259 113.366 23.528 113.241 22.78C113.128 22.0207 112.901 21.318 112.561 20.672C112.232 20.026 111.762 19.5047 111.15 19.108C110.549 18.7113 109.762 18.513 108.787 18.513C108.152 18.513 107.552 18.6207 106.985 18.836C106.418 19.04 105.92 19.3743 105.489 19.839C105.07 20.3037 104.735 20.9157 104.486 21.675C104.248 22.4343 104.129 23.358 104.129 24.446L101.919 23.613C101.919 21.947 102.231 20.4793 102.854 19.21C103.477 17.9293 104.373 16.932 105.54 16.218C106.707 15.504 108.118 15.147 109.773 15.147C111.042 15.147 112.108 15.351 112.969 15.759C113.83 16.167 114.527 16.7053 115.06 17.374C115.604 18.0313 116.018 18.751 116.301 19.533C116.584 20.315 116.777 21.08 116.879 21.828C116.981 22.576 117.032 23.2333 117.032 23.8V34H113.428ZM100.525 34V9.52H103.704V22.729H104.129V34H100.525ZM129.433 34.51C127.597 34.51 126.005 34.0963 124.656 33.269C123.307 32.4417 122.265 31.3027 121.528 29.852C120.803 28.39 120.44 26.707 120.44 24.803C120.44 22.8877 120.814 21.2047 121.562 19.754C122.31 18.292 123.358 17.1587 124.707 16.354C126.056 15.538 127.631 15.13 129.433 15.13C131.269 15.13 132.861 15.5437 134.21 16.371C135.559 17.1983 136.601 18.3373 137.338 19.788C138.075 21.2387 138.443 22.9103 138.443 24.803C138.443 26.7183 138.069 28.407 137.321 29.869C136.584 31.3197 135.542 32.4587 134.193 33.286C132.844 34.102 131.258 34.51 129.433 34.51ZM129.433 31.161C131.19 31.161 132.499 30.5717 133.36 29.393C134.233 28.203 134.669 26.673 134.669 24.803C134.669 22.8877 134.227 21.3577 133.343 20.213C132.47 19.057 131.167 18.479 129.433 18.479C128.243 18.479 127.263 18.751 126.492 19.295C125.721 19.8277 125.149 20.57 124.775 21.522C124.401 22.4627 124.214 23.5563 124.214 24.803C124.214 26.7297 124.656 28.271 125.54 29.427C126.424 30.583 127.722 31.161 129.433 31.161ZM155.065 34V24.973C155.065 24.259 155.002 23.528 154.878 22.78C154.764 22.0207 154.538 21.318 154.198 20.672C153.869 20.026 153.399 19.5047 152.787 19.108C152.186 18.7113 151.398 18.513 150.424 18.513C149.789 18.513 149.188 18.6207 148.622 18.836C148.055 19.04 147.556 19.3743 147.126 19.839C146.706 20.3037 146.372 20.9157 146.123 21.675C145.885 22.4343 145.766 23.358 145.766 24.446L143.556 23.613C143.556 21.947 143.867 20.4793 144.491 19.21C145.114 17.9293 146.009 16.932 147.177 16.218C148.344 15.504 149.755 15.147 151.41 15.147C152.679 15.147 153.744 15.351 154.606 15.759C155.467 16.167 156.164 16.7053 156.697 17.374C157.241 18.0313 157.654 18.751 157.938 19.533C158.221 20.315 158.414 21.08 158.516 21.828C158.618 22.576 158.669 23.2333 158.669 23.8V34H155.065ZM142.162 34V15.64H145.341V20.944H145.766V34H142.162ZM171.007 34.51C169.183 34.51 167.579 34.1133 166.196 33.32C164.825 32.5153 163.754 31.399 162.983 29.971C162.224 28.5317 161.844 26.8657 161.844 24.973C161.844 22.967 162.218 21.2273 162.966 19.754C163.726 18.2807 164.78 17.1417 166.128 16.337C167.477 15.5323 169.047 15.13 170.837 15.13C172.707 15.13 174.3 15.5663 175.614 16.439C176.929 17.3003 177.909 18.53 178.555 20.128C179.213 21.726 179.473 23.6243 179.337 25.823H175.784V24.531C175.762 22.4003 175.354 20.825 174.56 19.805C173.778 18.785 172.583 18.275 170.973 18.275C169.194 18.275 167.857 18.836 166.961 19.958C166.066 21.08 165.618 22.7007 165.618 24.82C165.618 26.8373 166.066 28.4013 166.961 29.512C167.857 30.6113 169.149 31.161 170.837 31.161C171.948 31.161 172.906 30.9117 173.71 30.413C174.526 29.903 175.161 29.1777 175.614 28.237L179.099 29.342C178.385 30.9853 177.303 32.2603 175.852 33.167C174.402 34.0623 172.787 34.51 171.007 34.51ZM164.462 25.823V23.052H177.569V25.823H164.462ZM190.172 34.493C187.94 34.493 186.121 34 184.715 33.014C183.31 32.028 182.449 30.6397 182.131 28.849L185.769 28.288C185.996 29.24 186.517 29.9937 187.333 30.549C188.161 31.093 189.186 31.365 190.41 31.365C191.521 31.365 192.388 31.1383 193.011 30.685C193.646 30.2317 193.963 29.6083 193.963 28.815C193.963 28.3503 193.85 27.9763 193.623 27.693C193.408 27.3983 192.949 27.1207 192.246 26.86C191.544 26.5993 190.473 26.2763 189.033 25.891C187.458 25.483 186.206 25.0467 185.276 24.582C184.358 24.106 183.701 23.5563 183.304 22.933C182.919 22.2983 182.726 21.5333 182.726 20.638C182.726 19.5273 183.021 18.5583 183.61 17.731C184.2 16.9037 185.027 16.2633 186.092 15.81C187.169 15.3567 188.427 15.13 189.866 15.13C191.272 15.13 192.524 15.351 193.623 15.793C194.723 16.235 195.612 16.864 196.292 17.68C196.972 18.4847 197.38 19.431 197.516 20.519L193.878 21.182C193.754 20.298 193.34 19.601 192.637 19.091C191.935 18.581 191.022 18.3033 189.9 18.258C188.824 18.2127 187.951 18.394 187.282 18.802C186.614 19.1987 186.279 19.7483 186.279 20.451C186.279 20.859 186.404 21.2047 186.653 21.488C186.914 21.7713 187.413 22.0433 188.149 22.304C188.886 22.5647 189.974 22.8763 191.413 23.239C192.955 23.6357 194.179 24.0777 195.085 24.565C195.992 25.041 196.638 25.6133 197.023 26.282C197.42 26.9393 197.618 27.7383 197.618 28.679C197.618 30.4923 196.955 31.9147 195.629 32.946C194.315 33.9773 192.496 34.493 190.172 34.493Z" fill="url(#paint0_linear_1080_8131)"/>
</g>
<defs>
<linearGradient id="paint0_linear_1080_8131" x1="137.5" y1="0" x2="137.5" y2="42" gradientUnits="userSpaceOnUse">
<stop stop-color="#90E0EF"/>
<stop offset="1" stop-color="#00B4D8"/>
</linearGradient>
</defs>
</svg>
