<svg width="302" height="44" viewBox="0 0 302 44" fill="none" xmlns="http://www.w3.org/2000/svg">
<rect x="1.00391" y="1" width="299" height="42" rx="7" fill="#F2F2F5"/>
<path d="M124.3 28.24C123.473 28.24 122.727 28.0987 122.06 27.816C121.399 27.528 120.852 27.12 120.42 26.592C119.993 26.0587 119.716 25.4267 119.588 24.696L121.332 24.432C121.508 25.136 121.876 25.6853 122.436 26.08C122.996 26.4693 123.649 26.664 124.396 26.664C124.86 26.664 125.287 26.592 125.676 26.448C126.065 26.2987 126.377 26.088 126.612 25.816C126.852 25.5387 126.972 25.208 126.972 24.824C126.972 24.616 126.935 24.432 126.86 24.272C126.791 24.112 126.692 23.9733 126.564 23.856C126.441 23.7333 126.289 23.6293 126.108 23.544C125.932 23.4533 125.737 23.376 125.524 23.312L122.572 22.44C122.284 22.3547 121.991 22.2453 121.692 22.112C121.393 21.9733 121.119 21.7947 120.868 21.576C120.623 21.352 120.423 21.0773 120.268 20.752C120.113 20.4213 120.036 20.0213 120.036 19.552C120.036 18.8427 120.217 18.2427 120.58 17.752C120.948 17.256 121.444 16.8827 122.068 16.632C122.692 16.376 123.391 16.248 124.164 16.248C124.943 16.2587 125.639 16.3973 126.252 16.664C126.871 16.9307 127.383 17.3147 127.788 17.816C128.199 18.312 128.481 18.9147 128.636 19.624L126.844 19.928C126.764 19.496 126.593 19.1253 126.332 18.816C126.071 18.5013 125.751 18.2613 125.372 18.096C124.993 17.9253 124.583 17.8373 124.14 17.832C123.713 17.8213 123.321 17.8853 122.964 18.024C122.612 18.1627 122.329 18.3573 122.116 18.608C121.908 18.8587 121.804 19.1467 121.804 19.472C121.804 19.792 121.897 20.0507 122.084 20.248C122.271 20.4453 122.5 20.6027 122.772 20.72C123.049 20.832 123.324 20.9253 123.596 21L125.724 21.6C125.991 21.6747 126.292 21.776 126.628 21.904C126.969 22.0267 127.297 22.2 127.612 22.424C127.932 22.648 128.196 22.9467 128.404 23.32C128.612 23.688 128.716 24.152 128.716 24.712C128.716 25.2933 128.599 25.8053 128.364 26.248C128.129 26.6853 127.807 27.0533 127.396 27.352C126.991 27.6453 126.521 27.8667 125.988 28.016C125.455 28.1653 124.892 28.24 124.3 28.24ZM130.581 28V16.48H132.253V28H130.581ZM139.367 28.24C138.594 28.24 137.882 28.1067 137.231 27.84C136.58 27.568 136.015 27.1733 135.535 26.656C135.055 26.1387 134.682 25.5093 134.415 24.768C134.148 24.0267 134.015 23.184 134.015 22.24C134.015 20.9973 134.242 19.9307 134.695 19.04C135.148 18.144 135.778 17.456 136.583 16.976C137.388 16.4907 138.316 16.248 139.367 16.248C140.722 16.248 141.802 16.5627 142.607 17.192C143.418 17.8213 143.97 18.6907 144.263 19.8L142.567 20.104C142.332 19.416 141.954 18.8667 141.431 18.456C140.908 18.0453 140.252 17.8373 139.463 17.832C138.647 17.8267 137.967 18.008 137.423 18.376C136.884 18.744 136.479 19.2613 136.207 19.928C135.935 20.5893 135.796 21.36 135.791 22.24C135.786 23.12 135.919 23.8907 136.191 24.552C136.463 25.208 136.871 25.72 137.415 26.088C137.964 26.456 138.647 26.6427 139.463 26.648C140.119 26.6587 140.682 26.5387 141.151 26.288C141.626 26.032 142.002 25.6587 142.279 25.168C142.556 24.6773 142.735 24.0747 142.815 23.36H140.575V22.016H144.591C144.602 22.112 144.61 22.24 144.615 22.4C144.62 22.5547 144.623 22.6533 144.623 22.696C144.623 23.7627 144.418 24.7147 144.007 25.552C143.596 26.3893 142.999 27.048 142.215 27.528C141.431 28.0027 140.482 28.24 139.367 28.24ZM146.218 28V16.48H147.914L153.586 25.04V16.48H155.282V28H153.586L147.914 19.432V28H146.218ZM165.31 28.24C164.408 28.24 163.611 28.056 162.918 27.688C162.23 27.3147 161.691 26.7947 161.302 26.128C160.912 25.456 160.718 24.6667 160.718 23.76V16.488L162.414 16.48V23.672C162.414 24.1627 162.496 24.5947 162.662 24.968C162.827 25.3413 163.048 25.6533 163.326 25.904C163.603 26.1547 163.912 26.344 164.254 26.472C164.6 26.6 164.952 26.664 165.31 26.664C165.672 26.664 166.024 26.6 166.366 26.472C166.712 26.3387 167.024 26.1467 167.302 25.896C167.579 25.6453 167.798 25.3333 167.958 24.96C168.123 24.5867 168.206 24.1573 168.206 23.672V16.48H169.902V23.76C169.902 24.6613 169.707 25.448 169.318 26.12C168.928 26.792 168.387 27.3147 167.694 27.688C167.006 28.056 166.211 28.24 165.31 28.24ZM172.14 28V16.48H176.796C176.908 16.48 177.046 16.4853 177.212 16.496C177.377 16.5013 177.534 16.5173 177.684 16.544C178.324 16.6453 178.857 16.864 179.284 17.2C179.716 17.536 180.038 17.96 180.252 18.472C180.465 18.984 180.572 19.5493 180.572 20.168C180.572 20.792 180.465 21.36 180.252 21.872C180.038 22.384 179.716 22.808 179.284 23.144C178.857 23.48 178.324 23.6987 177.684 23.8C177.534 23.8213 177.374 23.8373 177.204 23.848C177.038 23.8587 176.902 23.864 176.796 23.864H173.812V28H172.14ZM173.812 22.28H176.732C176.838 22.28 176.956 22.2747 177.084 22.264C177.217 22.2533 177.342 22.2347 177.46 22.208C177.801 22.128 178.076 21.9813 178.284 21.768C178.492 21.5493 178.641 21.2987 178.732 21.016C178.822 20.7333 178.868 20.4507 178.868 20.168C178.868 19.8853 178.822 19.6053 178.732 19.328C178.641 19.0453 178.492 18.7973 178.284 18.584C178.076 18.3653 177.801 18.216 177.46 18.136C177.342 18.104 177.217 18.0827 177.084 18.072C176.956 18.0613 176.838 18.056 176.732 18.056H173.812V22.28Z" fill="url(#paint0_linear_1126_9095)"/>
<rect x="1.00391" y="1" width="299" height="42" rx="7" stroke="url(#paint1_linear_1126_9095)" stroke-width="2" stroke-linecap="round"/>
<defs>
<linearGradient id="paint0_linear_1126_9095" x1="150.504" y1="10" x2="150.504" y2="34" gradientUnits="userSpaceOnUse">
<stop stop-color="#00B4D8"/>
<stop offset="1" stop-color="#0077B6"/>
</linearGradient>
<linearGradient id="paint1_linear_1126_9095" x1="150.504" y1="0" x2="150.504" y2="44" gradientUnits="userSpaceOnUse">
<stop stop-color="#00B4D8"/>
<stop offset="1" stop-color="#0077B6"/>
</linearGradient>
</defs>
</svg>
