<svg width="302" height="44" viewBox="0 0 302 44" fill="none" xmlns="http://www.w3.org/2000/svg">
<rect x="1.50391" y="1" width="299" height="42" rx="7" fill="#F2F2F5"/>
<path d="M126.784 28V16.48H128.456V26.424H133.672V28H126.784ZM139.526 28.24C138.374 28.24 137.392 27.9893 136.582 27.488C135.771 26.9813 135.15 26.2773 134.718 25.376C134.291 24.4747 134.078 23.4293 134.078 22.24C134.078 21.0507 134.291 20.0053 134.718 19.104C135.15 18.2027 135.771 17.5013 136.582 17C137.392 16.4933 138.374 16.24 139.526 16.24C140.672 16.24 141.651 16.4933 142.462 17C143.278 17.5013 143.899 18.2027 144.326 19.104C144.752 20.0053 144.966 21.0507 144.966 22.24C144.966 23.4293 144.752 24.4747 144.326 25.376C143.899 26.2773 143.278 26.9813 142.462 27.488C141.651 27.9893 140.672 28.24 139.526 28.24ZM139.526 26.648C140.342 26.6587 141.019 26.48 141.558 26.112C142.102 25.7387 142.51 25.2213 142.782 24.56C143.054 23.8933 143.19 23.12 143.19 22.24C143.19 21.36 143.054 20.592 142.782 19.936C142.51 19.2747 142.102 18.76 141.558 18.392C141.019 18.024 140.342 17.8373 139.526 17.832C138.71 17.8213 138.03 18 137.486 18.368C136.947 18.736 136.542 19.2533 136.27 19.92C135.998 20.5867 135.859 21.36 135.854 22.24C135.848 23.12 135.982 23.8907 136.254 24.552C136.526 25.208 136.934 25.72 137.478 26.088C138.027 26.456 138.71 26.6427 139.526 26.648ZM151.273 28.24C150.5 28.24 149.788 28.1067 149.137 27.84C148.487 27.568 147.921 27.1733 147.441 26.656C146.961 26.1387 146.588 25.5093 146.321 24.768C146.055 24.0267 145.921 23.184 145.921 22.24C145.921 20.9973 146.148 19.9307 146.601 19.04C147.055 18.144 147.684 17.456 148.489 16.976C149.295 16.4907 150.223 16.248 151.273 16.248C152.628 16.248 153.708 16.5627 154.513 17.192C155.324 17.8213 155.876 18.6907 156.169 19.8L154.473 20.104C154.239 19.416 153.86 18.8667 153.337 18.456C152.815 18.0453 152.159 17.8373 151.369 17.832C150.553 17.8267 149.873 18.008 149.329 18.376C148.791 18.744 148.385 19.2613 148.113 19.928C147.841 20.5893 147.703 21.36 147.697 22.24C147.692 23.12 147.825 23.8907 148.097 24.552C148.369 25.208 148.777 25.72 149.321 26.088C149.871 26.456 150.553 26.6427 151.369 26.648C152.025 26.6587 152.588 26.5387 153.057 26.288C153.532 26.032 153.908 25.6587 154.185 25.168C154.463 24.6773 154.641 24.0747 154.721 23.36H152.481V22.016H156.497C156.508 22.112 156.516 22.24 156.521 22.4C156.527 22.5547 156.529 22.6533 156.529 22.696C156.529 23.7627 156.324 24.7147 155.913 25.552C155.503 26.3893 154.905 27.048 154.121 27.528C153.337 28.0027 152.388 28.24 151.273 28.24ZM161.487 28V16.48H163.159V28H161.487ZM165.561 28V16.48H167.257L172.929 25.04V16.48H174.625V28H172.929L167.257 19.432V28H165.561Z" fill="url(#paint0_linear_1126_9121)"/>
<rect x="1.50391" y="1" width="299" height="42" rx="7" stroke="url(#paint1_linear_1126_9121)" stroke-width="2" stroke-linecap="round"/>
<defs>
<linearGradient id="paint0_linear_1126_9121" x1="151.004" y1="10" x2="151.004" y2="34" gradientUnits="userSpaceOnUse">
<stop stop-color="#00B4D8"/>
<stop offset="1" stop-color="#0077B6"/>
</linearGradient>
<linearGradient id="paint1_linear_1126_9121" x1="151.004" y1="0" x2="151.004" y2="44" gradientUnits="userSpaceOnUse">
<stop stop-color="#00B4D8"/>
<stop offset="1" stop-color="#0077B6"/>
</linearGradient>
</defs>
</svg>
