<svg width="24" height="25" viewBox="0 0 24 25" fill="none" xmlns="http://www.w3.org/2000/svg">
<path d="M10 18.0645C11.775 18.0641 13.4988 17.4699 14.897 16.3765L19.293 20.7725L20.707 19.3585L16.311 14.9625C17.405 13.5642 17.9996 11.84 18 10.0645C18 5.65351 14.411 2.06451 10 2.06451C5.589 2.06451 2 5.65351 2 10.0645C2 14.4755 5.589 18.0645 10 18.0645ZM10 4.06451C13.309 4.06451 16 6.75551 16 10.0645C16 13.3735 13.309 16.0645 10 16.0645C6.691 16.0645 4 13.3735 4 10.0645C4 6.75551 6.691 4.06451 10 4.06451Z" fill="#69696B"/>
</svg>
