<svg width="24" height="25" viewBox="0 0 24 25" fill="none" xmlns="http://www.w3.org/2000/svg">
<path d="M10 18.0646C11.775 18.0642 13.4988 17.47 14.897 16.3766L19.293 20.7726L20.707 19.3586L16.311 14.9626C17.405 13.5642 17.9996 11.84 18 10.0646C18 5.65358 14.411 2.06458 10 2.06458C5.589 2.06458 2 5.65358 2 10.0646C2 14.4756 5.589 18.0646 10 18.0646ZM10 4.06458C13.309 4.06458 16 6.75558 16 10.0646C16 13.3736 13.309 16.0646 10 16.0646C6.691 16.0646 4 13.3736 4 10.0646C4 6.75558 6.691 4.06458 10 4.06458Z" fill="#69696B"/>
</svg>
