<svg width="300" height="45" viewBox="0 0 300 45" fill="none" xmlns="http://www.w3.org/2000/svg">
<rect x="0.5" y="0.5" width="299" height="44" rx="7.5" fill="white"/>
<path d="M20 28C21.775 27.9996 23.4988 27.4054 24.897 26.312L29.293 30.708L30.707 29.294L26.311 24.898C27.405 23.4997 27.9996 21.7754 28 20C28 15.589 24.411 12 20 12C15.589 12 12 15.589 12 20C12 24.411 15.589 28 20 28ZM20 14C23.309 14 26 16.691 26 20C26 23.309 23.309 26 20 26C16.691 26 14 23.309 14 20C14 16.691 16.691 14 20 14Z" fill="#69696B"/>
<path d="M44 35L44 10" stroke="#111111"/>
<rect x="0.5" y="0.5" width="299" height="44" rx="7.5" stroke="#69696B"/>
</svg>
