<svg width="72" height="48" viewBox="0 0 72 48" fill="none" xmlns="http://www.w3.org/2000/svg">
<rect width="72" height="48" fill="#111111"/>
<g clip-path="url(#clip0_743_13161)">
<path d="M39.55 25C40.3 25 40.96 24.59 41.3 23.97L44.88 17.48C45.25 16.82 44.77 16 44.01 16H29.21L28.27 14H25V16H27L30.6 23.59L29.25 26.03C28.52 27.37 29.48 29 31 29H43V27H31L32.1 25H39.55ZM30.16 18H42.31L39.55 23H32.53L30.16 18ZM31 30C29.9 30 29.01 30.9 29.01 32C29.01 33.1 29.9 34 31 34C32.1 34 33 33.1 33 32C33 30.9 32.1 30 31 30ZM41 30C39.9 30 39.01 30.9 39.01 32C39.01 33.1 39.9 34 41 34C42.1 34 43 33.1 43 32C43 30.9 42.1 30 41 30Z" fill="#69696B"/>
</g>
<defs>
<clipPath id="clip0_743_13161">
<rect width="24" height="24" fill="white" transform="translate(24 12)"/>
</clipPath>
</defs>
</svg>
