<svg width="72" height="48" viewBox="0 0 72 48" fill="none" xmlns="http://www.w3.org/2000/svg">
<rect width="72" height="48" fill="#111111"/>
<g clip-path="url(#clip0_743_13321)">
<path d="M36 14C30.48 14 26 18.48 26 24C26 29.52 30.48 34 36 34C41.52 34 46 29.52 46 24C46 18.48 41.52 14 36 14ZM31.07 30.28C31.5 29.38 34.12 28.5 36 28.5C37.88 28.5 40.51 29.38 40.93 30.28C39.57 31.36 37.86 32 36 32C34.14 32 32.43 31.36 31.07 30.28ZM42.36 28.83C40.93 27.09 37.46 26.5 36 26.5C34.54 26.5 31.07 27.09 29.64 28.83C28.62 27.49 28 25.82 28 24C28 19.59 31.59 16 36 16C40.41 16 44 19.59 44 24C44 25.82 43.38 27.49 42.36 28.83ZM36 18C34.06 18 32.5 19.56 32.5 21.5C32.5 23.44 34.06 25 36 25C37.94 25 39.5 23.44 39.5 21.5C39.5 19.56 37.94 18 36 18ZM36 23C35.17 23 34.5 22.33 34.5 21.5C34.5 20.67 35.17 20 36 20C36.83 20 37.5 20.67 37.5 21.5C37.5 22.33 36.83 23 36 23Z" fill="white"/>
</g>
<defs>
<clipPath id="clip0_743_13321">
<rect width="24" height="24" fill="white" transform="translate(24 12)"/>
</clipPath>
</defs>
</svg>
