<svg width="52" height="48" viewBox="0 0 52 48" fill="none" xmlns="http://www.w3.org/2000/svg">
<g clip-path="url(#clip0_705_13696)">
<path d="M42.7924 16H36.5131V8H7.20964C4.90723 8 3.02344 9.8 3.02344 12V34H7.20964C7.20964 37.32 10.0144 40 13.489 40C16.9635 40 19.7683 37.32 19.7683 34H32.3269C32.3269 37.32 35.1316 40 38.6062 40C42.0807 40 44.8855 37.32 44.8855 34H49.0717V24L42.7924 16ZM41.7458 19L45.8483 24H36.5131V19H41.7458ZM13.489 36C12.3377 36 11.3959 35.1 11.3959 34C11.3959 32.9 12.3377 32 13.489 32C14.6402 32 15.5821 32.9 15.5821 34C15.5821 35.1 14.6402 36 13.489 36ZM18.1356 30C16.9844 28.78 15.3518 28 13.489 28C11.6261 28 9.99347 28.78 8.84227 30H7.20964V12H32.3269V30H18.1356ZM38.6062 36C37.455 36 36.5131 35.1 36.5131 34C36.5131 32.9 37.455 32 38.6062 32C39.7574 32 40.6993 32.9 40.6993 34C40.6993 35.1 39.7574 36 38.6062 36Z" fill="url(#paint0_linear_705_13696)"/>
</g>
<defs>
<linearGradient id="paint0_linear_705_13696" x1="26.0476" y1="8" x2="26.0476" y2="40" gradientUnits="userSpaceOnUse">
<stop stop-color="#0077B6"/>
<stop offset="1" stop-color="#03045E"/>
</linearGradient>
<clipPath id="clip0_705_13696">
<rect width="50.2345" height="48" fill="white" transform="translate(0.930664)"/>
</clipPath>
</defs>
</svg>
