<svg width="425" height="58" viewBox="0 0 425 58" fill="none" xmlns="http://www.w3.org/2000/svg">
<g filter="url(#filter0_d_561_7764)">
<path d="M288 5H408C412.418 5 416 8.58172 416 13V37C416 41.4183 412.418 45 408 45H288V5Z" fill="white"/>
<path d="M321.48 30V19.92H322.74L327.997 27.795V19.92H329.257V30H327.997L322.74 22.118V30H321.48ZM334.49 30.21C333.748 30.21 333.1 30.0467 332.544 29.72C331.994 29.3887 331.564 28.929 331.256 28.341C330.948 27.7483 330.794 27.0577 330.794 26.269C330.794 25.443 330.946 24.729 331.249 24.127C331.553 23.5203 331.975 23.0537 332.516 22.727C333.062 22.3957 333.702 22.23 334.434 22.23C335.195 22.23 335.841 22.405 336.373 22.755C336.91 23.105 337.311 23.6043 337.577 24.253C337.848 24.9017 337.965 25.674 337.927 26.57H336.667V26.122C336.653 25.1933 336.464 24.5003 336.1 24.043C335.736 23.581 335.195 23.35 334.476 23.35C333.706 23.35 333.121 23.5973 332.719 24.092C332.318 24.5867 332.117 25.296 332.117 26.22C332.117 27.1113 332.318 27.802 332.719 28.292C333.121 28.782 333.692 29.027 334.434 29.027C334.934 29.027 335.368 28.9127 335.736 28.684C336.105 28.4553 336.394 28.1263 336.604 27.697L337.801 28.11C337.507 28.7773 337.064 29.2953 336.471 29.664C335.883 30.028 335.223 30.21 334.49 30.21ZM331.697 26.57V25.569H337.283V26.57H331.697ZM338.372 30L341.263 26.178L338.435 22.44H339.919L341.991 25.212L344.042 22.44H345.526L342.698 26.178L345.596 30H344.105L341.991 27.144L339.863 30H338.372ZM350.939 30C350.491 30.0887 350.048 30.1237 349.609 30.105C349.175 30.091 348.788 30.0047 348.447 29.846C348.107 29.6827 347.848 29.4307 347.67 29.09C347.521 28.7913 347.439 28.4903 347.425 28.187C347.416 27.879 347.411 27.5313 347.411 27.144V20.34H348.657V27.088C348.657 27.396 348.66 27.6597 348.664 27.879C348.674 28.0983 348.723 28.2873 348.811 28.446C348.979 28.7447 349.245 28.9197 349.609 28.971C349.978 29.0223 350.421 29.0083 350.939 28.929V30ZM345.878 23.469V22.44H350.939V23.469H345.878Z" fill="#111111"/>
<path d="M368.5 31L374.5 25L368.5 19" stroke="#111111" stroke-width="1.5" stroke-linecap="round" stroke-linejoin="round"/>
<rect width="56" height="40" transform="translate(232 5)" fill="white"/>
<path d="M254.87 31V21.056L252.702 22.368V20.776L254.87 19.48H256.318V31H254.87ZM263.25 31.24C262.504 31.24 261.837 31.072 261.25 30.736C260.669 30.3947 260.208 29.9333 259.866 29.352C259.53 28.7653 259.362 28.0987 259.362 27.352V23.128C259.362 22.3813 259.53 21.7147 259.866 21.128C260.208 20.5413 260.669 20.08 261.25 19.744C261.837 19.408 262.504 19.24 263.25 19.24C263.997 19.24 264.664 19.408 265.25 19.744C265.837 20.08 266.298 20.5413 266.634 21.128C266.97 21.7147 267.138 22.3813 267.138 23.128V27.352C267.138 28.0987 266.97 28.7653 266.634 29.352C266.298 29.9333 265.837 30.3947 265.25 30.736C264.664 31.072 263.997 31.24 263.25 31.24ZM263.25 29.872C263.704 29.872 264.114 29.7627 264.482 29.544C264.85 29.3253 265.144 29.032 265.362 28.664C265.581 28.2907 265.69 27.88 265.69 27.432V23.04C265.69 22.5867 265.581 22.176 265.362 21.808C265.144 21.44 264.85 21.1467 264.482 20.928C264.114 20.7093 263.704 20.6 263.25 20.6C262.802 20.6 262.392 20.7093 262.018 20.928C261.65 21.1467 261.357 21.44 261.138 21.808C260.92 22.176 260.81 22.5867 260.81 23.04V27.432C260.81 27.88 260.92 28.2907 261.138 28.664C261.357 29.032 261.65 29.3253 262.018 29.544C262.392 29.7627 262.802 29.872 263.25 29.872Z" fill="#111111"/>
<rect width="39" height="40" transform="translate(193 5)" fill="white"/>
<path d="M213.032 19.48H214.48L211.408 31H209.96L213.032 19.48Z" fill="#111111"/>
<path d="M9 13C9 8.58172 12.5817 5 17 5H137V45H17C12.5817 45 9 41.4183 9 37V13Z" fill="white"/>
<path d="M43.5 31L37.5 25L43.5 19" stroke="#ABABB5" stroke-width="1.5" stroke-linecap="round" stroke-linejoin="round"/>
<path d="M61.48 30V19.92H65.463C65.561 19.92 65.6777 19.9247 65.813 19.934C65.9483 19.9387 66.079 19.9527 66.205 19.976C66.751 20.06 67.2083 20.2467 67.577 20.536C67.9503 20.8253 68.2303 21.1917 68.417 21.635C68.6037 22.0737 68.697 22.5613 68.697 23.098C68.697 23.63 68.6013 24.1177 68.41 24.561C68.2233 24.9997 67.9433 25.366 67.57 25.66C67.2013 25.9493 66.7463 26.136 66.205 26.22C66.079 26.2387 65.9483 26.2527 65.813 26.262C65.6777 26.2713 65.561 26.276 65.463 26.276H62.726V30H61.48ZM62.726 25.093H65.421C65.5097 25.093 65.61 25.0883 65.722 25.079C65.8387 25.0697 65.9483 25.0533 66.051 25.03C66.373 24.9553 66.6343 24.82 66.835 24.624C67.0403 24.4233 67.1897 24.19 67.283 23.924C67.3763 23.6533 67.423 23.378 67.423 23.098C67.423 22.818 67.3763 22.545 67.283 22.279C67.1897 22.0083 67.0403 21.7727 66.835 21.572C66.6343 21.3713 66.373 21.236 66.051 21.166C65.9483 21.138 65.8387 21.1217 65.722 21.117C65.61 21.1077 65.5097 21.103 65.421 21.103H62.726V25.093ZM70.0933 30V22.44H71.2063V24.267L71.0243 24.029C71.1129 23.7957 71.2273 23.581 71.3673 23.385C71.5119 23.189 71.6729 23.028 71.8503 22.902C72.0463 22.7433 72.2679 22.622 72.5153 22.538C72.7626 22.454 73.0146 22.405 73.2713 22.391C73.5279 22.3723 73.7683 22.3887 73.9923 22.44V23.609C73.7309 23.539 73.4439 23.5203 73.1313 23.553C72.8186 23.5857 72.5293 23.7 72.2633 23.896C72.0206 24.0687 71.8316 24.2787 71.6963 24.526C71.5656 24.7733 71.4746 25.0417 71.4233 25.331C71.3719 25.6157 71.3463 25.9073 71.3463 26.206V30H70.0933ZM78.4552 30.21C77.7132 30.21 77.0646 30.0467 76.5092 29.72C75.9586 29.3887 75.5292 28.929 75.2212 28.341C74.9132 27.7483 74.7592 27.0577 74.7592 26.269C74.7592 25.443 74.9109 24.729 75.2142 24.127C75.5176 23.5203 75.9399 23.0537 76.4812 22.727C77.0272 22.3957 77.6666 22.23 78.3992 22.23C79.1599 22.23 79.8062 22.405 80.3382 22.755C80.8749 23.105 81.2762 23.6043 81.5422 24.253C81.8129 24.9017 81.9296 25.674 81.8922 26.57H80.6322V26.122C80.6182 25.1933 80.4292 24.5003 80.0652 24.043C79.7012 23.581 79.1599 23.35 78.4412 23.35C77.6712 23.35 77.0856 23.5973 76.6842 24.092C76.2829 24.5867 76.0822 25.296 76.0822 26.22C76.0822 27.1113 76.2829 27.802 76.6842 28.292C77.0856 28.782 77.6572 29.027 78.3992 29.027C78.8986 29.027 79.3326 28.9127 79.7012 28.684C80.0699 28.4553 80.3592 28.1263 80.5692 27.697L81.7662 28.11C81.4722 28.7773 81.0289 29.2953 80.4362 29.664C79.8482 30.028 79.1879 30.21 78.4552 30.21ZM75.6622 26.57V25.569H81.2482V26.57H75.6622ZM85.2213 30L82.4773 22.44H83.7373L85.8583 28.411L87.9723 22.44H89.2393L86.4953 30H85.2213ZM90.6454 21.103V19.815H91.8914V21.103H90.6454ZM90.6454 30V22.44H91.8914V30H90.6454ZM97.2117 30.21C96.4604 30.21 95.8117 30.0397 95.2657 29.699C94.7244 29.3583 94.3067 28.887 94.0127 28.285C93.7187 27.683 93.5717 26.9923 93.5717 26.213C93.5717 25.4197 93.7211 24.7243 94.0197 24.127C94.3184 23.5297 94.7407 23.0653 95.2867 22.734C95.8327 22.398 96.4744 22.23 97.2117 22.23C97.9677 22.23 98.6187 22.4003 99.1647 22.741C99.7107 23.077 100.128 23.546 100.418 24.148C100.712 24.7453 100.859 25.4337 100.859 26.213C100.859 27.0017 100.712 27.697 100.418 28.299C100.124 28.8963 99.7037 29.3653 99.1577 29.706C98.6117 30.042 97.9631 30.21 97.2117 30.21ZM97.2117 29.027C97.9957 29.027 98.5791 28.7657 98.9617 28.243C99.3444 27.7203 99.5357 27.0437 99.5357 26.213C99.5357 25.359 99.3421 24.68 98.9547 24.176C98.5674 23.6673 97.9864 23.413 97.2117 23.413C96.6844 23.413 96.2504 23.532 95.9097 23.77C95.5691 24.008 95.3147 24.337 95.1467 24.757C94.9787 25.177 94.8947 25.6623 94.8947 26.213C94.8947 27.0623 95.0907 27.7437 95.4827 28.257C95.8747 28.7703 96.4511 29.027 97.2117 29.027ZM105.27 30.196C104.785 30.196 104.367 30.119 104.017 29.965C103.672 29.811 103.385 29.6057 103.156 29.349C102.927 29.0923 102.748 28.8077 102.617 28.495C102.486 28.1823 102.393 27.8627 102.337 27.536C102.286 27.2093 102.26 26.9037 102.26 26.619V22.44H103.52V26.227C103.52 26.5817 103.553 26.9247 103.618 27.256C103.683 27.5873 103.793 27.886 103.947 28.152C104.106 28.418 104.316 28.628 104.577 28.782C104.843 28.936 105.174 29.013 105.571 29.013C105.884 29.013 106.168 28.9593 106.425 28.852C106.682 28.7447 106.901 28.586 107.083 28.376C107.265 28.1613 107.405 27.8907 107.503 27.564C107.601 27.2373 107.65 26.857 107.65 26.423L108.469 26.675C108.469 27.403 108.336 28.0307 108.07 28.558C107.809 29.0853 107.438 29.4913 106.957 29.776C106.481 30.056 105.919 30.196 105.27 30.196ZM107.79 30V27.977H107.65V22.44H108.903V30H107.79ZM113.719 30.203C112.818 30.203 112.078 30.007 111.5 29.615C110.926 29.2183 110.573 28.6653 110.443 27.956L111.717 27.753C111.819 28.1637 112.055 28.4903 112.424 28.733C112.792 28.971 113.25 29.09 113.796 29.09C114.314 29.09 114.72 28.9827 115.014 28.768C115.308 28.5533 115.455 28.2617 115.455 27.893C115.455 27.6783 115.406 27.5057 115.308 27.375C115.21 27.2397 115.007 27.1137 114.699 26.997C114.395 26.8803 113.936 26.7403 113.32 26.577C112.652 26.3997 112.127 26.2153 111.745 26.024C111.362 25.8327 111.089 25.611 110.926 25.359C110.762 25.107 110.681 24.8013 110.681 24.442C110.681 23.9987 110.802 23.6113 111.045 23.28C111.287 22.944 111.626 22.685 112.06 22.503C112.498 22.321 113.007 22.23 113.586 22.23C114.16 22.23 114.673 22.321 115.126 22.503C115.578 22.685 115.942 22.944 116.218 23.28C116.498 23.6113 116.663 23.9987 116.715 24.442L115.441 24.673C115.38 24.267 115.184 23.9473 114.853 23.714C114.526 23.4807 114.104 23.357 113.586 23.343C113.096 23.3243 112.697 23.4107 112.389 23.602C112.085 23.7933 111.934 24.0523 111.934 24.379C111.934 24.561 111.99 24.7173 112.102 24.848C112.218 24.9787 112.431 25.1023 112.739 25.219C113.051 25.3357 113.504 25.4687 114.097 25.618C114.764 25.786 115.289 25.9703 115.672 26.171C116.059 26.367 116.334 26.6003 116.498 26.871C116.661 27.137 116.743 27.466 116.743 27.858C116.743 28.586 116.474 29.16 115.938 29.58C115.401 29.9953 114.661 30.203 113.719 30.203Z" fill="#ABABB5"/>
<rect x="138" y="6" width="54" height="38" fill="white"/>
<path d="M164.753 31V21.32L162.585 22.64V20.776L164.753 19.48H166.457V31H164.753Z" fill="#111111"/>
<rect x="138" y="6" width="54" height="38" stroke="url(#paint0_radial_561_7764)" stroke-width="2" stroke-linecap="round"/>
<rect x="9" y="5" width="407" height="40" rx="8" stroke="url(#paint1_radial_561_7764)" stroke-width="2"/>
</g>
<defs>
<filter id="filter0_d_561_7764" x="0" y="0" width="425" height="58" filterUnits="userSpaceOnUse" color-interpolation-filters="sRGB">
<feFlood flood-opacity="0" result="BackgroundImageFix"/>
<feColorMatrix in="SourceAlpha" type="matrix" values="0 0 0 0 0 0 0 0 0 0 0 0 0 0 0 0 0 0 127 0" result="hardAlpha"/>
<feOffset dy="4"/>
<feGaussianBlur stdDeviation="4"/>
<feColorMatrix type="matrix" values="0 0 0 0 0.203922 0 0 0 0 0.341176 0 0 0 0 0.54902 0 0 0 0.12 0"/>
<feBlend mode="normal" in2="BackgroundImageFix" result="effect1_dropShadow_561_7764"/>
<feBlend mode="normal" in="SourceGraphic" in2="effect1_dropShadow_561_7764" result="shape"/>
</filter>
<radialGradient id="paint0_radial_561_7764" cx="0" cy="0" r="1" gradientUnits="userSpaceOnUse" gradientTransform="translate(165 25) rotate(90) scale(20 28)">
<stop stop-color="white" stop-opacity="0"/>
<stop offset="1" stop-color="#34578C" stop-opacity="0.2"/>
</radialGradient>
<radialGradient id="paint1_radial_561_7764" cx="0" cy="0" r="1" gradientUnits="userSpaceOnUse" gradientTransform="translate(212.5 25) rotate(90) scale(20 203.5)">
<stop stop-color="white" stop-opacity="0"/>
<stop offset="1" stop-color="#34578C" stop-opacity="0.2"/>
</radialGradient>
</defs>
</svg>
