<svg width="72" height="72" viewBox="0 0 72 72" fill="none" xmlns="http://www.w3.org/2000/svg">
<g clip-path="url(#clip0_532_7174)">
<path d="M51 6H21C17.7 6 15 8.7 15 12V18C15 21.3 17.7 24 21 24H51C54.3 24 57 21.3 57 18V12C57 8.7 54.3 6 51 6ZM51 18H21V12H51V18ZM60 66H12C8.7 66 6 63.3 6 60V57H66V60C66 63.3 63.3 66 60 66ZM55.59 30.57C54.63 28.41 52.47 27 50.1 27H21.9C19.53 27 17.37 28.41 16.41 30.57L6 54H66L55.59 30.57ZM28.5 48H25.5C24.66 48 24 47.34 24 46.5C24 45.66 24.66 45 25.5 45H28.5C29.34 45 30 45.66 30 46.5C30 47.34 29.34 48 28.5 48ZM28.5 42H25.5C24.66 42 24 41.34 24 40.5C24 39.66 24.66 39 25.5 39H28.5C29.34 39 30 39.66 30 40.5C30 41.34 29.34 42 28.5 42ZM28.5 36H25.5C24.66 36 24 35.34 24 34.5C24 33.66 24.66 33 25.5 33H28.5C29.34 33 30 33.66 30 34.5C30 35.34 29.34 36 28.5 36ZM37.5 48H34.5C33.66 48 33 47.34 33 46.5C33 45.66 33.66 45 34.5 45H37.5C38.34 45 39 45.66 39 46.5C39 47.34 38.34 48 37.5 48ZM37.5 42H34.5C33.66 42 33 41.34 33 40.5C33 39.66 33.66 39 34.5 39H37.5C38.34 39 39 39.66 39 40.5C39 41.34 38.34 42 37.5 42ZM37.5 36H34.5C33.66 36 33 35.34 33 34.5C33 33.66 33.66 33 34.5 33H37.5C38.34 33 39 33.66 39 34.5C39 35.34 38.34 36 37.5 36ZM46.5 48H43.5C42.66 48 42 47.34 42 46.5C42 45.66 42.66 45 43.5 45H46.5C47.34 45 48 45.66 48 46.5C48 47.34 47.34 48 46.5 48ZM46.5 42H43.5C42.66 42 42 41.34 42 40.5C42 39.66 42.66 39 43.5 39H46.5C47.34 39 48 39.66 48 40.5C48 41.34 47.34 42 46.5 42ZM46.5 36H43.5C42.66 36 42 35.34 42 34.5C42 33.66 42.66 33 43.5 33H46.5C47.34 33 48 33.66 48 34.5C48 35.34 47.34 36 46.5 36Z" fill="url(#paint0_linear_532_7174)"/>
</g>
<defs>
<linearGradient id="paint0_linear_532_7174" x1="36" y1="6" x2="36" y2="66" gradientUnits="userSpaceOnUse">
<stop stop-color="#00B4D8"/>
<stop offset="1" stop-color="#0077B6"/>
</linearGradient>
<clipPath id="clip0_532_7174">
<rect width="72" height="72" fill="white"/>
</clipPath>
</defs>
</svg>
