<svg width="199" height="48" viewBox="0 0 199 48" fill="none" xmlns="http://www.w3.org/2000/svg">
<mask id="mask0_145_1619" style="mask-type:alpha" maskUnits="userSpaceOnUse" x="0" y="0" width="199" height="48">
<rect width="199" height="48" fill="#111111"/>
</mask>
<g mask="url(#mask0_145_1619)">
<path d="M140.552 298V273.52H150.174C151.727 273.52 153.03 273.837 154.084 274.472C155.138 275.107 155.931 275.928 156.464 276.937C156.997 277.934 157.263 278.988 157.263 280.099C157.263 281.448 156.929 282.604 156.26 283.567C155.603 284.53 154.713 285.188 153.591 285.539L153.557 284.706C155.121 285.091 156.322 285.845 157.161 286.967C158 288.078 158.419 289.375 158.419 290.86C158.419 292.299 158.13 293.552 157.552 294.617C156.985 295.682 156.152 296.515 155.053 297.116C153.965 297.705 152.645 298 151.092 298H140.552ZM144.156 294.617H150.548C151.353 294.617 152.072 294.464 152.707 294.158C153.353 293.852 153.857 293.416 154.22 292.849C154.594 292.271 154.781 291.585 154.781 290.792C154.781 290.055 154.617 289.392 154.288 288.803C153.971 288.202 153.506 287.732 152.894 287.392C152.293 287.041 151.585 286.865 150.769 286.865H144.156V294.617ZM144.156 283.516H150.123C150.78 283.516 151.37 283.386 151.891 283.125C152.424 282.853 152.843 282.468 153.149 281.969C153.466 281.459 153.625 280.847 153.625 280.133C153.625 279.181 153.308 278.399 152.673 277.787C152.038 277.175 151.188 276.869 150.123 276.869H144.156V283.516ZM168.721 298.493C167.452 298.493 166.386 298.289 165.525 297.881C164.664 297.473 163.961 296.94 163.417 296.283C162.884 295.614 162.476 294.889 162.193 294.107C161.91 293.325 161.717 292.56 161.615 291.812C161.513 291.064 161.462 290.407 161.462 289.84V279.64H165.066V288.667C165.066 289.381 165.123 290.118 165.236 290.877C165.361 291.625 165.587 292.322 165.916 292.968C166.256 293.614 166.726 294.135 167.327 294.532C167.939 294.929 168.732 295.127 169.707 295.127C170.342 295.127 170.942 295.025 171.509 294.821C172.076 294.606 172.569 294.266 172.988 293.801C173.419 293.336 173.753 292.724 173.991 291.965C174.24 291.206 174.365 290.282 174.365 289.194L176.575 290.027C176.575 291.693 176.263 293.166 175.64 294.447C175.017 295.716 174.121 296.708 172.954 297.422C171.787 298.136 170.376 298.493 168.721 298.493ZM174.79 298V292.696H174.365V279.64H177.952V298H174.79ZM185.202 306.16L188.755 296.487L188.806 299.343L180.799 279.64H184.505L190.489 294.855H189.401L195.113 279.64H198.717L188.585 306.16H185.202Z" fill="url(#paint0_linear_145_1619)"/>
<path d="M79.2257 34V9.52H89.1197C89.3577 9.52 89.6524 9.53133 90.0037 9.554C90.355 9.56533 90.6894 9.59933 91.0067 9.656C92.3667 9.87133 93.5 10.336 94.4067 11.05C95.3247 11.764 96.0104 12.665 96.4637 13.753C96.917 14.841 97.1437 16.0423 97.1437 17.357C97.1437 18.683 96.917 19.89 96.4637 20.978C96.0104 22.066 95.3247 22.967 94.4067 23.681C93.5 24.395 92.3667 24.8597 91.0067 25.075C90.6894 25.1203 90.3494 25.1543 89.9867 25.177C89.6354 25.1997 89.3464 25.211 89.1197 25.211H82.7787V34H79.2257ZM82.7787 21.845H88.9837C89.2104 21.845 89.4597 21.8337 89.7317 21.811C90.015 21.7883 90.2814 21.7487 90.5307 21.692C91.256 21.522 91.8397 21.2103 92.2817 20.757C92.7237 20.2923 93.041 19.7597 93.2337 19.159C93.4264 18.5583 93.5227 17.9577 93.5227 17.357C93.5227 16.7563 93.4264 16.1613 93.2337 15.572C93.041 14.9713 92.7237 14.4443 92.2817 13.991C91.8397 13.5263 91.256 13.209 90.5307 13.039C90.2814 12.971 90.015 12.9257 89.7317 12.903C89.4597 12.8803 89.2104 12.869 88.9837 12.869H82.7787V21.845ZM113.428 34V24.973C113.428 24.259 113.366 23.528 113.241 22.78C113.128 22.0207 112.901 21.318 112.561 20.672C112.232 20.026 111.762 19.5047 111.15 19.108C110.549 18.7113 109.762 18.513 108.787 18.513C108.152 18.513 107.552 18.6207 106.985 18.836C106.418 19.04 105.92 19.3743 105.489 19.839C105.07 20.3037 104.735 20.9157 104.486 21.675C104.248 22.4343 104.129 23.358 104.129 24.446L101.919 23.613C101.919 21.947 102.231 20.4793 102.854 19.21C103.477 17.9293 104.373 16.932 105.54 16.218C106.707 15.504 108.118 15.147 109.773 15.147C111.042 15.147 112.108 15.351 112.969 15.759C113.83 16.167 114.527 16.7053 115.06 17.374C115.604 18.0313 116.018 18.751 116.301 19.533C116.584 20.315 116.777 21.08 116.879 21.828C116.981 22.576 117.032 23.2333 117.032 23.8V34H113.428ZM100.525 34V9.52H103.704V22.729H104.129V34H100.525ZM129.433 34.51C127.597 34.51 126.005 34.0963 124.656 33.269C123.307 32.4417 122.265 31.3027 121.528 29.852C120.803 28.39 120.44 26.707 120.44 24.803C120.44 22.8877 120.814 21.2047 121.562 19.754C122.31 18.292 123.358 17.1587 124.707 16.354C126.056 15.538 127.631 15.13 129.433 15.13C131.269 15.13 132.861 15.5437 134.21 16.371C135.559 17.1983 136.601 18.3373 137.338 19.788C138.075 21.2387 138.443 22.9103 138.443 24.803C138.443 26.7183 138.069 28.407 137.321 29.869C136.584 31.3197 135.542 32.4587 134.193 33.286C132.844 34.102 131.258 34.51 129.433 34.51ZM129.433 31.161C131.19 31.161 132.499 30.5717 133.36 29.393C134.233 28.203 134.669 26.673 134.669 24.803C134.669 22.8877 134.227 21.3577 133.343 20.213C132.47 19.057 131.167 18.479 129.433 18.479C128.243 18.479 127.263 18.751 126.492 19.295C125.721 19.8277 125.149 20.57 124.775 21.522C124.401 22.4627 124.214 23.5563 124.214 24.803C124.214 26.7297 124.656 28.271 125.54 29.427C126.424 30.583 127.722 31.161 129.433 31.161ZM155.065 34V24.973C155.065 24.259 155.002 23.528 154.878 22.78C154.764 22.0207 154.538 21.318 154.198 20.672C153.869 20.026 153.399 19.5047 152.787 19.108C152.186 18.7113 151.398 18.513 150.424 18.513C149.789 18.513 149.188 18.6207 148.622 18.836C148.055 19.04 147.556 19.3743 147.126 19.839C146.706 20.3037 146.372 20.9157 146.123 21.675C145.885 22.4343 145.766 23.358 145.766 24.446L143.556 23.613C143.556 21.947 143.867 20.4793 144.491 19.21C145.114 17.9293 146.009 16.932 147.177 16.218C148.344 15.504 149.755 15.147 151.41 15.147C152.679 15.147 153.744 15.351 154.606 15.759C155.467 16.167 156.164 16.7053 156.697 17.374C157.241 18.0313 157.654 18.751 157.938 19.533C158.221 20.315 158.414 21.08 158.516 21.828C158.618 22.576 158.669 23.2333 158.669 23.8V34H155.065ZM142.162 34V15.64H145.341V20.944H145.766V34H142.162ZM171.007 34.51C169.183 34.51 167.579 34.1133 166.196 33.32C164.825 32.5153 163.754 31.399 162.983 29.971C162.224 28.5317 161.844 26.8657 161.844 24.973C161.844 22.967 162.218 21.2273 162.966 19.754C163.726 18.2807 164.78 17.1417 166.128 16.337C167.477 15.5323 169.047 15.13 170.837 15.13C172.707 15.13 174.3 15.5663 175.614 16.439C176.929 17.3003 177.909 18.53 178.555 20.128C179.213 21.726 179.473 23.6243 179.337 25.823H175.784V24.531C175.762 22.4003 175.354 20.825 174.56 19.805C173.778 18.785 172.583 18.275 170.973 18.275C169.194 18.275 167.857 18.836 166.961 19.958C166.066 21.08 165.618 22.7007 165.618 24.82C165.618 26.8373 166.066 28.4013 166.961 29.512C167.857 30.6113 169.149 31.161 170.837 31.161C171.948 31.161 172.906 30.9117 173.71 30.413C174.526 29.903 175.161 29.1777 175.614 28.237L179.099 29.342C178.385 30.9853 177.303 32.2603 175.852 33.167C174.402 34.0623 172.787 34.51 171.007 34.51ZM164.462 25.823V23.052H177.569V25.823H164.462ZM190.172 34.493C187.94 34.493 186.121 34 184.715 33.014C183.31 32.028 182.449 30.6397 182.131 28.849L185.769 28.288C185.996 29.24 186.517 29.9937 187.333 30.549C188.161 31.093 189.186 31.365 190.41 31.365C191.521 31.365 192.388 31.1383 193.011 30.685C193.646 30.2317 193.963 29.6083 193.963 28.815C193.963 28.3503 193.85 27.9763 193.623 27.693C193.408 27.3983 192.949 27.1207 192.246 26.86C191.544 26.5993 190.473 26.2763 189.033 25.891C187.458 25.483 186.206 25.0467 185.276 24.582C184.358 24.106 183.701 23.5563 183.304 22.933C182.919 22.2983 182.726 21.5333 182.726 20.638C182.726 19.5273 183.021 18.5583 183.61 17.731C184.2 16.9037 185.027 16.2633 186.092 15.81C187.169 15.3567 188.427 15.13 189.866 15.13C191.272 15.13 192.524 15.351 193.623 15.793C194.723 16.235 195.612 16.864 196.292 17.68C196.972 18.4847 197.38 19.431 197.516 20.519L193.878 21.182C193.754 20.298 193.34 19.601 192.637 19.091C191.935 18.581 191.022 18.3033 189.9 18.258C188.824 18.2127 187.951 18.394 187.282 18.802C186.614 19.1987 186.279 19.7483 186.279 20.451C186.279 20.859 186.404 21.2047 186.653 21.488C186.914 21.7713 187.413 22.0433 188.149 22.304C188.886 22.5647 189.974 22.8763 191.413 23.239C192.955 23.6357 194.179 24.0777 195.085 24.565C195.992 25.041 196.638 25.6133 197.023 26.282C197.42 26.9393 197.618 27.7383 197.618 28.679C197.618 30.4923 196.955 31.9147 195.629 32.946C194.315 33.9773 192.496 34.493 190.172 34.493Z" fill="url(#paint1_linear_145_1619)"/>
<path d="M87.4205 100V78.869H79.2775V75.52H99.1165V78.869H90.9735V100H87.4205ZM104.631 100.51C103.271 100.51 102.132 100.261 101.214 99.762C100.296 99.252 99.5994 98.5833 99.1234 97.756C98.6587 96.9173 98.4264 95.9993 98.4264 95.002C98.4264 94.0727 98.5907 93.2567 98.9194 92.554C99.2481 91.8513 99.7354 91.2563 100.381 90.769C101.027 90.2703 101.821 89.868 102.761 89.562C103.577 89.324 104.501 89.1143 105.532 88.933C106.564 88.7517 107.646 88.5817 108.779 88.423C109.924 88.2643 111.057 88.1057 112.179 87.947L110.887 88.661C110.91 87.2217 110.604 86.1563 109.969 85.465C109.346 84.7623 108.269 84.411 106.739 84.411C105.776 84.411 104.892 84.6377 104.087 85.091C103.283 85.533 102.722 86.2697 102.404 87.301L99.0894 86.281C99.5427 84.7057 100.404 83.4533 101.673 82.524C102.954 81.5947 104.654 81.13 106.773 81.13C108.417 81.13 109.845 81.4133 111.057 81.98C112.281 82.5353 113.177 83.4193 113.743 84.632C114.038 85.2327 114.219 85.8673 114.287 86.536C114.355 87.2047 114.389 87.9243 114.389 88.695V100H111.244V95.801L111.856 96.345C111.097 97.7503 110.128 98.7987 108.949 99.49C107.782 100.17 106.343 100.51 104.631 100.51ZM105.26 97.603C106.269 97.603 107.136 97.4273 107.861 97.076C108.587 96.7133 109.17 96.2543 109.612 95.699C110.054 95.1437 110.343 94.5657 110.479 93.965C110.672 93.421 110.78 92.809 110.802 92.129C110.836 91.449 110.853 90.905 110.853 90.497L112.009 90.922C110.887 91.092 109.867 91.245 108.949 91.381C108.031 91.517 107.198 91.653 106.45 91.789C105.714 91.9137 105.056 92.0667 104.478 92.248C103.991 92.418 103.555 92.622 103.169 92.86C102.795 93.098 102.495 93.387 102.268 93.727C102.053 94.067 101.945 94.4807 101.945 94.968C101.945 95.444 102.064 95.886 102.302 96.294C102.54 96.6907 102.903 97.008 103.39 97.246C103.878 97.484 104.501 97.603 105.26 97.603ZM127.423 100.51C125.666 100.51 124.193 100.085 123.003 99.235C121.813 98.3737 120.912 97.212 120.3 95.75C119.688 94.288 119.382 92.639 119.382 90.803C119.382 88.967 119.682 87.318 120.283 85.856C120.895 84.394 121.79 83.2437 122.969 82.405C124.159 81.555 125.621 81.13 127.355 81.13C129.077 81.13 130.562 81.555 131.809 82.405C133.067 83.2437 134.036 84.394 134.716 85.856C135.396 87.3067 135.736 88.9557 135.736 90.803C135.736 92.639 135.396 94.2937 134.716 95.767C134.047 97.229 133.089 98.385 131.843 99.235C130.607 100.085 129.134 100.51 127.423 100.51ZM118.787 100V75.52H122.357V86.791H121.949V100H118.787ZM126.93 97.297C128.063 97.297 128.998 97.008 129.735 96.43C130.483 95.852 131.038 95.0757 131.401 94.101C131.775 93.115 131.962 92.0157 131.962 90.803C131.962 89.6017 131.775 88.5137 131.401 87.539C131.038 86.5643 130.477 85.788 129.718 85.21C128.958 84.632 127.989 84.343 126.811 84.343C125.7 84.343 124.782 84.615 124.057 85.159C123.343 85.703 122.81 86.4623 122.459 87.437C122.119 88.4117 121.949 89.5337 121.949 90.803C121.949 92.0723 122.119 93.1943 122.459 94.169C122.799 95.1437 123.337 95.9087 124.074 96.464C124.81 97.0193 125.762 97.297 126.93 97.297ZM139.829 100V75.01H143.382V100H139.829ZM156.63 100.51C154.806 100.51 153.202 100.113 151.819 99.32C150.448 98.5153 149.377 97.399 148.606 95.971C147.847 94.5317 147.467 92.8657 147.467 90.973C147.467 88.967 147.841 87.2273 148.589 85.754C149.349 84.2807 150.403 83.1417 151.751 82.337C153.1 81.5323 154.67 81.13 156.46 81.13C158.33 81.13 159.923 81.5663 161.237 82.439C162.552 83.3003 163.532 84.53 164.178 86.128C164.836 87.726 165.096 89.6243 164.96 91.823H161.407V90.531C161.385 88.4003 160.977 86.825 160.183 85.805C159.401 84.785 158.206 84.275 156.596 84.275C154.817 84.275 153.48 84.836 152.584 85.958C151.689 87.08 151.241 88.7007 151.241 90.82C151.241 92.8373 151.689 94.4013 152.584 95.512C153.48 96.6113 154.772 97.161 156.46 97.161C157.571 97.161 158.529 96.9117 159.333 96.413C160.149 95.903 160.784 95.1777 161.237 94.237L164.722 95.342C164.008 96.9853 162.926 98.2603 161.475 99.167C160.025 100.062 158.41 100.51 156.63 100.51ZM150.085 91.823V89.052H163.192V91.823H150.085ZM179.281 100C178.125 100.227 176.991 100.323 175.881 100.289C174.77 100.255 173.778 100.04 172.906 99.643C172.033 99.2463 171.376 98.623 170.934 97.773C170.537 97.0137 170.322 96.243 170.288 95.461C170.265 94.6677 170.254 93.7723 170.254 92.775V76.54H173.824V92.605C173.824 93.3417 173.829 93.982 173.841 94.526C173.863 95.07 173.982 95.529 174.198 95.903C174.606 96.6057 175.252 97.008 176.136 97.11C177.031 97.2007 178.079 97.161 179.281 96.991V100ZM166.735 84.496V81.64H179.281V84.496H166.735ZM190.172 100.493C187.94 100.493 186.121 100 184.715 99.014C183.31 98.028 182.449 96.6397 182.131 94.849L185.769 94.288C185.996 95.24 186.517 95.9937 187.333 96.549C188.161 97.093 189.186 97.365 190.41 97.365C191.521 97.365 192.388 97.1383 193.011 96.685C193.646 96.2317 193.963 95.6083 193.963 94.815C193.963 94.3503 193.85 93.9763 193.623 93.693C193.408 93.3983 192.949 93.1207 192.246 92.86C191.544 92.5993 190.473 92.2763 189.033 91.891C187.458 91.483 186.206 91.0467 185.276 90.582C184.358 90.106 183.701 89.5563 183.304 88.933C182.919 88.2983 182.726 87.5333 182.726 86.638C182.726 85.5273 183.021 84.5583 183.61 83.731C184.2 82.9037 185.027 82.2633 186.092 81.81C187.169 81.3567 188.427 81.13 189.866 81.13C191.272 81.13 192.524 81.351 193.623 81.793C194.723 82.235 195.612 82.864 196.292 83.68C196.972 84.4847 197.38 85.431 197.516 86.519L193.878 87.182C193.754 86.298 193.34 85.601 192.637 85.091C191.935 84.581 191.022 84.3033 189.9 84.258C188.824 84.2127 187.951 84.394 187.282 84.802C186.614 85.1987 186.279 85.7483 186.279 86.451C186.279 86.859 186.404 87.2047 186.653 87.488C186.914 87.7713 187.413 88.0433 188.149 88.304C188.886 88.5647 189.974 88.8763 191.413 89.239C192.955 89.6357 194.179 90.0777 195.085 90.565C195.992 91.041 196.638 91.6133 197.023 92.282C197.42 92.9393 197.618 93.7383 197.618 94.679C197.618 96.4923 196.955 97.9147 195.629 98.946C194.315 99.9773 192.496 100.493 190.172 100.493Z" fill="url(#paint2_linear_145_1619)"/>
<path d="M70.9661 166V141.52H74.5191V162.651H85.6031V166H70.9661ZM93.6744 166.51C92.3144 166.51 91.1754 166.261 90.2574 165.762C89.3394 165.252 88.6424 164.583 88.1664 163.756C87.7017 162.917 87.4694 161.999 87.4694 161.002C87.4694 160.073 87.6337 159.257 87.9624 158.554C88.291 157.851 88.7784 157.256 89.4244 156.769C90.0704 156.27 90.8637 155.868 91.8044 155.562C92.6204 155.324 93.544 155.114 94.5754 154.933C95.6067 154.752 96.689 154.582 97.8224 154.423C98.967 154.264 100.1 154.106 101.222 153.947L99.9304 154.661C99.953 153.222 99.647 152.156 99.0124 151.465C98.389 150.762 97.3124 150.411 95.7824 150.411C94.819 150.411 93.935 150.638 93.1304 151.091C92.3257 151.533 91.7647 152.27 91.4474 153.301L88.1324 152.281C88.5857 150.706 89.447 149.453 90.7164 148.524C91.997 147.595 93.697 147.13 95.8164 147.13C97.4597 147.13 98.8877 147.413 100.1 147.98C101.324 148.535 102.22 149.419 102.786 150.632C103.081 151.233 103.262 151.867 103.33 152.536C103.398 153.205 103.432 153.924 103.432 154.695V166H100.287V161.801L100.899 162.345C100.14 163.75 99.171 164.799 97.9924 165.49C96.825 166.17 95.3857 166.51 93.6744 166.51ZM94.3034 163.603C95.312 163.603 96.179 163.427 96.9044 163.076C97.6297 162.713 98.2134 162.254 98.6554 161.699C99.0974 161.144 99.3864 160.566 99.5224 159.965C99.715 159.421 99.8227 158.809 99.8454 158.129C99.8794 157.449 99.8964 156.905 99.8964 156.497L101.052 156.922C99.9304 157.092 98.9104 157.245 97.9924 157.381C97.0744 157.517 96.2414 157.653 95.4934 157.789C94.7567 157.914 94.0994 158.067 93.5214 158.248C93.034 158.418 92.5977 158.622 92.2124 158.86C91.8384 159.098 91.538 159.387 91.3114 159.727C91.096 160.067 90.9884 160.481 90.9884 160.968C90.9884 161.444 91.1074 161.886 91.3454 162.294C91.5834 162.691 91.946 163.008 92.4334 163.246C92.9207 163.484 93.544 163.603 94.3034 163.603ZM116.466 166.51C114.709 166.51 113.236 166.085 112.046 165.235C110.856 164.374 109.955 163.212 109.343 161.75C108.731 160.288 108.425 158.639 108.425 156.803C108.425 154.967 108.725 153.318 109.326 151.856C109.938 150.394 110.833 149.244 112.012 148.405C113.202 147.555 114.664 147.13 116.398 147.13C118.12 147.13 119.605 147.555 120.852 148.405C122.11 149.244 123.079 150.394 123.759 151.856C124.439 153.307 124.779 154.956 124.779 156.803C124.779 158.639 124.439 160.294 123.759 161.767C123.09 163.229 122.132 164.385 120.886 165.235C119.65 166.085 118.177 166.51 116.466 166.51ZM107.83 174.16V147.64H110.992V160.849H111.4V174.16H107.83ZM115.973 163.297C117.106 163.297 118.041 163.008 118.778 162.43C119.526 161.852 120.081 161.076 120.444 160.101C120.818 159.115 121.005 158.016 121.005 156.803C121.005 155.602 120.818 154.514 120.444 153.539C120.081 152.564 119.52 151.788 118.761 151.21C118.001 150.632 117.032 150.343 115.854 150.343C114.743 150.343 113.825 150.615 113.1 151.159C112.386 151.703 111.853 152.462 111.502 153.437C111.162 154.412 110.992 155.534 110.992 156.803C110.992 158.072 111.162 159.194 111.502 160.169C111.842 161.144 112.38 161.909 113.117 162.464C113.853 163.019 114.805 163.297 115.973 163.297ZM139.038 166C137.882 166.227 136.749 166.323 135.638 166.289C134.528 166.255 133.536 166.04 132.663 165.643C131.791 165.246 131.133 164.623 130.691 163.773C130.295 163.014 130.079 162.243 130.045 161.461C130.023 160.668 130.011 159.772 130.011 158.775V142.54H133.581V158.605C133.581 159.342 133.587 159.982 133.598 160.526C133.621 161.07 133.74 161.529 133.955 161.903C134.363 162.606 135.009 163.008 135.893 163.11C136.789 163.201 137.837 163.161 139.038 162.991V166ZM126.492 150.496V147.64H139.038V150.496H126.492ZM150.052 166.51C148.216 166.51 146.624 166.096 145.275 165.269C143.927 164.442 142.884 163.303 142.147 161.852C141.422 160.39 141.059 158.707 141.059 156.803C141.059 154.888 141.433 153.205 142.181 151.754C142.929 150.292 143.978 149.159 145.326 148.354C146.675 147.538 148.25 147.13 150.052 147.13C151.888 147.13 153.481 147.544 154.829 148.371C156.178 149.198 157.221 150.337 157.957 151.788C158.694 153.239 159.062 154.91 159.062 156.803C159.062 158.718 158.688 160.407 157.94 161.869C157.204 163.32 156.161 164.459 154.812 165.286C153.464 166.102 151.877 166.51 150.052 166.51ZM150.052 163.161C151.809 163.161 153.118 162.572 153.979 161.393C154.852 160.203 155.288 158.673 155.288 156.803C155.288 154.888 154.846 153.358 153.962 152.213C153.09 151.057 151.786 150.479 150.052 150.479C148.862 150.479 147.882 150.751 147.111 151.295C146.341 151.828 145.768 152.57 145.394 153.522C145.02 154.463 144.833 155.556 144.833 156.803C144.833 158.73 145.275 160.271 146.159 161.427C147.043 162.583 148.341 163.161 150.052 163.161ZM171.417 166.51C169.66 166.51 168.187 166.085 166.997 165.235C165.807 164.374 164.906 163.212 164.294 161.75C163.682 160.288 163.376 158.639 163.376 156.803C163.376 154.967 163.676 153.318 164.277 151.856C164.889 150.394 165.784 149.244 166.963 148.405C168.153 147.555 169.615 147.13 171.349 147.13C173.072 147.13 174.556 147.555 175.803 148.405C177.061 149.244 178.03 150.394 178.71 151.856C179.39 153.307 179.73 154.956 179.73 156.803C179.73 158.639 179.39 160.294 178.71 161.767C178.041 163.229 177.084 164.385 175.837 165.235C174.602 166.085 173.128 166.51 171.417 166.51ZM162.781 174.16V147.64H165.943V160.849H166.351V174.16H162.781ZM170.924 163.297C172.057 163.297 172.992 163.008 173.729 162.43C174.477 161.852 175.032 161.076 175.395 160.101C175.769 159.115 175.956 158.016 175.956 156.803C175.956 155.602 175.769 154.514 175.395 153.539C175.032 152.564 174.471 151.788 173.712 151.21C172.953 150.632 171.984 150.343 170.805 150.343C169.694 150.343 168.776 150.615 168.051 151.159C167.337 151.703 166.804 152.462 166.453 153.437C166.113 154.412 165.943 155.534 165.943 156.803C165.943 158.072 166.113 159.194 166.453 160.169C166.793 161.144 167.331 161.909 168.068 162.464C168.805 163.019 169.757 163.297 170.924 163.297ZM190.172 166.493C187.94 166.493 186.121 166 184.715 165.014C183.31 164.028 182.449 162.64 182.131 160.849L185.769 160.288C185.996 161.24 186.517 161.994 187.333 162.549C188.161 163.093 189.186 163.365 190.41 163.365C191.521 163.365 192.388 163.138 193.011 162.685C193.646 162.232 193.963 161.608 193.963 160.815C193.963 160.35 193.85 159.976 193.623 159.693C193.408 159.398 192.949 159.121 192.246 158.86C191.544 158.599 190.473 158.276 189.033 157.891C187.458 157.483 186.206 157.047 185.276 156.582C184.358 156.106 183.701 155.556 183.304 154.933C182.919 154.298 182.726 153.533 182.726 152.638C182.726 151.527 183.021 150.558 183.61 149.731C184.2 148.904 185.027 148.263 186.092 147.81C187.169 147.357 188.427 147.13 189.866 147.13C191.272 147.13 192.524 147.351 193.623 147.793C194.723 148.235 195.612 148.864 196.292 149.68C196.972 150.485 197.38 151.431 197.516 152.519L193.878 153.182C193.754 152.298 193.34 151.601 192.637 151.091C191.935 150.581 191.022 150.303 189.9 150.258C188.824 150.213 187.951 150.394 187.282 150.802C186.614 151.199 186.279 151.748 186.279 152.451C186.279 152.859 186.404 153.205 186.653 153.488C186.914 153.771 187.413 154.043 188.149 154.304C188.886 154.565 189.974 154.876 191.413 155.239C192.955 155.636 194.179 156.078 195.085 156.565C195.992 157.041 196.638 157.613 197.023 158.282C197.42 158.939 197.618 159.738 197.618 160.679C197.618 162.492 196.955 163.915 195.629 164.946C194.315 165.977 192.496 166.493 190.172 166.493Z" fill="url(#paint3_linear_145_1619)"/>
<path d="M1.52375 232L9.47975 207.52H14.5968L22.5528 232H18.8638L11.5368 209.662H12.4548L5.21275 232H1.52375ZM5.65475 226.475V223.143H18.4388V226.475H5.65475ZM33.4567 232.51C31.5753 232.51 29.9773 232.091 28.6627 231.252C27.348 230.413 26.3393 229.263 25.6367 227.801C24.9453 226.339 24.594 224.679 24.5827 222.82C24.594 220.927 24.9567 219.256 25.6707 217.805C26.3847 216.343 27.4047 215.198 28.7307 214.371C30.0567 213.544 31.649 213.13 33.5077 213.13C35.5137 213.13 37.225 213.629 38.6417 214.626C40.0697 215.623 41.0103 216.989 41.4637 218.723L37.9277 219.743C37.5763 218.712 36.9983 217.913 36.1937 217.346C35.4003 216.768 34.488 216.479 33.4567 216.479C32.2893 216.479 31.3317 216.757 30.5837 217.312C29.8357 217.856 29.2803 218.604 28.9177 219.556C28.555 220.508 28.368 221.596 28.3567 222.82C28.368 224.713 28.7987 226.243 29.6487 227.41C30.51 228.577 31.7793 229.161 33.4567 229.161C34.6013 229.161 35.525 228.9 36.2277 228.379C36.9417 227.846 37.4857 227.087 37.8597 226.101L41.4637 226.951C40.863 228.742 39.8713 230.119 38.4887 231.082C37.106 232.034 35.4287 232.51 33.4567 232.51ZM52.2828 232.51C50.4015 232.51 48.8035 232.091 47.4888 231.252C46.1742 230.413 45.1655 229.263 44.4628 227.801C43.7715 226.339 43.4202 224.679 43.4088 222.82C43.4202 220.927 43.7828 219.256 44.4968 217.805C45.2108 216.343 46.2308 215.198 47.5568 214.371C48.8828 213.544 50.4752 213.13 52.3338 213.13C54.3398 213.13 56.0512 213.629 57.4678 214.626C58.8958 215.623 59.8365 216.989 60.2898 218.723L56.7538 219.743C56.4025 218.712 55.8245 217.913 55.0198 217.346C54.2265 216.768 53.3142 216.479 52.2828 216.479C51.1155 216.479 50.1578 216.757 49.4098 217.312C48.6618 217.856 48.1065 218.604 47.7438 219.556C47.3812 220.508 47.1942 221.596 47.1828 222.82C47.1942 224.713 47.6248 226.243 48.4748 227.41C49.3362 228.577 50.6055 229.161 52.2828 229.161C53.4275 229.161 54.3512 228.9 55.0538 228.379C55.7678 227.846 56.3118 227.087 56.6858 226.101L60.2898 226.951C59.6892 228.742 58.6975 230.119 57.3148 231.082C55.9322 232.034 54.2548 232.51 52.2828 232.51ZM71.398 232.51C69.5733 232.51 67.9697 232.113 66.587 231.32C65.2157 230.515 64.1447 229.399 63.374 227.971C62.6147 226.532 62.235 224.866 62.235 222.973C62.235 220.967 62.609 219.227 63.357 217.754C64.1163 216.281 65.1703 215.142 66.519 214.337C67.8677 213.532 69.4373 213.13 71.228 213.13C73.098 213.13 74.6903 213.566 76.005 214.439C77.3197 215.3 78.3 216.53 78.946 218.128C79.6033 219.726 79.864 221.624 79.728 223.823H76.175V222.531C76.1523 220.4 75.7443 218.825 74.951 217.805C74.169 216.785 72.9733 216.275 71.364 216.275C69.5847 216.275 68.2473 216.836 67.352 217.958C66.4567 219.08 66.009 220.701 66.009 222.82C66.009 224.837 66.4567 226.401 67.352 227.512C68.2473 228.611 69.5393 229.161 71.228 229.161C72.3387 229.161 73.2963 228.912 74.101 228.413C74.917 227.903 75.5517 227.178 76.005 226.237L79.49 227.342C78.776 228.985 77.6937 230.26 76.243 231.167C74.7923 232.062 73.1773 232.51 71.398 232.51ZM64.853 223.823V221.052H77.96V223.823H64.853ZM90.5631 232.493C88.3304 232.493 86.5114 232 85.1061 231.014C83.7008 230.028 82.8394 228.64 82.5221 226.849L86.1601 226.288C86.3868 227.24 86.9081 227.994 87.7241 228.549C88.5514 229.093 89.5771 229.365 90.8011 229.365C91.9118 229.365 92.7788 229.138 93.4021 228.685C94.0368 228.232 94.3541 227.608 94.3541 226.815C94.3541 226.35 94.2408 225.976 94.0141 225.693C93.7988 225.398 93.3398 225.121 92.6371 224.86C91.9344 224.599 90.8634 224.276 89.4241 223.891C87.8488 223.483 86.5964 223.047 85.6671 222.582C84.7491 222.106 84.0918 221.556 83.6951 220.933C83.3098 220.298 83.1171 219.533 83.1171 218.638C83.1171 217.527 83.4118 216.558 84.0011 215.731C84.5904 214.904 85.4178 214.263 86.4831 213.81C87.5598 213.357 88.8178 213.13 90.2571 213.13C91.6624 213.13 92.9148 213.351 94.0141 213.793C95.1134 214.235 96.0031 214.864 96.6831 215.68C97.3631 216.485 97.7711 217.431 97.9071 218.519L94.2691 219.182C94.1444 218.298 93.7308 217.601 93.0281 217.091C92.3254 216.581 91.4131 216.303 90.2911 216.258C89.2144 216.213 88.3418 216.394 87.6731 216.802C87.0044 217.199 86.6701 217.748 86.6701 218.451C86.6701 218.859 86.7948 219.205 87.0441 219.488C87.3048 219.771 87.8034 220.043 88.5401 220.304C89.2768 220.565 90.3648 220.876 91.8041 221.239C93.3454 221.636 94.5694 222.078 95.4761 222.565C96.3828 223.041 97.0288 223.613 97.4141 224.282C97.8108 224.939 98.0091 225.738 98.0091 226.679C98.0091 228.492 97.3461 229.915 96.0201 230.946C94.7054 231.977 92.8864 232.493 90.5631 232.493ZM108.792 232.493C106.559 232.493 104.74 232 103.335 231.014C101.929 230.028 101.068 228.64 100.751 226.849L104.389 226.288C104.615 227.24 105.137 227.994 105.953 228.549C106.78 229.093 107.806 229.365 109.03 229.365C110.14 229.365 111.007 229.138 111.631 228.685C112.265 228.232 112.583 227.608 112.583 226.815C112.583 226.35 112.469 225.976 112.243 225.693C112.027 225.398 111.568 225.121 110.866 224.86C110.163 224.599 109.092 224.276 107.653 223.891C106.077 223.483 104.825 223.047 103.896 222.582C102.978 222.106 102.32 221.556 101.924 220.933C101.538 220.298 101.346 219.533 101.346 218.638C101.346 217.527 101.64 216.558 102.23 215.731C102.819 214.904 103.646 214.263 104.712 213.81C105.788 213.357 107.046 213.13 108.486 213.13C109.891 213.13 111.143 213.351 112.243 213.793C113.342 214.235 114.232 214.864 114.912 215.68C115.592 216.485 116 217.431 116.136 218.519L112.498 219.182C112.373 218.298 111.959 217.601 111.257 217.091C110.554 216.581 109.642 216.303 108.52 216.258C107.443 216.213 106.57 216.394 105.902 216.802C105.233 217.199 104.899 217.748 104.899 218.451C104.899 218.859 105.023 219.205 105.273 219.488C105.533 219.771 106.032 220.043 106.769 220.304C107.505 220.565 108.593 220.876 110.033 221.239C111.574 221.636 112.798 222.078 113.705 222.565C114.611 223.041 115.257 223.613 115.643 224.282C116.039 224.939 116.238 225.738 116.238 226.679C116.238 228.492 115.575 229.915 114.249 230.946C112.934 231.977 111.115 232.493 108.792 232.493ZM127.972 232.51C126.136 232.51 124.544 232.096 123.195 231.269C121.846 230.442 120.804 229.303 120.067 227.852C119.342 226.39 118.979 224.707 118.979 222.803C118.979 220.888 119.353 219.205 120.101 217.754C120.849 216.292 121.897 215.159 123.246 214.354C124.595 213.538 126.17 213.13 127.972 213.13C129.808 213.13 131.4 213.544 132.749 214.371C134.098 215.198 135.14 216.337 135.877 217.788C136.614 219.239 136.982 220.91 136.982 222.803C136.982 224.718 136.608 226.407 135.86 227.869C135.123 229.32 134.081 230.459 132.732 231.286C131.383 232.102 129.797 232.51 127.972 232.51ZM127.972 229.161C129.729 229.161 131.038 228.572 131.899 227.393C132.772 226.203 133.208 224.673 133.208 222.803C133.208 220.888 132.766 219.358 131.882 218.213C131.009 217.057 129.706 216.479 127.972 216.479C126.782 216.479 125.802 216.751 125.031 217.295C124.26 217.828 123.688 218.57 123.314 219.522C122.94 220.463 122.753 221.556 122.753 222.803C122.753 224.73 123.195 226.271 124.079 227.427C124.963 228.583 126.261 229.161 127.972 229.161ZM140.718 232V213.64H143.88V218.094L143.438 217.516C143.665 216.927 143.959 216.388 144.322 215.901C144.685 215.402 145.104 214.994 145.58 214.677C146.045 214.337 146.56 214.076 147.127 213.895C147.705 213.702 148.294 213.589 148.895 213.555C149.496 213.51 150.074 213.538 150.629 213.64V216.972C150.028 216.813 149.36 216.768 148.623 216.836C147.898 216.904 147.229 217.136 146.617 217.533C146.039 217.907 145.58 218.36 145.24 218.893C144.911 219.426 144.673 220.021 144.526 220.678C144.379 221.324 144.305 222.01 144.305 222.735V232H140.718ZM154.206 210.631V207.18H157.759V210.631H154.206ZM154.206 232V213.64H157.759V232H154.206ZM171.007 232.51C169.183 232.51 167.579 232.113 166.196 231.32C164.825 230.515 163.754 229.399 162.983 227.971C162.224 226.532 161.844 224.866 161.844 222.973C161.844 220.967 162.218 219.227 162.966 217.754C163.726 216.281 164.78 215.142 166.128 214.337C167.477 213.532 169.047 213.13 170.837 213.13C172.707 213.13 174.3 213.566 175.614 214.439C176.929 215.3 177.909 216.53 178.555 218.128C179.213 219.726 179.473 221.624 179.337 223.823H175.784V222.531C175.762 220.4 175.354 218.825 174.56 217.805C173.778 216.785 172.583 216.275 170.973 216.275C169.194 216.275 167.857 216.836 166.961 217.958C166.066 219.08 165.618 220.701 165.618 222.82C165.618 224.837 166.066 226.401 166.961 227.512C167.857 228.611 169.149 229.161 170.837 229.161C171.948 229.161 172.906 228.912 173.71 228.413C174.526 227.903 175.161 227.178 175.614 226.237L179.099 227.342C178.385 228.985 177.303 230.26 175.852 231.167C174.402 232.062 172.787 232.51 171.007 232.51ZM164.462 223.823V221.052H177.569V223.823H164.462ZM190.172 232.493C187.94 232.493 186.121 232 184.715 231.014C183.31 230.028 182.449 228.64 182.131 226.849L185.769 226.288C185.996 227.24 186.517 227.994 187.333 228.549C188.161 229.093 189.186 229.365 190.41 229.365C191.521 229.365 192.388 229.138 193.011 228.685C193.646 228.232 193.963 227.608 193.963 226.815C193.963 226.35 193.85 225.976 193.623 225.693C193.408 225.398 192.949 225.121 192.246 224.86C191.544 224.599 190.473 224.276 189.033 223.891C187.458 223.483 186.206 223.047 185.276 222.582C184.358 222.106 183.701 221.556 183.304 220.933C182.919 220.298 182.726 219.533 182.726 218.638C182.726 217.527 183.021 216.558 183.61 215.731C184.2 214.904 185.027 214.263 186.092 213.81C187.169 213.357 188.427 213.13 189.866 213.13C191.272 213.13 192.524 213.351 193.623 213.793C194.723 214.235 195.612 214.864 196.292 215.68C196.972 216.485 197.38 217.431 197.516 218.519L193.878 219.182C193.754 218.298 193.34 217.601 192.637 217.091C191.935 216.581 191.022 216.303 189.9 216.258C188.824 216.213 187.951 216.394 187.282 216.802C186.614 217.199 186.279 217.748 186.279 218.451C186.279 218.859 186.404 219.205 186.653 219.488C186.914 219.771 187.413 220.043 188.149 220.304C188.886 220.565 189.974 220.876 191.413 221.239C192.955 221.636 194.179 222.078 195.085 222.565C195.992 223.041 196.638 223.613 197.023 224.282C197.42 224.939 197.618 225.738 197.618 226.679C197.618 228.492 196.955 229.915 195.629 230.946C194.315 231.977 192.496 232.493 190.172 232.493Z" fill="url(#paint4_linear_145_1619)"/>
</g>
<defs>
<linearGradient id="paint0_linear_145_1619" x1="168.5" y1="264" x2="168.5" y2="306" gradientUnits="userSpaceOnUse">
<stop stop-color="#90E0EF"/>
<stop offset="1" stop-color="#00B4D8"/>
</linearGradient>
<linearGradient id="paint1_linear_145_1619" x1="137.5" y1="0" x2="137.5" y2="42" gradientUnits="userSpaceOnUse">
<stop stop-color="#90E0EF"/>
<stop offset="1" stop-color="#00B4D8"/>
</linearGradient>
<linearGradient id="paint2_linear_145_1619" x1="138.5" y1="66" x2="138.5" y2="108" gradientUnits="userSpaceOnUse">
<stop stop-color="#90E0EF"/>
<stop offset="1" stop-color="#00B4D8"/>
</linearGradient>
<linearGradient id="paint3_linear_145_1619" x1="133.5" y1="132" x2="133.5" y2="174" gradientUnits="userSpaceOnUse">
<stop stop-color="#90E0EF"/>
<stop offset="1" stop-color="#00B4D8"/>
</linearGradient>
<linearGradient id="paint4_linear_145_1619" x1="99.5" y1="198" x2="99.5" y2="240" gradientUnits="userSpaceOnUse">
<stop stop-color="#90E0EF"/>
<stop offset="1" stop-color="#00B4D8"/>
</linearGradient>
</defs>
</svg>
