<svg width="199" height="48" viewBox="0 0 199 48" fill="none" xmlns="http://www.w3.org/2000/svg">
<mask id="mask0_145_1618" style="mask-type:alpha" maskUnits="userSpaceOnUse" x="0" y="0" width="199" height="48">
<rect width="199" height="48" fill="#111111"/>
</mask>
<g mask="url(#mask0_145_1618)">
<path d="M140.552 34V9.52H150.174C151.727 9.52 153.03 9.83733 154.084 10.472C155.138 11.1067 155.931 11.9283 156.464 12.937C156.997 13.9343 157.263 14.9883 157.263 16.099C157.263 17.4477 156.929 18.6037 156.26 19.567C155.603 20.5303 154.713 21.1877 153.591 21.539L153.557 20.706C155.121 21.0913 156.322 21.845 157.161 22.967C158 24.0777 158.419 25.3753 158.419 26.86C158.419 28.2993 158.13 29.5517 157.552 30.617C156.985 31.6823 156.152 32.5153 155.053 33.116C153.965 33.7053 152.645 34 151.092 34H140.552ZM144.156 30.617H150.548C151.353 30.617 152.072 30.464 152.707 30.158C153.353 29.852 153.857 29.4157 154.22 28.849C154.594 28.271 154.781 27.5853 154.781 26.792C154.781 26.0553 154.617 25.3923 154.288 24.803C153.971 24.2023 153.506 23.732 152.894 23.392C152.293 23.0407 151.585 22.865 150.769 22.865H144.156V30.617ZM144.156 19.516H150.123C150.78 19.516 151.37 19.3857 151.891 19.125C152.424 18.853 152.843 18.4677 153.149 17.969C153.466 17.459 153.625 16.847 153.625 16.133C153.625 15.181 153.308 14.399 152.673 13.787C152.038 13.175 151.188 12.869 150.123 12.869H144.156V19.516ZM168.721 34.493C167.452 34.493 166.386 34.289 165.525 33.881C164.664 33.473 163.961 32.9403 163.417 32.283C162.884 31.6143 162.476 30.889 162.193 30.107C161.91 29.325 161.717 28.56 161.615 27.812C161.513 27.064 161.462 26.4067 161.462 25.84V15.64H165.066V24.667C165.066 25.381 165.123 26.1177 165.236 26.877C165.361 27.625 165.587 28.322 165.916 28.968C166.256 29.614 166.726 30.1353 167.327 30.532C167.939 30.9287 168.732 31.127 169.707 31.127C170.342 31.127 170.942 31.025 171.509 30.821C172.076 30.6057 172.569 30.2657 172.988 29.801C173.419 29.3363 173.753 28.7243 173.991 27.965C174.24 27.2057 174.365 26.282 174.365 25.194L176.575 26.027C176.575 27.693 176.263 29.1663 175.64 30.447C175.017 31.7163 174.121 32.708 172.954 33.422C171.787 34.136 170.376 34.493 168.721 34.493ZM174.79 34V28.696H174.365V15.64H177.952V34H174.79ZM185.202 42.16L188.755 32.487L188.806 35.343L180.799 15.64H184.505L190.489 30.855H189.401L195.113 15.64H198.717L188.585 42.16H185.202Z" fill="url(#paint0_linear_145_1618)"/>
<path d="M79.2257 -230V-254.48H89.1197C89.3577 -254.48 89.6524 -254.469 90.0037 -254.446C90.355 -254.435 90.6894 -254.401 91.0067 -254.344C92.3667 -254.129 93.5 -253.664 94.4067 -252.95C95.3247 -252.236 96.0104 -251.335 96.4637 -250.247C96.917 -249.159 97.1437 -247.958 97.1437 -246.643C97.1437 -245.317 96.917 -244.11 96.4637 -243.022C96.0104 -241.934 95.3247 -241.033 94.4067 -240.319C93.5 -239.605 92.3667 -239.14 91.0067 -238.925C90.6894 -238.88 90.3494 -238.846 89.9867 -238.823C89.6354 -238.8 89.3464 -238.789 89.1197 -238.789H82.7787V-230H79.2257ZM82.7787 -242.155H88.9837C89.2104 -242.155 89.4597 -242.166 89.7317 -242.189C90.015 -242.212 90.2814 -242.251 90.5307 -242.308C91.256 -242.478 91.8397 -242.79 92.2817 -243.243C92.7237 -243.708 93.041 -244.24 93.2337 -244.841C93.4264 -245.442 93.5227 -246.042 93.5227 -246.643C93.5227 -247.244 93.4264 -247.839 93.2337 -248.428C93.041 -249.029 92.7237 -249.556 92.2817 -250.009C91.8397 -250.474 91.256 -250.791 90.5307 -250.961C90.2814 -251.029 90.015 -251.074 89.7317 -251.097C89.4597 -251.12 89.2104 -251.131 88.9837 -251.131H82.7787V-242.155ZM113.428 -230V-239.027C113.428 -239.741 113.366 -240.472 113.241 -241.22C113.128 -241.979 112.901 -242.682 112.561 -243.328C112.232 -243.974 111.762 -244.495 111.15 -244.892C110.549 -245.289 109.762 -245.487 108.787 -245.487C108.152 -245.487 107.552 -245.379 106.985 -245.164C106.418 -244.96 105.92 -244.626 105.489 -244.161C105.07 -243.696 104.735 -243.084 104.486 -242.325C104.248 -241.566 104.129 -240.642 104.129 -239.554L101.919 -240.387C101.919 -242.053 102.231 -243.521 102.854 -244.79C103.477 -246.071 104.373 -247.068 105.54 -247.782C106.707 -248.496 108.118 -248.853 109.773 -248.853C111.042 -248.853 112.108 -248.649 112.969 -248.241C113.83 -247.833 114.527 -247.295 115.06 -246.626C115.604 -245.969 116.018 -245.249 116.301 -244.467C116.584 -243.685 116.777 -242.92 116.879 -242.172C116.981 -241.424 117.032 -240.767 117.032 -240.2V-230H113.428ZM100.525 -230V-254.48H103.704V-241.271H104.129V-230H100.525ZM129.433 -229.49C127.597 -229.49 126.005 -229.904 124.656 -230.731C123.307 -231.558 122.265 -232.697 121.528 -234.148C120.803 -235.61 120.44 -237.293 120.44 -239.197C120.44 -241.112 120.814 -242.795 121.562 -244.246C122.31 -245.708 123.358 -246.841 124.707 -247.646C126.056 -248.462 127.631 -248.87 129.433 -248.87C131.269 -248.87 132.861 -248.456 134.21 -247.629C135.559 -246.802 136.601 -245.663 137.338 -244.212C138.075 -242.761 138.443 -241.09 138.443 -239.197C138.443 -237.282 138.069 -235.593 137.321 -234.131C136.584 -232.68 135.542 -231.541 134.193 -230.714C132.844 -229.898 131.258 -229.49 129.433 -229.49ZM129.433 -232.839C131.19 -232.839 132.499 -233.428 133.36 -234.607C134.233 -235.797 134.669 -237.327 134.669 -239.197C134.669 -241.112 134.227 -242.642 133.343 -243.787C132.47 -244.943 131.167 -245.521 129.433 -245.521C128.243 -245.521 127.263 -245.249 126.492 -244.705C125.721 -244.172 125.149 -243.43 124.775 -242.478C124.401 -241.537 124.214 -240.444 124.214 -239.197C124.214 -237.27 124.656 -235.729 125.54 -234.573C126.424 -233.417 127.722 -232.839 129.433 -232.839ZM155.065 -230V-239.027C155.065 -239.741 155.002 -240.472 154.878 -241.22C154.764 -241.979 154.538 -242.682 154.198 -243.328C153.869 -243.974 153.399 -244.495 152.787 -244.892C152.186 -245.289 151.398 -245.487 150.424 -245.487C149.789 -245.487 149.188 -245.379 148.622 -245.164C148.055 -244.96 147.556 -244.626 147.126 -244.161C146.706 -243.696 146.372 -243.084 146.123 -242.325C145.885 -241.566 145.766 -240.642 145.766 -239.554L143.556 -240.387C143.556 -242.053 143.867 -243.521 144.491 -244.79C145.114 -246.071 146.009 -247.068 147.177 -247.782C148.344 -248.496 149.755 -248.853 151.41 -248.853C152.679 -248.853 153.744 -248.649 154.606 -248.241C155.467 -247.833 156.164 -247.295 156.697 -246.626C157.241 -245.969 157.654 -245.249 157.938 -244.467C158.221 -243.685 158.414 -242.92 158.516 -242.172C158.618 -241.424 158.669 -240.767 158.669 -240.2V-230H155.065ZM142.162 -230V-248.36H145.341V-243.056H145.766V-230H142.162ZM171.007 -229.49C169.183 -229.49 167.579 -229.887 166.196 -230.68C164.825 -231.485 163.754 -232.601 162.983 -234.029C162.224 -235.468 161.844 -237.134 161.844 -239.027C161.844 -241.033 162.218 -242.773 162.966 -244.246C163.726 -245.719 164.78 -246.858 166.128 -247.663C167.477 -248.468 169.047 -248.87 170.837 -248.87C172.707 -248.87 174.3 -248.434 175.614 -247.561C176.929 -246.7 177.909 -245.47 178.555 -243.872C179.213 -242.274 179.473 -240.376 179.337 -238.177H175.784V-239.469C175.762 -241.6 175.354 -243.175 174.56 -244.195C173.778 -245.215 172.583 -245.725 170.973 -245.725C169.194 -245.725 167.857 -245.164 166.961 -244.042C166.066 -242.92 165.618 -241.299 165.618 -239.18C165.618 -237.163 166.066 -235.599 166.961 -234.488C167.857 -233.389 169.149 -232.839 170.837 -232.839C171.948 -232.839 172.906 -233.088 173.71 -233.587C174.526 -234.097 175.161 -234.822 175.614 -235.763L179.099 -234.658C178.385 -233.015 177.303 -231.74 175.852 -230.833C174.402 -229.938 172.787 -229.49 171.007 -229.49ZM164.462 -238.177V-240.948H177.569V-238.177H164.462ZM190.172 -229.507C187.94 -229.507 186.121 -230 184.715 -230.986C183.31 -231.972 182.449 -233.36 182.131 -235.151L185.769 -235.712C185.996 -234.76 186.517 -234.006 187.333 -233.451C188.161 -232.907 189.186 -232.635 190.41 -232.635C191.521 -232.635 192.388 -232.862 193.011 -233.315C193.646 -233.768 193.963 -234.392 193.963 -235.185C193.963 -235.65 193.85 -236.024 193.623 -236.307C193.408 -236.602 192.949 -236.879 192.246 -237.14C191.544 -237.401 190.473 -237.724 189.033 -238.109C187.458 -238.517 186.206 -238.953 185.276 -239.418C184.358 -239.894 183.701 -240.444 183.304 -241.067C182.919 -241.702 182.726 -242.467 182.726 -243.362C182.726 -244.473 183.021 -245.442 183.61 -246.269C184.2 -247.096 185.027 -247.737 186.092 -248.19C187.169 -248.643 188.427 -248.87 189.866 -248.87C191.272 -248.87 192.524 -248.649 193.623 -248.207C194.723 -247.765 195.612 -247.136 196.292 -246.32C196.972 -245.515 197.38 -244.569 197.516 -243.481L193.878 -242.818C193.754 -243.702 193.34 -244.399 192.637 -244.909C191.935 -245.419 191.022 -245.697 189.9 -245.742C188.824 -245.787 187.951 -245.606 187.282 -245.198C186.614 -244.801 186.279 -244.252 186.279 -243.549C186.279 -243.141 186.404 -242.795 186.653 -242.512C186.914 -242.229 187.413 -241.957 188.149 -241.696C188.886 -241.435 189.974 -241.124 191.413 -240.761C192.955 -240.364 194.179 -239.922 195.085 -239.435C195.992 -238.959 196.638 -238.387 197.023 -237.718C197.42 -237.061 197.618 -236.262 197.618 -235.321C197.618 -233.508 196.955 -232.085 195.629 -231.054C194.315 -230.023 192.496 -229.507 190.172 -229.507Z" fill="url(#paint1_linear_145_1618)"/>
<path d="M87.4205 -164V-185.131H79.2775V-188.48H99.1165V-185.131H90.9735V-164H87.4205ZM104.631 -163.49C103.271 -163.49 102.132 -163.739 101.214 -164.238C100.296 -164.748 99.5994 -165.417 99.1234 -166.244C98.6587 -167.083 98.4264 -168.001 98.4264 -168.998C98.4264 -169.927 98.5907 -170.743 98.9194 -171.446C99.2481 -172.149 99.7354 -172.744 100.381 -173.231C101.027 -173.73 101.821 -174.132 102.761 -174.438C103.577 -174.676 104.501 -174.886 105.532 -175.067C106.564 -175.248 107.646 -175.418 108.779 -175.577C109.924 -175.736 111.057 -175.894 112.179 -176.053L110.887 -175.339C110.91 -176.778 110.604 -177.844 109.969 -178.535C109.346 -179.238 108.269 -179.589 106.739 -179.589C105.776 -179.589 104.892 -179.362 104.087 -178.909C103.283 -178.467 102.722 -177.73 102.404 -176.699L99.0894 -177.719C99.5427 -179.294 100.404 -180.547 101.673 -181.476C102.954 -182.405 104.654 -182.87 106.773 -182.87C108.417 -182.87 109.845 -182.587 111.057 -182.02C112.281 -181.465 113.177 -180.581 113.743 -179.368C114.038 -178.767 114.219 -178.133 114.287 -177.464C114.355 -176.795 114.389 -176.076 114.389 -175.305V-164H111.244V-168.199L111.856 -167.655C111.097 -166.25 110.128 -165.201 108.949 -164.51C107.782 -163.83 106.343 -163.49 104.631 -163.49ZM105.26 -166.397C106.269 -166.397 107.136 -166.573 107.861 -166.924C108.587 -167.287 109.17 -167.746 109.612 -168.301C110.054 -168.856 110.343 -169.434 110.479 -170.035C110.672 -170.579 110.78 -171.191 110.802 -171.871C110.836 -172.551 110.853 -173.095 110.853 -173.503L112.009 -173.078C110.887 -172.908 109.867 -172.755 108.949 -172.619C108.031 -172.483 107.198 -172.347 106.45 -172.211C105.714 -172.086 105.056 -171.933 104.478 -171.752C103.991 -171.582 103.555 -171.378 103.169 -171.14C102.795 -170.902 102.495 -170.613 102.268 -170.273C102.053 -169.933 101.945 -169.519 101.945 -169.032C101.945 -168.556 102.064 -168.114 102.302 -167.706C102.54 -167.309 102.903 -166.992 103.39 -166.754C103.878 -166.516 104.501 -166.397 105.26 -166.397ZM127.423 -163.49C125.666 -163.49 124.193 -163.915 123.003 -164.765C121.813 -165.626 120.912 -166.788 120.3 -168.25C119.688 -169.712 119.382 -171.361 119.382 -173.197C119.382 -175.033 119.682 -176.682 120.283 -178.144C120.895 -179.606 121.79 -180.756 122.969 -181.595C124.159 -182.445 125.621 -182.87 127.355 -182.87C129.077 -182.87 130.562 -182.445 131.809 -181.595C133.067 -180.756 134.036 -179.606 134.716 -178.144C135.396 -176.693 135.736 -175.044 135.736 -173.197C135.736 -171.361 135.396 -169.706 134.716 -168.233C134.047 -166.771 133.089 -165.615 131.843 -164.765C130.607 -163.915 129.134 -163.49 127.423 -163.49ZM118.787 -164V-188.48H122.357V-177.209H121.949V-164H118.787ZM126.93 -166.703C128.063 -166.703 128.998 -166.992 129.735 -167.57C130.483 -168.148 131.038 -168.924 131.401 -169.899C131.775 -170.885 131.962 -171.984 131.962 -173.197C131.962 -174.398 131.775 -175.486 131.401 -176.461C131.038 -177.436 130.477 -178.212 129.718 -178.79C128.958 -179.368 127.989 -179.657 126.811 -179.657C125.7 -179.657 124.782 -179.385 124.057 -178.841C123.343 -178.297 122.81 -177.538 122.459 -176.563C122.119 -175.588 121.949 -174.466 121.949 -173.197C121.949 -171.928 122.119 -170.806 122.459 -169.831C122.799 -168.856 123.337 -168.091 124.074 -167.536C124.81 -166.981 125.762 -166.703 126.93 -166.703ZM139.829 -164V-188.99H143.382V-164H139.829ZM156.63 -163.49C154.806 -163.49 153.202 -163.887 151.819 -164.68C150.448 -165.485 149.377 -166.601 148.606 -168.029C147.847 -169.468 147.467 -171.134 147.467 -173.027C147.467 -175.033 147.841 -176.773 148.589 -178.246C149.349 -179.719 150.403 -180.858 151.751 -181.663C153.1 -182.468 154.67 -182.87 156.46 -182.87C158.33 -182.87 159.923 -182.434 161.237 -181.561C162.552 -180.7 163.532 -179.47 164.178 -177.872C164.836 -176.274 165.096 -174.376 164.96 -172.177H161.407V-173.469C161.385 -175.6 160.977 -177.175 160.183 -178.195C159.401 -179.215 158.206 -179.725 156.596 -179.725C154.817 -179.725 153.48 -179.164 152.584 -178.042C151.689 -176.92 151.241 -175.299 151.241 -173.18C151.241 -171.163 151.689 -169.599 152.584 -168.488C153.48 -167.389 154.772 -166.839 156.46 -166.839C157.571 -166.839 158.529 -167.088 159.333 -167.587C160.149 -168.097 160.784 -168.822 161.237 -169.763L164.722 -168.658C164.008 -167.015 162.926 -165.74 161.475 -164.833C160.025 -163.938 158.41 -163.49 156.63 -163.49ZM150.085 -172.177V-174.948H163.192V-172.177H150.085ZM179.281 -164C178.125 -163.773 176.991 -163.677 175.881 -163.711C174.77 -163.745 173.778 -163.96 172.906 -164.357C172.033 -164.754 171.376 -165.377 170.934 -166.227C170.537 -166.986 170.322 -167.757 170.288 -168.539C170.265 -169.332 170.254 -170.228 170.254 -171.225V-187.46H173.824V-171.395C173.824 -170.658 173.829 -170.018 173.841 -169.474C173.863 -168.93 173.982 -168.471 174.198 -168.097C174.606 -167.394 175.252 -166.992 176.136 -166.89C177.031 -166.799 178.079 -166.839 179.281 -167.009V-164ZM166.735 -179.504V-182.36H179.281V-179.504H166.735ZM190.172 -163.507C187.94 -163.507 186.121 -164 184.715 -164.986C183.31 -165.972 182.449 -167.36 182.131 -169.151L185.769 -169.712C185.996 -168.76 186.517 -168.006 187.333 -167.451C188.161 -166.907 189.186 -166.635 190.41 -166.635C191.521 -166.635 192.388 -166.862 193.011 -167.315C193.646 -167.768 193.963 -168.392 193.963 -169.185C193.963 -169.65 193.85 -170.024 193.623 -170.307C193.408 -170.602 192.949 -170.879 192.246 -171.14C191.544 -171.401 190.473 -171.724 189.033 -172.109C187.458 -172.517 186.206 -172.953 185.276 -173.418C184.358 -173.894 183.701 -174.444 183.304 -175.067C182.919 -175.702 182.726 -176.467 182.726 -177.362C182.726 -178.473 183.021 -179.442 183.61 -180.269C184.2 -181.096 185.027 -181.737 186.092 -182.19C187.169 -182.643 188.427 -182.87 189.866 -182.87C191.272 -182.87 192.524 -182.649 193.623 -182.207C194.723 -181.765 195.612 -181.136 196.292 -180.32C196.972 -179.515 197.38 -178.569 197.516 -177.481L193.878 -176.818C193.754 -177.702 193.34 -178.399 192.637 -178.909C191.935 -179.419 191.022 -179.697 189.9 -179.742C188.824 -179.787 187.951 -179.606 187.282 -179.198C186.614 -178.801 186.279 -178.252 186.279 -177.549C186.279 -177.141 186.404 -176.795 186.653 -176.512C186.914 -176.229 187.413 -175.957 188.149 -175.696C188.886 -175.435 189.974 -175.124 191.413 -174.761C192.955 -174.364 194.179 -173.922 195.085 -173.435C195.992 -172.959 196.638 -172.387 197.023 -171.718C197.42 -171.061 197.618 -170.262 197.618 -169.321C197.618 -167.508 196.955 -166.085 195.629 -165.054C194.315 -164.023 192.496 -163.507 190.172 -163.507Z" fill="url(#paint2_linear_145_1618)"/>
<path d="M70.9661 -98V-122.48H74.5191V-101.349H85.6031V-98H70.9661ZM93.6744 -97.49C92.3144 -97.49 91.1754 -97.7393 90.2574 -98.238C89.3394 -98.748 88.6424 -99.4167 88.1664 -100.244C87.7017 -101.083 87.4694 -102.001 87.4694 -102.998C87.4694 -103.927 87.6337 -104.743 87.9624 -105.446C88.291 -106.149 88.7784 -106.744 89.4244 -107.231C90.0704 -107.73 90.8637 -108.132 91.8044 -108.438C92.6204 -108.676 93.544 -108.886 94.5754 -109.067C95.6067 -109.248 96.689 -109.418 97.8224 -109.577C98.967 -109.736 100.1 -109.894 101.222 -110.053L99.9304 -109.339C99.953 -110.778 99.647 -111.844 99.0124 -112.535C98.389 -113.238 97.3124 -113.589 95.7824 -113.589C94.819 -113.589 93.935 -113.362 93.1304 -112.909C92.3257 -112.467 91.7647 -111.73 91.4474 -110.699L88.1324 -111.719C88.5857 -113.294 89.447 -114.547 90.7164 -115.476C91.997 -116.405 93.697 -116.87 95.8164 -116.87C97.4597 -116.87 98.8877 -116.587 100.1 -116.02C101.324 -115.465 102.22 -114.581 102.786 -113.368C103.081 -112.767 103.262 -112.133 103.33 -111.464C103.398 -110.795 103.432 -110.076 103.432 -109.305V-98H100.287V-102.199L100.899 -101.655C100.14 -100.25 99.171 -99.2013 97.9924 -98.51C96.825 -97.83 95.3857 -97.49 93.6744 -97.49ZM94.3034 -100.397C95.312 -100.397 96.179 -100.573 96.9044 -100.924C97.6297 -101.287 98.2134 -101.746 98.6554 -102.301C99.0974 -102.856 99.3864 -103.434 99.5224 -104.035C99.715 -104.579 99.8227 -105.191 99.8454 -105.871C99.8794 -106.551 99.8964 -107.095 99.8964 -107.503L101.052 -107.078C99.9304 -106.908 98.9104 -106.755 97.9924 -106.619C97.0744 -106.483 96.2414 -106.347 95.4934 -106.211C94.7567 -106.086 94.0994 -105.933 93.5214 -105.752C93.034 -105.582 92.5977 -105.378 92.2124 -105.14C91.8384 -104.902 91.538 -104.613 91.3114 -104.273C91.096 -103.933 90.9884 -103.519 90.9884 -103.032C90.9884 -102.556 91.1074 -102.114 91.3454 -101.706C91.5834 -101.309 91.946 -100.992 92.4334 -100.754C92.9207 -100.516 93.544 -100.397 94.3034 -100.397ZM116.466 -97.49C114.709 -97.49 113.236 -97.915 112.046 -98.765C110.856 -99.6263 109.955 -100.788 109.343 -102.25C108.731 -103.712 108.425 -105.361 108.425 -107.197C108.425 -109.033 108.725 -110.682 109.326 -112.144C109.938 -113.606 110.833 -114.756 112.012 -115.595C113.202 -116.445 114.664 -116.87 116.398 -116.87C118.12 -116.87 119.605 -116.445 120.852 -115.595C122.11 -114.756 123.079 -113.606 123.759 -112.144C124.439 -110.693 124.779 -109.044 124.779 -107.197C124.779 -105.361 124.439 -103.706 123.759 -102.233C123.09 -100.771 122.132 -99.615 120.886 -98.765C119.65 -97.915 118.177 -97.49 116.466 -97.49ZM107.83 -89.84V-116.36H110.992V-103.151H111.4V-89.84H107.83ZM115.973 -100.703C117.106 -100.703 118.041 -100.992 118.778 -101.57C119.526 -102.148 120.081 -102.924 120.444 -103.899C120.818 -104.885 121.005 -105.984 121.005 -107.197C121.005 -108.398 120.818 -109.486 120.444 -110.461C120.081 -111.436 119.52 -112.212 118.761 -112.79C118.001 -113.368 117.032 -113.657 115.854 -113.657C114.743 -113.657 113.825 -113.385 113.1 -112.841C112.386 -112.297 111.853 -111.538 111.502 -110.563C111.162 -109.588 110.992 -108.466 110.992 -107.197C110.992 -105.928 111.162 -104.806 111.502 -103.831C111.842 -102.856 112.38 -102.091 113.117 -101.536C113.853 -100.981 114.805 -100.703 115.973 -100.703ZM139.038 -98C137.882 -97.7733 136.749 -97.677 135.638 -97.711C134.528 -97.745 133.536 -97.9603 132.663 -98.357C131.791 -98.7537 131.133 -99.377 130.691 -100.227C130.295 -100.986 130.079 -101.757 130.045 -102.539C130.023 -103.332 130.011 -104.228 130.011 -105.225V-121.46H133.581V-105.395C133.581 -104.658 133.587 -104.018 133.598 -103.474C133.621 -102.93 133.74 -102.471 133.955 -102.097C134.363 -101.394 135.009 -100.992 135.893 -100.89C136.789 -100.799 137.837 -100.839 139.038 -101.009V-98ZM126.492 -113.504V-116.36H139.038V-113.504H126.492ZM150.052 -97.49C148.216 -97.49 146.624 -97.9037 145.275 -98.731C143.927 -99.5583 142.884 -100.697 142.147 -102.148C141.422 -103.61 141.059 -105.293 141.059 -107.197C141.059 -109.112 141.433 -110.795 142.181 -112.246C142.929 -113.708 143.978 -114.841 145.326 -115.646C146.675 -116.462 148.25 -116.87 150.052 -116.87C151.888 -116.87 153.481 -116.456 154.829 -115.629C156.178 -114.802 157.221 -113.663 157.957 -112.212C158.694 -110.761 159.062 -109.09 159.062 -107.197C159.062 -105.282 158.688 -103.593 157.94 -102.131C157.204 -100.68 156.161 -99.5413 154.812 -98.714C153.464 -97.898 151.877 -97.49 150.052 -97.49ZM150.052 -100.839C151.809 -100.839 153.118 -101.428 153.979 -102.607C154.852 -103.797 155.288 -105.327 155.288 -107.197C155.288 -109.112 154.846 -110.642 153.962 -111.787C153.09 -112.943 151.786 -113.521 150.052 -113.521C148.862 -113.521 147.882 -113.249 147.111 -112.705C146.341 -112.172 145.768 -111.43 145.394 -110.478C145.02 -109.537 144.833 -108.444 144.833 -107.197C144.833 -105.27 145.275 -103.729 146.159 -102.573C147.043 -101.417 148.341 -100.839 150.052 -100.839ZM171.417 -97.49C169.66 -97.49 168.187 -97.915 166.997 -98.765C165.807 -99.6263 164.906 -100.788 164.294 -102.25C163.682 -103.712 163.376 -105.361 163.376 -107.197C163.376 -109.033 163.676 -110.682 164.277 -112.144C164.889 -113.606 165.784 -114.756 166.963 -115.595C168.153 -116.445 169.615 -116.87 171.349 -116.87C173.072 -116.87 174.556 -116.445 175.803 -115.595C177.061 -114.756 178.03 -113.606 178.71 -112.144C179.39 -110.693 179.73 -109.044 179.73 -107.197C179.73 -105.361 179.39 -103.706 178.71 -102.233C178.041 -100.771 177.084 -99.615 175.837 -98.765C174.602 -97.915 173.128 -97.49 171.417 -97.49ZM162.781 -89.84V-116.36H165.943V-103.151H166.351V-89.84H162.781ZM170.924 -100.703C172.057 -100.703 172.992 -100.992 173.729 -101.57C174.477 -102.148 175.032 -102.924 175.395 -103.899C175.769 -104.885 175.956 -105.984 175.956 -107.197C175.956 -108.398 175.769 -109.486 175.395 -110.461C175.032 -111.436 174.471 -112.212 173.712 -112.79C172.953 -113.368 171.984 -113.657 170.805 -113.657C169.694 -113.657 168.776 -113.385 168.051 -112.841C167.337 -112.297 166.804 -111.538 166.453 -110.563C166.113 -109.588 165.943 -108.466 165.943 -107.197C165.943 -105.928 166.113 -104.806 166.453 -103.831C166.793 -102.856 167.331 -102.091 168.068 -101.536C168.805 -100.981 169.757 -100.703 170.924 -100.703ZM190.172 -97.507C187.94 -97.507 186.121 -98 184.715 -98.986C183.31 -99.972 182.449 -101.36 182.131 -103.151L185.769 -103.712C185.996 -102.76 186.517 -102.006 187.333 -101.451C188.161 -100.907 189.186 -100.635 190.41 -100.635C191.521 -100.635 192.388 -100.862 193.011 -101.315C193.646 -101.768 193.963 -102.392 193.963 -103.185C193.963 -103.65 193.85 -104.024 193.623 -104.307C193.408 -104.602 192.949 -104.879 192.246 -105.14C191.544 -105.401 190.473 -105.724 189.033 -106.109C187.458 -106.517 186.206 -106.953 185.276 -107.418C184.358 -107.894 183.701 -108.444 183.304 -109.067C182.919 -109.702 182.726 -110.467 182.726 -111.362C182.726 -112.473 183.021 -113.442 183.61 -114.269C184.2 -115.096 185.027 -115.737 186.092 -116.19C187.169 -116.643 188.427 -116.87 189.866 -116.87C191.272 -116.87 192.524 -116.649 193.623 -116.207C194.723 -115.765 195.612 -115.136 196.292 -114.32C196.972 -113.515 197.38 -112.569 197.516 -111.481L193.878 -110.818C193.754 -111.702 193.34 -112.399 192.637 -112.909C191.935 -113.419 191.022 -113.697 189.9 -113.742C188.824 -113.787 187.951 -113.606 187.282 -113.198C186.614 -112.801 186.279 -112.252 186.279 -111.549C186.279 -111.141 186.404 -110.795 186.653 -110.512C186.914 -110.229 187.413 -109.957 188.149 -109.696C188.886 -109.435 189.974 -109.124 191.413 -108.761C192.955 -108.364 194.179 -107.922 195.085 -107.435C195.992 -106.959 196.638 -106.387 197.023 -105.718C197.42 -105.061 197.618 -104.262 197.618 -103.321C197.618 -101.508 196.955 -100.085 195.629 -99.054C194.315 -98.0227 192.496 -97.507 190.172 -97.507Z" fill="url(#paint3_linear_145_1618)"/>
<path d="M1.52375 -32L9.47975 -56.48H14.5968L22.5528 -32H18.8638L11.5368 -54.338H12.4548L5.21275 -32H1.52375ZM5.65475 -37.525V-40.857H18.4388V-37.525H5.65475ZM33.4567 -31.49C31.5753 -31.49 29.9773 -31.9093 28.6627 -32.748C27.348 -33.5867 26.3393 -34.737 25.6367 -36.199C24.9453 -37.661 24.594 -39.3213 24.5827 -41.18C24.594 -43.0727 24.9567 -44.7443 25.6707 -46.195C26.3847 -47.657 27.4047 -48.8017 28.7307 -49.629C30.0567 -50.4563 31.649 -50.87 33.5077 -50.87C35.5137 -50.87 37.225 -50.3713 38.6417 -49.374C40.0697 -48.3767 41.0103 -47.011 41.4637 -45.277L37.9277 -44.257C37.5763 -45.2883 36.9983 -46.0873 36.1937 -46.654C35.4003 -47.232 34.488 -47.521 33.4567 -47.521C32.2893 -47.521 31.3317 -47.2433 30.5837 -46.688C29.8357 -46.144 29.2803 -45.396 28.9177 -44.444C28.555 -43.492 28.368 -42.404 28.3567 -41.18C28.368 -39.2873 28.7987 -37.7573 29.6487 -36.59C30.51 -35.4227 31.7793 -34.839 33.4567 -34.839C34.6013 -34.839 35.525 -35.0997 36.2277 -35.621C36.9417 -36.1537 37.4857 -36.913 37.8597 -37.899L41.4637 -37.049C40.863 -35.2583 39.8713 -33.8813 38.4887 -32.918C37.106 -31.966 35.4287 -31.49 33.4567 -31.49ZM52.2828 -31.49C50.4015 -31.49 48.8035 -31.9093 47.4888 -32.748C46.1742 -33.5867 45.1655 -34.737 44.4628 -36.199C43.7715 -37.661 43.4202 -39.3213 43.4088 -41.18C43.4202 -43.0727 43.7828 -44.7443 44.4968 -46.195C45.2108 -47.657 46.2308 -48.8017 47.5568 -49.629C48.8828 -50.4563 50.4752 -50.87 52.3338 -50.87C54.3398 -50.87 56.0512 -50.3713 57.4678 -49.374C58.8958 -48.3767 59.8365 -47.011 60.2898 -45.277L56.7538 -44.257C56.4025 -45.2883 55.8245 -46.0873 55.0198 -46.654C54.2265 -47.232 53.3142 -47.521 52.2828 -47.521C51.1155 -47.521 50.1578 -47.2433 49.4098 -46.688C48.6618 -46.144 48.1065 -45.396 47.7438 -44.444C47.3812 -43.492 47.1942 -42.404 47.1828 -41.18C47.1942 -39.2873 47.6248 -37.7573 48.4748 -36.59C49.3362 -35.4227 50.6055 -34.839 52.2828 -34.839C53.4275 -34.839 54.3512 -35.0997 55.0538 -35.621C55.7678 -36.1537 56.3118 -36.913 56.6858 -37.899L60.2898 -37.049C59.6892 -35.2583 58.6975 -33.8813 57.3148 -32.918C55.9322 -31.966 54.2548 -31.49 52.2828 -31.49ZM71.398 -31.49C69.5733 -31.49 67.9697 -31.8867 66.587 -32.68C65.2157 -33.4847 64.1447 -34.601 63.374 -36.029C62.6147 -37.4683 62.235 -39.1343 62.235 -41.027C62.235 -43.033 62.609 -44.7727 63.357 -46.246C64.1163 -47.7193 65.1703 -48.8583 66.519 -49.663C67.8677 -50.4677 69.4373 -50.87 71.228 -50.87C73.098 -50.87 74.6903 -50.4337 76.005 -49.561C77.3197 -48.6997 78.3 -47.47 78.946 -45.872C79.6033 -44.274 79.864 -42.3757 79.728 -40.177H76.175V-41.469C76.1523 -43.5997 75.7443 -45.175 74.951 -46.195C74.169 -47.215 72.9733 -47.725 71.364 -47.725C69.5847 -47.725 68.2473 -47.164 67.352 -46.042C66.4567 -44.92 66.009 -43.2993 66.009 -41.18C66.009 -39.1627 66.4567 -37.5987 67.352 -36.488C68.2473 -35.3887 69.5393 -34.839 71.228 -34.839C72.3387 -34.839 73.2963 -35.0883 74.101 -35.587C74.917 -36.097 75.5517 -36.8223 76.005 -37.763L79.49 -36.658C78.776 -35.0147 77.6937 -33.7397 76.243 -32.833C74.7923 -31.9377 73.1773 -31.49 71.398 -31.49ZM64.853 -40.177V-42.948H77.96V-40.177H64.853ZM90.5631 -31.507C88.3304 -31.507 86.5114 -32 85.1061 -32.986C83.7008 -33.972 82.8394 -35.3603 82.5221 -37.151L86.1601 -37.712C86.3868 -36.76 86.9081 -36.0063 87.7241 -35.451C88.5514 -34.907 89.5771 -34.635 90.8011 -34.635C91.9118 -34.635 92.7788 -34.8617 93.4021 -35.315C94.0368 -35.7683 94.3541 -36.3917 94.3541 -37.185C94.3541 -37.6497 94.2408 -38.0237 94.0141 -38.307C93.7988 -38.6017 93.3398 -38.8793 92.6371 -39.14C91.9344 -39.4007 90.8634 -39.7237 89.4241 -40.109C87.8488 -40.517 86.5964 -40.9533 85.6671 -41.418C84.7491 -41.894 84.0918 -42.4437 83.6951 -43.067C83.3098 -43.7017 83.1171 -44.4667 83.1171 -45.362C83.1171 -46.4727 83.4118 -47.4417 84.0011 -48.269C84.5904 -49.0963 85.4178 -49.7367 86.4831 -50.19C87.5598 -50.6433 88.8178 -50.87 90.2571 -50.87C91.6624 -50.87 92.9148 -50.649 94.0141 -50.207C95.1134 -49.765 96.0031 -49.136 96.6831 -48.32C97.3631 -47.5153 97.7711 -46.569 97.9071 -45.481L94.2691 -44.818C94.1444 -45.702 93.7308 -46.399 93.0281 -46.909C92.3254 -47.419 91.4131 -47.6967 90.2911 -47.742C89.2144 -47.7873 88.3418 -47.606 87.6731 -47.198C87.0044 -46.8013 86.6701 -46.2517 86.6701 -45.549C86.6701 -45.141 86.7948 -44.7953 87.0441 -44.512C87.3048 -44.2287 87.8034 -43.9567 88.5401 -43.696C89.2768 -43.4353 90.3648 -43.1237 91.8041 -42.761C93.3454 -42.3643 94.5694 -41.9223 95.4761 -41.435C96.3828 -40.959 97.0288 -40.3867 97.4141 -39.718C97.8108 -39.0607 98.0091 -38.2617 98.0091 -37.321C98.0091 -35.5077 97.3461 -34.0853 96.0201 -33.054C94.7054 -32.0227 92.8864 -31.507 90.5631 -31.507ZM108.792 -31.507C106.559 -31.507 104.74 -32 103.335 -32.986C101.929 -33.972 101.068 -35.3603 100.751 -37.151L104.389 -37.712C104.615 -36.76 105.137 -36.0063 105.953 -35.451C106.78 -34.907 107.806 -34.635 109.03 -34.635C110.14 -34.635 111.007 -34.8617 111.631 -35.315C112.265 -35.7683 112.583 -36.3917 112.583 -37.185C112.583 -37.6497 112.469 -38.0237 112.243 -38.307C112.027 -38.6017 111.568 -38.8793 110.866 -39.14C110.163 -39.4007 109.092 -39.7237 107.653 -40.109C106.077 -40.517 104.825 -40.9533 103.896 -41.418C102.978 -41.894 102.32 -42.4437 101.924 -43.067C101.538 -43.7017 101.346 -44.4667 101.346 -45.362C101.346 -46.4727 101.64 -47.4417 102.23 -48.269C102.819 -49.0963 103.646 -49.7367 104.712 -50.19C105.788 -50.6433 107.046 -50.87 108.486 -50.87C109.891 -50.87 111.143 -50.649 112.243 -50.207C113.342 -49.765 114.232 -49.136 114.912 -48.32C115.592 -47.5153 116 -46.569 116.136 -45.481L112.498 -44.818C112.373 -45.702 111.959 -46.399 111.257 -46.909C110.554 -47.419 109.642 -47.6967 108.52 -47.742C107.443 -47.7873 106.57 -47.606 105.902 -47.198C105.233 -46.8013 104.899 -46.2517 104.899 -45.549C104.899 -45.141 105.023 -44.7953 105.273 -44.512C105.533 -44.2287 106.032 -43.9567 106.769 -43.696C107.505 -43.4353 108.593 -43.1237 110.033 -42.761C111.574 -42.3643 112.798 -41.9223 113.705 -41.435C114.611 -40.959 115.257 -40.3867 115.643 -39.718C116.039 -39.0607 116.238 -38.2617 116.238 -37.321C116.238 -35.5077 115.575 -34.0853 114.249 -33.054C112.934 -32.0227 111.115 -31.507 108.792 -31.507ZM127.972 -31.49C126.136 -31.49 124.544 -31.9037 123.195 -32.731C121.846 -33.5583 120.804 -34.6973 120.067 -36.148C119.342 -37.61 118.979 -39.293 118.979 -41.197C118.979 -43.1123 119.353 -44.7953 120.101 -46.246C120.849 -47.708 121.897 -48.8413 123.246 -49.646C124.595 -50.462 126.17 -50.87 127.972 -50.87C129.808 -50.87 131.4 -50.4563 132.749 -49.629C134.098 -48.8017 135.14 -47.6627 135.877 -46.212C136.614 -44.7613 136.982 -43.0897 136.982 -41.197C136.982 -39.2817 136.608 -37.593 135.86 -36.131C135.123 -34.6803 134.081 -33.5413 132.732 -32.714C131.383 -31.898 129.797 -31.49 127.972 -31.49ZM127.972 -34.839C129.729 -34.839 131.038 -35.4283 131.899 -36.607C132.772 -37.797 133.208 -39.327 133.208 -41.197C133.208 -43.1123 132.766 -44.6423 131.882 -45.787C131.009 -46.943 129.706 -47.521 127.972 -47.521C126.782 -47.521 125.802 -47.249 125.031 -46.705C124.26 -46.1723 123.688 -45.43 123.314 -44.478C122.94 -43.5373 122.753 -42.4437 122.753 -41.197C122.753 -39.2703 123.195 -37.729 124.079 -36.573C124.963 -35.417 126.261 -34.839 127.972 -34.839ZM140.718 -32V-50.36H143.88V-45.906L143.438 -46.484C143.665 -47.0733 143.959 -47.6117 144.322 -48.099C144.685 -48.5977 145.104 -49.0057 145.58 -49.323C146.045 -49.663 146.56 -49.9237 147.127 -50.105C147.705 -50.2977 148.294 -50.411 148.895 -50.445C149.496 -50.4903 150.074 -50.462 150.629 -50.36V-47.028C150.028 -47.1867 149.36 -47.232 148.623 -47.164C147.898 -47.096 147.229 -46.8637 146.617 -46.467C146.039 -46.093 145.58 -45.6397 145.24 -45.107C144.911 -44.5743 144.673 -43.9793 144.526 -43.322C144.379 -42.676 144.305 -41.9903 144.305 -41.265V-32H140.718ZM154.206 -53.369V-56.82H157.759V-53.369H154.206ZM154.206 -32V-50.36H157.759V-32H154.206ZM171.007 -31.49C169.183 -31.49 167.579 -31.8867 166.196 -32.68C164.825 -33.4847 163.754 -34.601 162.983 -36.029C162.224 -37.4683 161.844 -39.1343 161.844 -41.027C161.844 -43.033 162.218 -44.7727 162.966 -46.246C163.726 -47.7193 164.78 -48.8583 166.128 -49.663C167.477 -50.4677 169.047 -50.87 170.837 -50.87C172.707 -50.87 174.3 -50.4337 175.614 -49.561C176.929 -48.6997 177.909 -47.47 178.555 -45.872C179.213 -44.274 179.473 -42.3757 179.337 -40.177H175.784V-41.469C175.762 -43.5997 175.354 -45.175 174.56 -46.195C173.778 -47.215 172.583 -47.725 170.973 -47.725C169.194 -47.725 167.857 -47.164 166.961 -46.042C166.066 -44.92 165.618 -43.2993 165.618 -41.18C165.618 -39.1627 166.066 -37.5987 166.961 -36.488C167.857 -35.3887 169.149 -34.839 170.837 -34.839C171.948 -34.839 172.906 -35.0883 173.71 -35.587C174.526 -36.097 175.161 -36.8223 175.614 -37.763L179.099 -36.658C178.385 -35.0147 177.303 -33.7397 175.852 -32.833C174.402 -31.9377 172.787 -31.49 171.007 -31.49ZM164.462 -40.177V-42.948H177.569V-40.177H164.462ZM190.172 -31.507C187.94 -31.507 186.121 -32 184.715 -32.986C183.31 -33.972 182.449 -35.3603 182.131 -37.151L185.769 -37.712C185.996 -36.76 186.517 -36.0063 187.333 -35.451C188.161 -34.907 189.186 -34.635 190.41 -34.635C191.521 -34.635 192.388 -34.8617 193.011 -35.315C193.646 -35.7683 193.963 -36.3917 193.963 -37.185C193.963 -37.6497 193.85 -38.0237 193.623 -38.307C193.408 -38.6017 192.949 -38.8793 192.246 -39.14C191.544 -39.4007 190.473 -39.7237 189.033 -40.109C187.458 -40.517 186.206 -40.9533 185.276 -41.418C184.358 -41.894 183.701 -42.4437 183.304 -43.067C182.919 -43.7017 182.726 -44.4667 182.726 -45.362C182.726 -46.4727 183.021 -47.4417 183.61 -48.269C184.2 -49.0963 185.027 -49.7367 186.092 -50.19C187.169 -50.6433 188.427 -50.87 189.866 -50.87C191.272 -50.87 192.524 -50.649 193.623 -50.207C194.723 -49.765 195.612 -49.136 196.292 -48.32C196.972 -47.5153 197.38 -46.569 197.516 -45.481L193.878 -44.818C193.754 -45.702 193.34 -46.399 192.637 -46.909C191.935 -47.419 191.022 -47.6967 189.9 -47.742C188.824 -47.7873 187.951 -47.606 187.282 -47.198C186.614 -46.8013 186.279 -46.2517 186.279 -45.549C186.279 -45.141 186.404 -44.7953 186.653 -44.512C186.914 -44.2287 187.413 -43.9567 188.149 -43.696C188.886 -43.4353 189.974 -43.1237 191.413 -42.761C192.955 -42.3643 194.179 -41.9223 195.085 -41.435C195.992 -40.959 196.638 -40.3867 197.023 -39.718C197.42 -39.0607 197.618 -38.2617 197.618 -37.321C197.618 -35.5077 196.955 -34.0853 195.629 -33.054C194.315 -32.0227 192.496 -31.507 190.172 -31.507Z" fill="url(#paint4_linear_145_1618)"/>
</g>
<defs>
<linearGradient id="paint0_linear_145_1618" x1="168.5" y1="0" x2="168.5" y2="42" gradientUnits="userSpaceOnUse">
<stop stop-color="#90E0EF"/>
<stop offset="1" stop-color="#00B4D8"/>
</linearGradient>
<linearGradient id="paint1_linear_145_1618" x1="137.5" y1="-264" x2="137.5" y2="-222" gradientUnits="userSpaceOnUse">
<stop stop-color="#90E0EF"/>
<stop offset="1" stop-color="#00B4D8"/>
</linearGradient>
<linearGradient id="paint2_linear_145_1618" x1="138.5" y1="-198" x2="138.5" y2="-156" gradientUnits="userSpaceOnUse">
<stop stop-color="#90E0EF"/>
<stop offset="1" stop-color="#00B4D8"/>
</linearGradient>
<linearGradient id="paint3_linear_145_1618" x1="133.5" y1="-132" x2="133.5" y2="-90" gradientUnits="userSpaceOnUse">
<stop stop-color="#90E0EF"/>
<stop offset="1" stop-color="#00B4D8"/>
</linearGradient>
<linearGradient id="paint4_linear_145_1618" x1="99.5" y1="-66" x2="99.5" y2="-24" gradientUnits="userSpaceOnUse">
<stop stop-color="#90E0EF"/>
<stop offset="1" stop-color="#00B4D8"/>
</linearGradient>
</defs>
</svg>
