<svg width="199" height="48" viewBox="0 0 199 48" fill="none" xmlns="http://www.w3.org/2000/svg">
<mask id="mask0_145_1616" style="mask-type:alpha" maskUnits="userSpaceOnUse" x="0" y="0" width="199" height="48">
<rect width="199" height="48" fill="#111111"/>
</mask>
<g mask="url(#mask0_145_1616)">
<path d="M140.552 166V141.52H150.174C151.727 141.52 153.03 141.837 154.084 142.472C155.138 143.107 155.931 143.928 156.464 144.937C156.997 145.934 157.263 146.988 157.263 148.099C157.263 149.448 156.929 150.604 156.26 151.567C155.603 152.53 154.713 153.188 153.591 153.539L153.557 152.706C155.121 153.091 156.322 153.845 157.161 154.967C158 156.078 158.419 157.375 158.419 158.86C158.419 160.299 158.13 161.552 157.552 162.617C156.985 163.682 156.152 164.515 155.053 165.116C153.965 165.705 152.645 166 151.092 166H140.552ZM144.156 162.617H150.548C151.353 162.617 152.072 162.464 152.707 162.158C153.353 161.852 153.857 161.416 154.22 160.849C154.594 160.271 154.781 159.585 154.781 158.792C154.781 158.055 154.617 157.392 154.288 156.803C153.971 156.202 153.506 155.732 152.894 155.392C152.293 155.041 151.585 154.865 150.769 154.865H144.156V162.617ZM144.156 151.516H150.123C150.78 151.516 151.37 151.386 151.891 151.125C152.424 150.853 152.843 150.468 153.149 149.969C153.466 149.459 153.625 148.847 153.625 148.133C153.625 147.181 153.308 146.399 152.673 145.787C152.038 145.175 151.188 144.869 150.123 144.869H144.156V151.516ZM168.721 166.493C167.452 166.493 166.386 166.289 165.525 165.881C164.664 165.473 163.961 164.94 163.417 164.283C162.884 163.614 162.476 162.889 162.193 162.107C161.91 161.325 161.717 160.56 161.615 159.812C161.513 159.064 161.462 158.407 161.462 157.84V147.64H165.066V156.667C165.066 157.381 165.123 158.118 165.236 158.877C165.361 159.625 165.587 160.322 165.916 160.968C166.256 161.614 166.726 162.135 167.327 162.532C167.939 162.929 168.732 163.127 169.707 163.127C170.342 163.127 170.942 163.025 171.509 162.821C172.076 162.606 172.569 162.266 172.988 161.801C173.419 161.336 173.753 160.724 173.991 159.965C174.24 159.206 174.365 158.282 174.365 157.194L176.575 158.027C176.575 159.693 176.263 161.166 175.64 162.447C175.017 163.716 174.121 164.708 172.954 165.422C171.787 166.136 170.376 166.493 168.721 166.493ZM174.79 166V160.696H174.365V147.64H177.952V166H174.79ZM185.202 174.16L188.755 164.487L188.806 167.343L180.799 147.64H184.505L190.489 162.855H189.401L195.113 147.64H198.717L188.585 174.16H185.202Z" fill="url(#paint0_linear_145_1616)"/>
<path d="M79.2257 -98V-122.48H89.1197C89.3577 -122.48 89.6524 -122.469 90.0037 -122.446C90.355 -122.435 90.6894 -122.401 91.0067 -122.344C92.3667 -122.129 93.5 -121.664 94.4067 -120.95C95.3247 -120.236 96.0104 -119.335 96.4637 -118.247C96.917 -117.159 97.1437 -115.958 97.1437 -114.643C97.1437 -113.317 96.917 -112.11 96.4637 -111.022C96.0104 -109.934 95.3247 -109.033 94.4067 -108.319C93.5 -107.605 92.3667 -107.14 91.0067 -106.925C90.6894 -106.88 90.3494 -106.846 89.9867 -106.823C89.6354 -106.8 89.3464 -106.789 89.1197 -106.789H82.7787V-98H79.2257ZM82.7787 -110.155H88.9837C89.2104 -110.155 89.4597 -110.166 89.7317 -110.189C90.015 -110.212 90.2814 -110.251 90.5307 -110.308C91.256 -110.478 91.8397 -110.79 92.2817 -111.243C92.7237 -111.708 93.041 -112.24 93.2337 -112.841C93.4264 -113.442 93.5227 -114.042 93.5227 -114.643C93.5227 -115.244 93.4264 -115.839 93.2337 -116.428C93.041 -117.029 92.7237 -117.556 92.2817 -118.009C91.8397 -118.474 91.256 -118.791 90.5307 -118.961C90.2814 -119.029 90.015 -119.074 89.7317 -119.097C89.4597 -119.12 89.2104 -119.131 88.9837 -119.131H82.7787V-110.155ZM113.428 -98V-107.027C113.428 -107.741 113.366 -108.472 113.241 -109.22C113.128 -109.979 112.901 -110.682 112.561 -111.328C112.232 -111.974 111.762 -112.495 111.15 -112.892C110.549 -113.289 109.762 -113.487 108.787 -113.487C108.152 -113.487 107.552 -113.379 106.985 -113.164C106.418 -112.96 105.92 -112.626 105.489 -112.161C105.07 -111.696 104.735 -111.084 104.486 -110.325C104.248 -109.566 104.129 -108.642 104.129 -107.554L101.919 -108.387C101.919 -110.053 102.231 -111.521 102.854 -112.79C103.477 -114.071 104.373 -115.068 105.54 -115.782C106.707 -116.496 108.118 -116.853 109.773 -116.853C111.042 -116.853 112.108 -116.649 112.969 -116.241C113.83 -115.833 114.527 -115.295 115.06 -114.626C115.604 -113.969 116.018 -113.249 116.301 -112.467C116.584 -111.685 116.777 -110.92 116.879 -110.172C116.981 -109.424 117.032 -108.767 117.032 -108.2V-98H113.428ZM100.525 -98V-122.48H103.704V-109.271H104.129V-98H100.525ZM129.433 -97.49C127.597 -97.49 126.005 -97.9037 124.656 -98.731C123.307 -99.5583 122.265 -100.697 121.528 -102.148C120.803 -103.61 120.44 -105.293 120.44 -107.197C120.44 -109.112 120.814 -110.795 121.562 -112.246C122.31 -113.708 123.358 -114.841 124.707 -115.646C126.056 -116.462 127.631 -116.87 129.433 -116.87C131.269 -116.87 132.861 -116.456 134.21 -115.629C135.559 -114.802 136.601 -113.663 137.338 -112.212C138.075 -110.761 138.443 -109.09 138.443 -107.197C138.443 -105.282 138.069 -103.593 137.321 -102.131C136.584 -100.68 135.542 -99.5413 134.193 -98.714C132.844 -97.898 131.258 -97.49 129.433 -97.49ZM129.433 -100.839C131.19 -100.839 132.499 -101.428 133.36 -102.607C134.233 -103.797 134.669 -105.327 134.669 -107.197C134.669 -109.112 134.227 -110.642 133.343 -111.787C132.47 -112.943 131.167 -113.521 129.433 -113.521C128.243 -113.521 127.263 -113.249 126.492 -112.705C125.721 -112.172 125.149 -111.43 124.775 -110.478C124.401 -109.537 124.214 -108.444 124.214 -107.197C124.214 -105.27 124.656 -103.729 125.54 -102.573C126.424 -101.417 127.722 -100.839 129.433 -100.839ZM155.065 -98V-107.027C155.065 -107.741 155.002 -108.472 154.878 -109.22C154.764 -109.979 154.538 -110.682 154.198 -111.328C153.869 -111.974 153.399 -112.495 152.787 -112.892C152.186 -113.289 151.398 -113.487 150.424 -113.487C149.789 -113.487 149.188 -113.379 148.622 -113.164C148.055 -112.96 147.556 -112.626 147.126 -112.161C146.706 -111.696 146.372 -111.084 146.123 -110.325C145.885 -109.566 145.766 -108.642 145.766 -107.554L143.556 -108.387C143.556 -110.053 143.867 -111.521 144.491 -112.79C145.114 -114.071 146.009 -115.068 147.177 -115.782C148.344 -116.496 149.755 -116.853 151.41 -116.853C152.679 -116.853 153.744 -116.649 154.606 -116.241C155.467 -115.833 156.164 -115.295 156.697 -114.626C157.241 -113.969 157.654 -113.249 157.938 -112.467C158.221 -111.685 158.414 -110.92 158.516 -110.172C158.618 -109.424 158.669 -108.767 158.669 -108.2V-98H155.065ZM142.162 -98V-116.36H145.341V-111.056H145.766V-98H142.162ZM171.007 -97.49C169.183 -97.49 167.579 -97.8867 166.196 -98.68C164.825 -99.4847 163.754 -100.601 162.983 -102.029C162.224 -103.468 161.844 -105.134 161.844 -107.027C161.844 -109.033 162.218 -110.773 162.966 -112.246C163.726 -113.719 164.78 -114.858 166.128 -115.663C167.477 -116.468 169.047 -116.87 170.837 -116.87C172.707 -116.87 174.3 -116.434 175.614 -115.561C176.929 -114.7 177.909 -113.47 178.555 -111.872C179.213 -110.274 179.473 -108.376 179.337 -106.177H175.784V-107.469C175.762 -109.6 175.354 -111.175 174.56 -112.195C173.778 -113.215 172.583 -113.725 170.973 -113.725C169.194 -113.725 167.857 -113.164 166.961 -112.042C166.066 -110.92 165.618 -109.299 165.618 -107.18C165.618 -105.163 166.066 -103.599 166.961 -102.488C167.857 -101.389 169.149 -100.839 170.837 -100.839C171.948 -100.839 172.906 -101.088 173.71 -101.587C174.526 -102.097 175.161 -102.822 175.614 -103.763L179.099 -102.658C178.385 -101.015 177.303 -99.7397 175.852 -98.833C174.402 -97.9377 172.787 -97.49 171.007 -97.49ZM164.462 -106.177V-108.948H177.569V-106.177H164.462ZM190.172 -97.507C187.94 -97.507 186.121 -98 184.715 -98.986C183.31 -99.972 182.449 -101.36 182.131 -103.151L185.769 -103.712C185.996 -102.76 186.517 -102.006 187.333 -101.451C188.161 -100.907 189.186 -100.635 190.41 -100.635C191.521 -100.635 192.388 -100.862 193.011 -101.315C193.646 -101.768 193.963 -102.392 193.963 -103.185C193.963 -103.65 193.85 -104.024 193.623 -104.307C193.408 -104.602 192.949 -104.879 192.246 -105.14C191.544 -105.401 190.473 -105.724 189.033 -106.109C187.458 -106.517 186.206 -106.953 185.276 -107.418C184.358 -107.894 183.701 -108.444 183.304 -109.067C182.919 -109.702 182.726 -110.467 182.726 -111.362C182.726 -112.473 183.021 -113.442 183.61 -114.269C184.2 -115.096 185.027 -115.737 186.092 -116.19C187.169 -116.643 188.427 -116.87 189.866 -116.87C191.272 -116.87 192.524 -116.649 193.623 -116.207C194.723 -115.765 195.612 -115.136 196.292 -114.32C196.972 -113.515 197.38 -112.569 197.516 -111.481L193.878 -110.818C193.754 -111.702 193.34 -112.399 192.637 -112.909C191.935 -113.419 191.022 -113.697 189.9 -113.742C188.824 -113.787 187.951 -113.606 187.282 -113.198C186.614 -112.801 186.279 -112.252 186.279 -111.549C186.279 -111.141 186.404 -110.795 186.653 -110.512C186.914 -110.229 187.413 -109.957 188.149 -109.696C188.886 -109.435 189.974 -109.124 191.413 -108.761C192.955 -108.364 194.179 -107.922 195.085 -107.435C195.992 -106.959 196.638 -106.387 197.023 -105.718C197.42 -105.061 197.618 -104.262 197.618 -103.321C197.618 -101.508 196.955 -100.085 195.629 -99.054C194.315 -98.0227 192.496 -97.507 190.172 -97.507Z" fill="url(#paint1_linear_145_1616)"/>
<path d="M87.4205 -32V-53.131H79.2775V-56.48H99.1165V-53.131H90.9735V-32H87.4205ZM104.631 -31.49C103.271 -31.49 102.132 -31.7393 101.214 -32.238C100.296 -32.748 99.5994 -33.4167 99.1234 -34.244C98.6587 -35.0827 98.4264 -36.0007 98.4264 -36.998C98.4264 -37.9273 98.5907 -38.7433 98.9194 -39.446C99.2481 -40.1487 99.7354 -40.7437 100.381 -41.231C101.027 -41.7297 101.821 -42.132 102.761 -42.438C103.577 -42.676 104.501 -42.8857 105.532 -43.067C106.564 -43.2483 107.646 -43.4183 108.779 -43.577C109.924 -43.7357 111.057 -43.8943 112.179 -44.053L110.887 -43.339C110.91 -44.7783 110.604 -45.8437 109.969 -46.535C109.346 -47.2377 108.269 -47.589 106.739 -47.589C105.776 -47.589 104.892 -47.3623 104.087 -46.909C103.283 -46.467 102.722 -45.7303 102.404 -44.699L99.0894 -45.719C99.5427 -47.2943 100.404 -48.5467 101.673 -49.476C102.954 -50.4053 104.654 -50.87 106.773 -50.87C108.417 -50.87 109.845 -50.5867 111.057 -50.02C112.281 -49.4647 113.177 -48.5807 113.743 -47.368C114.038 -46.7673 114.219 -46.1327 114.287 -45.464C114.355 -44.7953 114.389 -44.0757 114.389 -43.305V-32H111.244V-36.199L111.856 -35.655C111.097 -34.2497 110.128 -33.2013 108.949 -32.51C107.782 -31.83 106.343 -31.49 104.631 -31.49ZM105.26 -34.397C106.269 -34.397 107.136 -34.5727 107.861 -34.924C108.587 -35.2867 109.17 -35.7457 109.612 -36.301C110.054 -36.8563 110.343 -37.4343 110.479 -38.035C110.672 -38.579 110.78 -39.191 110.802 -39.871C110.836 -40.551 110.853 -41.095 110.853 -41.503L112.009 -41.078C110.887 -40.908 109.867 -40.755 108.949 -40.619C108.031 -40.483 107.198 -40.347 106.45 -40.211C105.714 -40.0863 105.056 -39.9333 104.478 -39.752C103.991 -39.582 103.555 -39.378 103.169 -39.14C102.795 -38.902 102.495 -38.613 102.268 -38.273C102.053 -37.933 101.945 -37.5193 101.945 -37.032C101.945 -36.556 102.064 -36.114 102.302 -35.706C102.54 -35.3093 102.903 -34.992 103.39 -34.754C103.878 -34.516 104.501 -34.397 105.26 -34.397ZM127.423 -31.49C125.666 -31.49 124.193 -31.915 123.003 -32.765C121.813 -33.6263 120.912 -34.788 120.3 -36.25C119.688 -37.712 119.382 -39.361 119.382 -41.197C119.382 -43.033 119.682 -44.682 120.283 -46.144C120.895 -47.606 121.79 -48.7563 122.969 -49.595C124.159 -50.445 125.621 -50.87 127.355 -50.87C129.077 -50.87 130.562 -50.445 131.809 -49.595C133.067 -48.7563 134.036 -47.606 134.716 -46.144C135.396 -44.6933 135.736 -43.0443 135.736 -41.197C135.736 -39.361 135.396 -37.7063 134.716 -36.233C134.047 -34.771 133.089 -33.615 131.843 -32.765C130.607 -31.915 129.134 -31.49 127.423 -31.49ZM118.787 -32V-56.48H122.357V-45.209H121.949V-32H118.787ZM126.93 -34.703C128.063 -34.703 128.998 -34.992 129.735 -35.57C130.483 -36.148 131.038 -36.9243 131.401 -37.899C131.775 -38.885 131.962 -39.9843 131.962 -41.197C131.962 -42.3983 131.775 -43.4863 131.401 -44.461C131.038 -45.4357 130.477 -46.212 129.718 -46.79C128.958 -47.368 127.989 -47.657 126.811 -47.657C125.7 -47.657 124.782 -47.385 124.057 -46.841C123.343 -46.297 122.81 -45.5377 122.459 -44.563C122.119 -43.5883 121.949 -42.4663 121.949 -41.197C121.949 -39.9277 122.119 -38.8057 122.459 -37.831C122.799 -36.8563 123.337 -36.0913 124.074 -35.536C124.81 -34.9807 125.762 -34.703 126.93 -34.703ZM139.829 -32V-56.99H143.382V-32H139.829ZM156.63 -31.49C154.806 -31.49 153.202 -31.8867 151.819 -32.68C150.448 -33.4847 149.377 -34.601 148.606 -36.029C147.847 -37.4683 147.467 -39.1343 147.467 -41.027C147.467 -43.033 147.841 -44.7727 148.589 -46.246C149.349 -47.7193 150.403 -48.8583 151.751 -49.663C153.1 -50.4677 154.67 -50.87 156.46 -50.87C158.33 -50.87 159.923 -50.4337 161.237 -49.561C162.552 -48.6997 163.532 -47.47 164.178 -45.872C164.836 -44.274 165.096 -42.3757 164.96 -40.177H161.407V-41.469C161.385 -43.5997 160.977 -45.175 160.183 -46.195C159.401 -47.215 158.206 -47.725 156.596 -47.725C154.817 -47.725 153.48 -47.164 152.584 -46.042C151.689 -44.92 151.241 -43.2993 151.241 -41.18C151.241 -39.1627 151.689 -37.5987 152.584 -36.488C153.48 -35.3887 154.772 -34.839 156.46 -34.839C157.571 -34.839 158.529 -35.0883 159.333 -35.587C160.149 -36.097 160.784 -36.8223 161.237 -37.763L164.722 -36.658C164.008 -35.0147 162.926 -33.7397 161.475 -32.833C160.025 -31.9377 158.41 -31.49 156.63 -31.49ZM150.085 -40.177V-42.948H163.192V-40.177H150.085ZM179.281 -32C178.125 -31.7733 176.991 -31.677 175.881 -31.711C174.77 -31.745 173.778 -31.9603 172.906 -32.357C172.033 -32.7537 171.376 -33.377 170.934 -34.227C170.537 -34.9863 170.322 -35.757 170.288 -36.539C170.265 -37.3323 170.254 -38.2277 170.254 -39.225V-55.46H173.824V-39.395C173.824 -38.6583 173.829 -38.018 173.841 -37.474C173.863 -36.93 173.982 -36.471 174.198 -36.097C174.606 -35.3943 175.252 -34.992 176.136 -34.89C177.031 -34.7993 178.079 -34.839 179.281 -35.009V-32ZM166.735 -47.504V-50.36H179.281V-47.504H166.735ZM190.172 -31.507C187.94 -31.507 186.121 -32 184.715 -32.986C183.31 -33.972 182.449 -35.3603 182.131 -37.151L185.769 -37.712C185.996 -36.76 186.517 -36.0063 187.333 -35.451C188.161 -34.907 189.186 -34.635 190.41 -34.635C191.521 -34.635 192.388 -34.8617 193.011 -35.315C193.646 -35.7683 193.963 -36.3917 193.963 -37.185C193.963 -37.6497 193.85 -38.0237 193.623 -38.307C193.408 -38.6017 192.949 -38.8793 192.246 -39.14C191.544 -39.4007 190.473 -39.7237 189.033 -40.109C187.458 -40.517 186.206 -40.9533 185.276 -41.418C184.358 -41.894 183.701 -42.4437 183.304 -43.067C182.919 -43.7017 182.726 -44.4667 182.726 -45.362C182.726 -46.4727 183.021 -47.4417 183.61 -48.269C184.2 -49.0963 185.027 -49.7367 186.092 -50.19C187.169 -50.6433 188.427 -50.87 189.866 -50.87C191.272 -50.87 192.524 -50.649 193.623 -50.207C194.723 -49.765 195.612 -49.136 196.292 -48.32C196.972 -47.5153 197.38 -46.569 197.516 -45.481L193.878 -44.818C193.754 -45.702 193.34 -46.399 192.637 -46.909C191.935 -47.419 191.022 -47.6967 189.9 -47.742C188.824 -47.7873 187.951 -47.606 187.282 -47.198C186.614 -46.8013 186.279 -46.2517 186.279 -45.549C186.279 -45.141 186.404 -44.7953 186.653 -44.512C186.914 -44.2287 187.413 -43.9567 188.149 -43.696C188.886 -43.4353 189.974 -43.1237 191.413 -42.761C192.955 -42.3643 194.179 -41.9223 195.085 -41.435C195.992 -40.959 196.638 -40.3867 197.023 -39.718C197.42 -39.0607 197.618 -38.2617 197.618 -37.321C197.618 -35.5077 196.955 -34.0853 195.629 -33.054C194.315 -32.0227 192.496 -31.507 190.172 -31.507Z" fill="url(#paint2_linear_145_1616)"/>
<path d="M70.9661 34V9.52H74.5191V30.651H85.6031V34H70.9661ZM93.6744 34.51C92.3144 34.51 91.1754 34.2607 90.2574 33.762C89.3394 33.252 88.6424 32.5833 88.1664 31.756C87.7017 30.9173 87.4694 29.9993 87.4694 29.002C87.4694 28.0727 87.6337 27.2567 87.9624 26.554C88.291 25.8513 88.7784 25.2563 89.4244 24.769C90.0704 24.2703 90.8637 23.868 91.8044 23.562C92.6204 23.324 93.544 23.1143 94.5754 22.933C95.6067 22.7517 96.689 22.5817 97.8224 22.423C98.967 22.2643 100.1 22.1057 101.222 21.947L99.9304 22.661C99.953 21.2217 99.647 20.1563 99.0124 19.465C98.389 18.7623 97.3124 18.411 95.7824 18.411C94.819 18.411 93.935 18.6377 93.1304 19.091C92.3257 19.533 91.7647 20.2697 91.4474 21.301L88.1324 20.281C88.5857 18.7057 89.447 17.4533 90.7164 16.524C91.997 15.5947 93.697 15.13 95.8164 15.13C97.4597 15.13 98.8877 15.4133 100.1 15.98C101.324 16.5353 102.22 17.4193 102.786 18.632C103.081 19.2327 103.262 19.8673 103.33 20.536C103.398 21.2047 103.432 21.9243 103.432 22.695V34H100.287V29.801L100.899 30.345C100.14 31.7503 99.171 32.7987 97.9924 33.49C96.825 34.17 95.3857 34.51 93.6744 34.51ZM94.3034 31.603C95.312 31.603 96.179 31.4273 96.9044 31.076C97.6297 30.7133 98.2134 30.2543 98.6554 29.699C99.0974 29.1437 99.3864 28.5657 99.5224 27.965C99.715 27.421 99.8227 26.809 99.8454 26.129C99.8794 25.449 99.8964 24.905 99.8964 24.497L101.052 24.922C99.9304 25.092 98.9104 25.245 97.9924 25.381C97.0744 25.517 96.2414 25.653 95.4934 25.789C94.7567 25.9137 94.0994 26.0667 93.5214 26.248C93.034 26.418 92.5977 26.622 92.2124 26.86C91.8384 27.098 91.538 27.387 91.3114 27.727C91.096 28.067 90.9884 28.4807 90.9884 28.968C90.9884 29.444 91.1074 29.886 91.3454 30.294C91.5834 30.6907 91.946 31.008 92.4334 31.246C92.9207 31.484 93.544 31.603 94.3034 31.603ZM116.466 34.51C114.709 34.51 113.236 34.085 112.046 33.235C110.856 32.3737 109.955 31.212 109.343 29.75C108.731 28.288 108.425 26.639 108.425 24.803C108.425 22.967 108.725 21.318 109.326 19.856C109.938 18.394 110.833 17.2437 112.012 16.405C113.202 15.555 114.664 15.13 116.398 15.13C118.12 15.13 119.605 15.555 120.852 16.405C122.11 17.2437 123.079 18.394 123.759 19.856C124.439 21.3067 124.779 22.9557 124.779 24.803C124.779 26.639 124.439 28.2937 123.759 29.767C123.09 31.229 122.132 32.385 120.886 33.235C119.65 34.085 118.177 34.51 116.466 34.51ZM107.83 42.16V15.64H110.992V28.849H111.4V42.16H107.83ZM115.973 31.297C117.106 31.297 118.041 31.008 118.778 30.43C119.526 29.852 120.081 29.0757 120.444 28.101C120.818 27.115 121.005 26.0157 121.005 24.803C121.005 23.6017 120.818 22.5137 120.444 21.539C120.081 20.5643 119.52 19.788 118.761 19.21C118.001 18.632 117.032 18.343 115.854 18.343C114.743 18.343 113.825 18.615 113.1 19.159C112.386 19.703 111.853 20.4623 111.502 21.437C111.162 22.4117 110.992 23.5337 110.992 24.803C110.992 26.0723 111.162 27.1943 111.502 28.169C111.842 29.1437 112.38 29.9087 113.117 30.464C113.853 31.0193 114.805 31.297 115.973 31.297ZM139.038 34C137.882 34.2267 136.749 34.323 135.638 34.289C134.528 34.255 133.536 34.0397 132.663 33.643C131.791 33.2463 131.133 32.623 130.691 31.773C130.295 31.0137 130.079 30.243 130.045 29.461C130.023 28.6677 130.011 27.7723 130.011 26.775V10.54H133.581V26.605C133.581 27.3417 133.587 27.982 133.598 28.526C133.621 29.07 133.74 29.529 133.955 29.903C134.363 30.6057 135.009 31.008 135.893 31.11C136.789 31.2007 137.837 31.161 139.038 30.991V34ZM126.492 18.496V15.64H139.038V18.496H126.492ZM150.052 34.51C148.216 34.51 146.624 34.0963 145.275 33.269C143.927 32.4417 142.884 31.3027 142.147 29.852C141.422 28.39 141.059 26.707 141.059 24.803C141.059 22.8877 141.433 21.2047 142.181 19.754C142.929 18.292 143.978 17.1587 145.326 16.354C146.675 15.538 148.25 15.13 150.052 15.13C151.888 15.13 153.481 15.5437 154.829 16.371C156.178 17.1983 157.221 18.3373 157.957 19.788C158.694 21.2387 159.062 22.9103 159.062 24.803C159.062 26.7183 158.688 28.407 157.94 29.869C157.204 31.3197 156.161 32.4587 154.812 33.286C153.464 34.102 151.877 34.51 150.052 34.51ZM150.052 31.161C151.809 31.161 153.118 30.5717 153.979 29.393C154.852 28.203 155.288 26.673 155.288 24.803C155.288 22.8877 154.846 21.3577 153.962 20.213C153.09 19.057 151.786 18.479 150.052 18.479C148.862 18.479 147.882 18.751 147.111 19.295C146.341 19.8277 145.768 20.57 145.394 21.522C145.02 22.4627 144.833 23.5563 144.833 24.803C144.833 26.7297 145.275 28.271 146.159 29.427C147.043 30.583 148.341 31.161 150.052 31.161ZM171.417 34.51C169.66 34.51 168.187 34.085 166.997 33.235C165.807 32.3737 164.906 31.212 164.294 29.75C163.682 28.288 163.376 26.639 163.376 24.803C163.376 22.967 163.676 21.318 164.277 19.856C164.889 18.394 165.784 17.2437 166.963 16.405C168.153 15.555 169.615 15.13 171.349 15.13C173.072 15.13 174.556 15.555 175.803 16.405C177.061 17.2437 178.03 18.394 178.71 19.856C179.39 21.3067 179.73 22.9557 179.73 24.803C179.73 26.639 179.39 28.2937 178.71 29.767C178.041 31.229 177.084 32.385 175.837 33.235C174.602 34.085 173.128 34.51 171.417 34.51ZM162.781 42.16V15.64H165.943V28.849H166.351V42.16H162.781ZM170.924 31.297C172.057 31.297 172.992 31.008 173.729 30.43C174.477 29.852 175.032 29.0757 175.395 28.101C175.769 27.115 175.956 26.0157 175.956 24.803C175.956 23.6017 175.769 22.5137 175.395 21.539C175.032 20.5643 174.471 19.788 173.712 19.21C172.953 18.632 171.984 18.343 170.805 18.343C169.694 18.343 168.776 18.615 168.051 19.159C167.337 19.703 166.804 20.4623 166.453 21.437C166.113 22.4117 165.943 23.5337 165.943 24.803C165.943 26.0723 166.113 27.1943 166.453 28.169C166.793 29.1437 167.331 29.9087 168.068 30.464C168.805 31.0193 169.757 31.297 170.924 31.297ZM190.172 34.493C187.94 34.493 186.121 34 184.715 33.014C183.31 32.028 182.449 30.6397 182.131 28.849L185.769 28.288C185.996 29.24 186.517 29.9937 187.333 30.549C188.161 31.093 189.186 31.365 190.41 31.365C191.521 31.365 192.388 31.1383 193.011 30.685C193.646 30.2317 193.963 29.6083 193.963 28.815C193.963 28.3503 193.85 27.9763 193.623 27.693C193.408 27.3983 192.949 27.1207 192.246 26.86C191.544 26.5993 190.473 26.2763 189.033 25.891C187.458 25.483 186.206 25.0467 185.276 24.582C184.358 24.106 183.701 23.5563 183.304 22.933C182.919 22.2983 182.726 21.5333 182.726 20.638C182.726 19.5273 183.021 18.5583 183.61 17.731C184.2 16.9037 185.027 16.2633 186.092 15.81C187.169 15.3567 188.427 15.13 189.866 15.13C191.272 15.13 192.524 15.351 193.623 15.793C194.723 16.235 195.612 16.864 196.292 17.68C196.972 18.4847 197.38 19.431 197.516 20.519L193.878 21.182C193.754 20.298 193.34 19.601 192.637 19.091C191.935 18.581 191.022 18.3033 189.9 18.258C188.824 18.2127 187.951 18.394 187.282 18.802C186.614 19.1987 186.279 19.7483 186.279 20.451C186.279 20.859 186.404 21.2047 186.653 21.488C186.914 21.7713 187.413 22.0433 188.149 22.304C188.886 22.5647 189.974 22.8763 191.413 23.239C192.955 23.6357 194.179 24.0777 195.085 24.565C195.992 25.041 196.638 25.6133 197.023 26.282C197.42 26.9393 197.618 27.7383 197.618 28.679C197.618 30.4923 196.955 31.9147 195.629 32.946C194.315 33.9773 192.496 34.493 190.172 34.493Z" fill="url(#paint3_linear_145_1616)"/>
<path d="M1.52375 100L9.47975 75.52H14.5968L22.5528 100H18.8638L11.5368 77.662H12.4548L5.21275 100H1.52375ZM5.65475 94.475V91.143H18.4388V94.475H5.65475ZM33.4567 100.51C31.5753 100.51 29.9773 100.091 28.6627 99.252C27.348 98.4133 26.3393 97.263 25.6367 95.801C24.9453 94.339 24.594 92.6787 24.5827 90.82C24.594 88.9273 24.9567 87.2557 25.6707 85.805C26.3847 84.343 27.4047 83.1983 28.7307 82.371C30.0567 81.5437 31.649 81.13 33.5077 81.13C35.5137 81.13 37.225 81.6287 38.6417 82.626C40.0697 83.6233 41.0103 84.989 41.4637 86.723L37.9277 87.743C37.5763 86.7117 36.9983 85.9127 36.1937 85.346C35.4003 84.768 34.488 84.479 33.4567 84.479C32.2893 84.479 31.3317 84.7567 30.5837 85.312C29.8357 85.856 29.2803 86.604 28.9177 87.556C28.555 88.508 28.368 89.596 28.3567 90.82C28.368 92.7127 28.7987 94.2427 29.6487 95.41C30.51 96.5773 31.7793 97.161 33.4567 97.161C34.6013 97.161 35.525 96.9003 36.2277 96.379C36.9417 95.8463 37.4857 95.087 37.8597 94.101L41.4637 94.951C40.863 96.7417 39.8713 98.1187 38.4887 99.082C37.106 100.034 35.4287 100.51 33.4567 100.51ZM52.2828 100.51C50.4015 100.51 48.8035 100.091 47.4888 99.252C46.1742 98.4133 45.1655 97.263 44.4628 95.801C43.7715 94.339 43.4202 92.6787 43.4088 90.82C43.4202 88.9273 43.7828 87.2557 44.4968 85.805C45.2108 84.343 46.2308 83.1983 47.5568 82.371C48.8828 81.5437 50.4752 81.13 52.3338 81.13C54.3398 81.13 56.0512 81.6287 57.4678 82.626C58.8958 83.6233 59.8365 84.989 60.2898 86.723L56.7538 87.743C56.4025 86.7117 55.8245 85.9127 55.0198 85.346C54.2265 84.768 53.3142 84.479 52.2828 84.479C51.1155 84.479 50.1578 84.7567 49.4098 85.312C48.6618 85.856 48.1065 86.604 47.7438 87.556C47.3812 88.508 47.1942 89.596 47.1828 90.82C47.1942 92.7127 47.6248 94.2427 48.4748 95.41C49.3362 96.5773 50.6055 97.161 52.2828 97.161C53.4275 97.161 54.3512 96.9003 55.0538 96.379C55.7678 95.8463 56.3118 95.087 56.6858 94.101L60.2898 94.951C59.6892 96.7417 58.6975 98.1187 57.3148 99.082C55.9322 100.034 54.2548 100.51 52.2828 100.51ZM71.398 100.51C69.5733 100.51 67.9697 100.113 66.587 99.32C65.2157 98.5153 64.1447 97.399 63.374 95.971C62.6147 94.5317 62.235 92.8657 62.235 90.973C62.235 88.967 62.609 87.2273 63.357 85.754C64.1163 84.2807 65.1703 83.1417 66.519 82.337C67.8677 81.5323 69.4373 81.13 71.228 81.13C73.098 81.13 74.6903 81.5663 76.005 82.439C77.3197 83.3003 78.3 84.53 78.946 86.128C79.6033 87.726 79.864 89.6243 79.728 91.823H76.175V90.531C76.1523 88.4003 75.7443 86.825 74.951 85.805C74.169 84.785 72.9733 84.275 71.364 84.275C69.5847 84.275 68.2473 84.836 67.352 85.958C66.4567 87.08 66.009 88.7007 66.009 90.82C66.009 92.8373 66.4567 94.4013 67.352 95.512C68.2473 96.6113 69.5393 97.161 71.228 97.161C72.3387 97.161 73.2963 96.9117 74.101 96.413C74.917 95.903 75.5517 95.1777 76.005 94.237L79.49 95.342C78.776 96.9853 77.6937 98.2603 76.243 99.167C74.7923 100.062 73.1773 100.51 71.398 100.51ZM64.853 91.823V89.052H77.96V91.823H64.853ZM90.5631 100.493C88.3304 100.493 86.5114 100 85.1061 99.014C83.7008 98.028 82.8394 96.6397 82.5221 94.849L86.1601 94.288C86.3868 95.24 86.9081 95.9937 87.7241 96.549C88.5514 97.093 89.5771 97.365 90.8011 97.365C91.9118 97.365 92.7788 97.1383 93.4021 96.685C94.0368 96.2317 94.3541 95.6083 94.3541 94.815C94.3541 94.3503 94.2408 93.9763 94.0141 93.693C93.7988 93.3983 93.3398 93.1207 92.6371 92.86C91.9344 92.5993 90.8634 92.2763 89.4241 91.891C87.8488 91.483 86.5964 91.0467 85.6671 90.582C84.7491 90.106 84.0918 89.5563 83.6951 88.933C83.3098 88.2983 83.1171 87.5333 83.1171 86.638C83.1171 85.5273 83.4118 84.5583 84.0011 83.731C84.5904 82.9037 85.4178 82.2633 86.4831 81.81C87.5598 81.3567 88.8178 81.13 90.2571 81.13C91.6624 81.13 92.9148 81.351 94.0141 81.793C95.1134 82.235 96.0031 82.864 96.6831 83.68C97.3631 84.4847 97.7711 85.431 97.9071 86.519L94.2691 87.182C94.1444 86.298 93.7308 85.601 93.0281 85.091C92.3254 84.581 91.4131 84.3033 90.2911 84.258C89.2144 84.2127 88.3418 84.394 87.6731 84.802C87.0044 85.1987 86.6701 85.7483 86.6701 86.451C86.6701 86.859 86.7948 87.2047 87.0441 87.488C87.3048 87.7713 87.8034 88.0433 88.5401 88.304C89.2768 88.5647 90.3648 88.8763 91.8041 89.239C93.3454 89.6357 94.5694 90.0777 95.4761 90.565C96.3828 91.041 97.0288 91.6133 97.4141 92.282C97.8108 92.9393 98.0091 93.7383 98.0091 94.679C98.0091 96.4923 97.3461 97.9147 96.0201 98.946C94.7054 99.9773 92.8864 100.493 90.5631 100.493ZM108.792 100.493C106.559 100.493 104.74 100 103.335 99.014C101.929 98.028 101.068 96.6397 100.751 94.849L104.389 94.288C104.615 95.24 105.137 95.9937 105.953 96.549C106.78 97.093 107.806 97.365 109.03 97.365C110.14 97.365 111.007 97.1383 111.631 96.685C112.265 96.2317 112.583 95.6083 112.583 94.815C112.583 94.3503 112.469 93.9763 112.243 93.693C112.027 93.3983 111.568 93.1207 110.866 92.86C110.163 92.5993 109.092 92.2763 107.653 91.891C106.077 91.483 104.825 91.0467 103.896 90.582C102.978 90.106 102.32 89.5563 101.924 88.933C101.538 88.2983 101.346 87.5333 101.346 86.638C101.346 85.5273 101.64 84.5583 102.23 83.731C102.819 82.9037 103.646 82.2633 104.712 81.81C105.788 81.3567 107.046 81.13 108.486 81.13C109.891 81.13 111.143 81.351 112.243 81.793C113.342 82.235 114.232 82.864 114.912 83.68C115.592 84.4847 116 85.431 116.136 86.519L112.498 87.182C112.373 86.298 111.959 85.601 111.257 85.091C110.554 84.581 109.642 84.3033 108.52 84.258C107.443 84.2127 106.57 84.394 105.902 84.802C105.233 85.1987 104.899 85.7483 104.899 86.451C104.899 86.859 105.023 87.2047 105.273 87.488C105.533 87.7713 106.032 88.0433 106.769 88.304C107.505 88.5647 108.593 88.8763 110.033 89.239C111.574 89.6357 112.798 90.0777 113.705 90.565C114.611 91.041 115.257 91.6133 115.643 92.282C116.039 92.9393 116.238 93.7383 116.238 94.679C116.238 96.4923 115.575 97.9147 114.249 98.946C112.934 99.9773 111.115 100.493 108.792 100.493ZM127.972 100.51C126.136 100.51 124.544 100.096 123.195 99.269C121.846 98.4417 120.804 97.3027 120.067 95.852C119.342 94.39 118.979 92.707 118.979 90.803C118.979 88.8877 119.353 87.2047 120.101 85.754C120.849 84.292 121.897 83.1587 123.246 82.354C124.595 81.538 126.17 81.13 127.972 81.13C129.808 81.13 131.4 81.5437 132.749 82.371C134.098 83.1983 135.14 84.3373 135.877 85.788C136.614 87.2387 136.982 88.9103 136.982 90.803C136.982 92.7183 136.608 94.407 135.86 95.869C135.123 97.3197 134.081 98.4587 132.732 99.286C131.383 100.102 129.797 100.51 127.972 100.51ZM127.972 97.161C129.729 97.161 131.038 96.5717 131.899 95.393C132.772 94.203 133.208 92.673 133.208 90.803C133.208 88.8877 132.766 87.3577 131.882 86.213C131.009 85.057 129.706 84.479 127.972 84.479C126.782 84.479 125.802 84.751 125.031 85.295C124.26 85.8277 123.688 86.57 123.314 87.522C122.94 88.4627 122.753 89.5563 122.753 90.803C122.753 92.7297 123.195 94.271 124.079 95.427C124.963 96.583 126.261 97.161 127.972 97.161ZM140.718 100V81.64H143.88V86.094L143.438 85.516C143.665 84.9267 143.959 84.3883 144.322 83.901C144.685 83.4023 145.104 82.9943 145.58 82.677C146.045 82.337 146.56 82.0763 147.127 81.895C147.705 81.7023 148.294 81.589 148.895 81.555C149.496 81.5097 150.074 81.538 150.629 81.64V84.972C150.028 84.8133 149.36 84.768 148.623 84.836C147.898 84.904 147.229 85.1363 146.617 85.533C146.039 85.907 145.58 86.3603 145.24 86.893C144.911 87.4257 144.673 88.0207 144.526 88.678C144.379 89.324 144.305 90.0097 144.305 90.735V100H140.718ZM154.206 78.631V75.18H157.759V78.631H154.206ZM154.206 100V81.64H157.759V100H154.206ZM171.007 100.51C169.183 100.51 167.579 100.113 166.196 99.32C164.825 98.5153 163.754 97.399 162.983 95.971C162.224 94.5317 161.844 92.8657 161.844 90.973C161.844 88.967 162.218 87.2273 162.966 85.754C163.726 84.2807 164.78 83.1417 166.128 82.337C167.477 81.5323 169.047 81.13 170.837 81.13C172.707 81.13 174.3 81.5663 175.614 82.439C176.929 83.3003 177.909 84.53 178.555 86.128C179.213 87.726 179.473 89.6243 179.337 91.823H175.784V90.531C175.762 88.4003 175.354 86.825 174.56 85.805C173.778 84.785 172.583 84.275 170.973 84.275C169.194 84.275 167.857 84.836 166.961 85.958C166.066 87.08 165.618 88.7007 165.618 90.82C165.618 92.8373 166.066 94.4013 166.961 95.512C167.857 96.6113 169.149 97.161 170.837 97.161C171.948 97.161 172.906 96.9117 173.71 96.413C174.526 95.903 175.161 95.1777 175.614 94.237L179.099 95.342C178.385 96.9853 177.303 98.2603 175.852 99.167C174.402 100.062 172.787 100.51 171.007 100.51ZM164.462 91.823V89.052H177.569V91.823H164.462ZM190.172 100.493C187.94 100.493 186.121 100 184.715 99.014C183.31 98.028 182.449 96.6397 182.131 94.849L185.769 94.288C185.996 95.24 186.517 95.9937 187.333 96.549C188.161 97.093 189.186 97.365 190.41 97.365C191.521 97.365 192.388 97.1383 193.011 96.685C193.646 96.2317 193.963 95.6083 193.963 94.815C193.963 94.3503 193.85 93.9763 193.623 93.693C193.408 93.3983 192.949 93.1207 192.246 92.86C191.544 92.5993 190.473 92.2763 189.033 91.891C187.458 91.483 186.206 91.0467 185.276 90.582C184.358 90.106 183.701 89.5563 183.304 88.933C182.919 88.2983 182.726 87.5333 182.726 86.638C182.726 85.5273 183.021 84.5583 183.61 83.731C184.2 82.9037 185.027 82.2633 186.092 81.81C187.169 81.3567 188.427 81.13 189.866 81.13C191.272 81.13 192.524 81.351 193.623 81.793C194.723 82.235 195.612 82.864 196.292 83.68C196.972 84.4847 197.38 85.431 197.516 86.519L193.878 87.182C193.754 86.298 193.34 85.601 192.637 85.091C191.935 84.581 191.022 84.3033 189.9 84.258C188.824 84.2127 187.951 84.394 187.282 84.802C186.614 85.1987 186.279 85.7483 186.279 86.451C186.279 86.859 186.404 87.2047 186.653 87.488C186.914 87.7713 187.413 88.0433 188.149 88.304C188.886 88.5647 189.974 88.8763 191.413 89.239C192.955 89.6357 194.179 90.0777 195.085 90.565C195.992 91.041 196.638 91.6133 197.023 92.282C197.42 92.9393 197.618 93.7383 197.618 94.679C197.618 96.4923 196.955 97.9147 195.629 98.946C194.315 99.9773 192.496 100.493 190.172 100.493Z" fill="url(#paint4_linear_145_1616)"/>
</g>
<defs>
<linearGradient id="paint0_linear_145_1616" x1="168.5" y1="132" x2="168.5" y2="174" gradientUnits="userSpaceOnUse">
<stop stop-color="#90E0EF"/>
<stop offset="1" stop-color="#00B4D8"/>
</linearGradient>
<linearGradient id="paint1_linear_145_1616" x1="137.5" y1="-132" x2="137.5" y2="-90" gradientUnits="userSpaceOnUse">
<stop stop-color="#90E0EF"/>
<stop offset="1" stop-color="#00B4D8"/>
</linearGradient>
<linearGradient id="paint2_linear_145_1616" x1="138.5" y1="-66" x2="138.5" y2="-24" gradientUnits="userSpaceOnUse">
<stop stop-color="#90E0EF"/>
<stop offset="1" stop-color="#00B4D8"/>
</linearGradient>
<linearGradient id="paint3_linear_145_1616" x1="133.5" y1="0" x2="133.5" y2="42" gradientUnits="userSpaceOnUse">
<stop stop-color="#90E0EF"/>
<stop offset="1" stop-color="#00B4D8"/>
</linearGradient>
<linearGradient id="paint4_linear_145_1616" x1="99.5" y1="66" x2="99.5" y2="108" gradientUnits="userSpaceOnUse">
<stop stop-color="#90E0EF"/>
<stop offset="1" stop-color="#00B4D8"/>
</linearGradient>
</defs>
</svg>
