<svg width="199" height="48" viewBox="0 0 199 48" fill="none" xmlns="http://www.w3.org/2000/svg">
<mask id="mask0_145_1615" style="mask-type:alpha" maskUnits="userSpaceOnUse" x="0" y="0" width="199" height="48">
<rect width="199" height="48" fill="#111111"/>
</mask>
<g mask="url(#mask0_145_1615)">
<path d="M140.552 100V75.52H150.174C151.727 75.52 153.03 75.8373 154.084 76.472C155.138 77.1067 155.931 77.9283 156.464 78.937C156.997 79.9343 157.263 80.9883 157.263 82.099C157.263 83.4477 156.929 84.6037 156.26 85.567C155.603 86.5303 154.713 87.1877 153.591 87.539L153.557 86.706C155.121 87.0913 156.322 87.845 157.161 88.967C158 90.0777 158.419 91.3753 158.419 92.86C158.419 94.2993 158.13 95.5517 157.552 96.617C156.985 97.6823 156.152 98.5153 155.053 99.116C153.965 99.7053 152.645 100 151.092 100H140.552ZM144.156 96.617H150.548C151.353 96.617 152.072 96.464 152.707 96.158C153.353 95.852 153.857 95.4157 154.22 94.849C154.594 94.271 154.781 93.5853 154.781 92.792C154.781 92.0553 154.617 91.3923 154.288 90.803C153.971 90.2023 153.506 89.732 152.894 89.392C152.293 89.0407 151.585 88.865 150.769 88.865H144.156V96.617ZM144.156 85.516H150.123C150.78 85.516 151.37 85.3857 151.891 85.125C152.424 84.853 152.843 84.4677 153.149 83.969C153.466 83.459 153.625 82.847 153.625 82.133C153.625 81.181 153.308 80.399 152.673 79.787C152.038 79.175 151.188 78.869 150.123 78.869H144.156V85.516ZM168.721 100.493C167.452 100.493 166.386 100.289 165.525 99.881C164.664 99.473 163.961 98.9403 163.417 98.283C162.884 97.6143 162.476 96.889 162.193 96.107C161.91 95.325 161.717 94.56 161.615 93.812C161.513 93.064 161.462 92.4067 161.462 91.84V81.64H165.066V90.667C165.066 91.381 165.123 92.1177 165.236 92.877C165.361 93.625 165.587 94.322 165.916 94.968C166.256 95.614 166.726 96.1353 167.327 96.532C167.939 96.9287 168.732 97.127 169.707 97.127C170.342 97.127 170.942 97.025 171.509 96.821C172.076 96.6057 172.569 96.2657 172.988 95.801C173.419 95.3363 173.753 94.7243 173.991 93.965C174.24 93.2057 174.365 92.282 174.365 91.194L176.575 92.027C176.575 93.693 176.263 95.1663 175.64 96.447C175.017 97.7163 174.121 98.708 172.954 99.422C171.787 100.136 170.376 100.493 168.721 100.493ZM174.79 100V94.696H174.365V81.64H177.952V100H174.79ZM185.202 108.16L188.755 98.487L188.806 101.343L180.799 81.64H184.505L190.489 96.855H189.401L195.113 81.64H198.717L188.585 108.16H185.202Z" fill="url(#paint0_linear_145_1615)"/>
<path d="M79.2257 -164V-188.48H89.1197C89.3577 -188.48 89.6524 -188.469 90.0037 -188.446C90.355 -188.435 90.6894 -188.401 91.0067 -188.344C92.3667 -188.129 93.5 -187.664 94.4067 -186.95C95.3247 -186.236 96.0104 -185.335 96.4637 -184.247C96.917 -183.159 97.1437 -181.958 97.1437 -180.643C97.1437 -179.317 96.917 -178.11 96.4637 -177.022C96.0104 -175.934 95.3247 -175.033 94.4067 -174.319C93.5 -173.605 92.3667 -173.14 91.0067 -172.925C90.6894 -172.88 90.3494 -172.846 89.9867 -172.823C89.6354 -172.8 89.3464 -172.789 89.1197 -172.789H82.7787V-164H79.2257ZM82.7787 -176.155H88.9837C89.2104 -176.155 89.4597 -176.166 89.7317 -176.189C90.015 -176.212 90.2814 -176.251 90.5307 -176.308C91.256 -176.478 91.8397 -176.79 92.2817 -177.243C92.7237 -177.708 93.041 -178.24 93.2337 -178.841C93.4264 -179.442 93.5227 -180.042 93.5227 -180.643C93.5227 -181.244 93.4264 -181.839 93.2337 -182.428C93.041 -183.029 92.7237 -183.556 92.2817 -184.009C91.8397 -184.474 91.256 -184.791 90.5307 -184.961C90.2814 -185.029 90.015 -185.074 89.7317 -185.097C89.4597 -185.12 89.2104 -185.131 88.9837 -185.131H82.7787V-176.155ZM113.428 -164V-173.027C113.428 -173.741 113.366 -174.472 113.241 -175.22C113.128 -175.979 112.901 -176.682 112.561 -177.328C112.232 -177.974 111.762 -178.495 111.15 -178.892C110.549 -179.289 109.762 -179.487 108.787 -179.487C108.152 -179.487 107.552 -179.379 106.985 -179.164C106.418 -178.96 105.92 -178.626 105.489 -178.161C105.07 -177.696 104.735 -177.084 104.486 -176.325C104.248 -175.566 104.129 -174.642 104.129 -173.554L101.919 -174.387C101.919 -176.053 102.231 -177.521 102.854 -178.79C103.477 -180.071 104.373 -181.068 105.54 -181.782C106.707 -182.496 108.118 -182.853 109.773 -182.853C111.042 -182.853 112.108 -182.649 112.969 -182.241C113.83 -181.833 114.527 -181.295 115.06 -180.626C115.604 -179.969 116.018 -179.249 116.301 -178.467C116.584 -177.685 116.777 -176.92 116.879 -176.172C116.981 -175.424 117.032 -174.767 117.032 -174.2V-164H113.428ZM100.525 -164V-188.48H103.704V-175.271H104.129V-164H100.525ZM129.433 -163.49C127.597 -163.49 126.005 -163.904 124.656 -164.731C123.307 -165.558 122.265 -166.697 121.528 -168.148C120.803 -169.61 120.44 -171.293 120.44 -173.197C120.44 -175.112 120.814 -176.795 121.562 -178.246C122.31 -179.708 123.358 -180.841 124.707 -181.646C126.056 -182.462 127.631 -182.87 129.433 -182.87C131.269 -182.87 132.861 -182.456 134.21 -181.629C135.559 -180.802 136.601 -179.663 137.338 -178.212C138.075 -176.761 138.443 -175.09 138.443 -173.197C138.443 -171.282 138.069 -169.593 137.321 -168.131C136.584 -166.68 135.542 -165.541 134.193 -164.714C132.844 -163.898 131.258 -163.49 129.433 -163.49ZM129.433 -166.839C131.19 -166.839 132.499 -167.428 133.36 -168.607C134.233 -169.797 134.669 -171.327 134.669 -173.197C134.669 -175.112 134.227 -176.642 133.343 -177.787C132.47 -178.943 131.167 -179.521 129.433 -179.521C128.243 -179.521 127.263 -179.249 126.492 -178.705C125.721 -178.172 125.149 -177.43 124.775 -176.478C124.401 -175.537 124.214 -174.444 124.214 -173.197C124.214 -171.27 124.656 -169.729 125.54 -168.573C126.424 -167.417 127.722 -166.839 129.433 -166.839ZM155.065 -164V-173.027C155.065 -173.741 155.002 -174.472 154.878 -175.22C154.764 -175.979 154.538 -176.682 154.198 -177.328C153.869 -177.974 153.399 -178.495 152.787 -178.892C152.186 -179.289 151.398 -179.487 150.424 -179.487C149.789 -179.487 149.188 -179.379 148.622 -179.164C148.055 -178.96 147.556 -178.626 147.126 -178.161C146.706 -177.696 146.372 -177.084 146.123 -176.325C145.885 -175.566 145.766 -174.642 145.766 -173.554L143.556 -174.387C143.556 -176.053 143.867 -177.521 144.491 -178.79C145.114 -180.071 146.009 -181.068 147.177 -181.782C148.344 -182.496 149.755 -182.853 151.41 -182.853C152.679 -182.853 153.744 -182.649 154.606 -182.241C155.467 -181.833 156.164 -181.295 156.697 -180.626C157.241 -179.969 157.654 -179.249 157.938 -178.467C158.221 -177.685 158.414 -176.92 158.516 -176.172C158.618 -175.424 158.669 -174.767 158.669 -174.2V-164H155.065ZM142.162 -164V-182.36H145.341V-177.056H145.766V-164H142.162ZM171.007 -163.49C169.183 -163.49 167.579 -163.887 166.196 -164.68C164.825 -165.485 163.754 -166.601 162.983 -168.029C162.224 -169.468 161.844 -171.134 161.844 -173.027C161.844 -175.033 162.218 -176.773 162.966 -178.246C163.726 -179.719 164.78 -180.858 166.128 -181.663C167.477 -182.468 169.047 -182.87 170.837 -182.87C172.707 -182.87 174.3 -182.434 175.614 -181.561C176.929 -180.7 177.909 -179.47 178.555 -177.872C179.213 -176.274 179.473 -174.376 179.337 -172.177H175.784V-173.469C175.762 -175.6 175.354 -177.175 174.56 -178.195C173.778 -179.215 172.583 -179.725 170.973 -179.725C169.194 -179.725 167.857 -179.164 166.961 -178.042C166.066 -176.92 165.618 -175.299 165.618 -173.18C165.618 -171.163 166.066 -169.599 166.961 -168.488C167.857 -167.389 169.149 -166.839 170.837 -166.839C171.948 -166.839 172.906 -167.088 173.71 -167.587C174.526 -168.097 175.161 -168.822 175.614 -169.763L179.099 -168.658C178.385 -167.015 177.303 -165.74 175.852 -164.833C174.402 -163.938 172.787 -163.49 171.007 -163.49ZM164.462 -172.177V-174.948H177.569V-172.177H164.462ZM190.172 -163.507C187.94 -163.507 186.121 -164 184.715 -164.986C183.31 -165.972 182.449 -167.36 182.131 -169.151L185.769 -169.712C185.996 -168.76 186.517 -168.006 187.333 -167.451C188.161 -166.907 189.186 -166.635 190.41 -166.635C191.521 -166.635 192.388 -166.862 193.011 -167.315C193.646 -167.768 193.963 -168.392 193.963 -169.185C193.963 -169.65 193.85 -170.024 193.623 -170.307C193.408 -170.602 192.949 -170.879 192.246 -171.14C191.544 -171.401 190.473 -171.724 189.033 -172.109C187.458 -172.517 186.206 -172.953 185.276 -173.418C184.358 -173.894 183.701 -174.444 183.304 -175.067C182.919 -175.702 182.726 -176.467 182.726 -177.362C182.726 -178.473 183.021 -179.442 183.61 -180.269C184.2 -181.096 185.027 -181.737 186.092 -182.19C187.169 -182.643 188.427 -182.87 189.866 -182.87C191.272 -182.87 192.524 -182.649 193.623 -182.207C194.723 -181.765 195.612 -181.136 196.292 -180.32C196.972 -179.515 197.38 -178.569 197.516 -177.481L193.878 -176.818C193.754 -177.702 193.34 -178.399 192.637 -178.909C191.935 -179.419 191.022 -179.697 189.9 -179.742C188.824 -179.787 187.951 -179.606 187.282 -179.198C186.614 -178.801 186.279 -178.252 186.279 -177.549C186.279 -177.141 186.404 -176.795 186.653 -176.512C186.914 -176.229 187.413 -175.957 188.149 -175.696C188.886 -175.435 189.974 -175.124 191.413 -174.761C192.955 -174.364 194.179 -173.922 195.085 -173.435C195.992 -172.959 196.638 -172.387 197.023 -171.718C197.42 -171.061 197.618 -170.262 197.618 -169.321C197.618 -167.508 196.955 -166.085 195.629 -165.054C194.315 -164.023 192.496 -163.507 190.172 -163.507Z" fill="url(#paint1_linear_145_1615)"/>
<path d="M87.4205 -98V-119.131H79.2775V-122.48H99.1165V-119.131H90.9735V-98H87.4205ZM104.631 -97.49C103.271 -97.49 102.132 -97.7393 101.214 -98.238C100.296 -98.748 99.5994 -99.4167 99.1234 -100.244C98.6587 -101.083 98.4264 -102.001 98.4264 -102.998C98.4264 -103.927 98.5907 -104.743 98.9194 -105.446C99.2481 -106.149 99.7354 -106.744 100.381 -107.231C101.027 -107.73 101.821 -108.132 102.761 -108.438C103.577 -108.676 104.501 -108.886 105.532 -109.067C106.564 -109.248 107.646 -109.418 108.779 -109.577C109.924 -109.736 111.057 -109.894 112.179 -110.053L110.887 -109.339C110.91 -110.778 110.604 -111.844 109.969 -112.535C109.346 -113.238 108.269 -113.589 106.739 -113.589C105.776 -113.589 104.892 -113.362 104.087 -112.909C103.283 -112.467 102.722 -111.73 102.404 -110.699L99.0894 -111.719C99.5427 -113.294 100.404 -114.547 101.673 -115.476C102.954 -116.405 104.654 -116.87 106.773 -116.87C108.417 -116.87 109.845 -116.587 111.057 -116.02C112.281 -115.465 113.177 -114.581 113.743 -113.368C114.038 -112.767 114.219 -112.133 114.287 -111.464C114.355 -110.795 114.389 -110.076 114.389 -109.305V-98H111.244V-102.199L111.856 -101.655C111.097 -100.25 110.128 -99.2013 108.949 -98.51C107.782 -97.83 106.343 -97.49 104.631 -97.49ZM105.26 -100.397C106.269 -100.397 107.136 -100.573 107.861 -100.924C108.587 -101.287 109.17 -101.746 109.612 -102.301C110.054 -102.856 110.343 -103.434 110.479 -104.035C110.672 -104.579 110.78 -105.191 110.802 -105.871C110.836 -106.551 110.853 -107.095 110.853 -107.503L112.009 -107.078C110.887 -106.908 109.867 -106.755 108.949 -106.619C108.031 -106.483 107.198 -106.347 106.45 -106.211C105.714 -106.086 105.056 -105.933 104.478 -105.752C103.991 -105.582 103.555 -105.378 103.169 -105.14C102.795 -104.902 102.495 -104.613 102.268 -104.273C102.053 -103.933 101.945 -103.519 101.945 -103.032C101.945 -102.556 102.064 -102.114 102.302 -101.706C102.54 -101.309 102.903 -100.992 103.39 -100.754C103.878 -100.516 104.501 -100.397 105.26 -100.397ZM127.423 -97.49C125.666 -97.49 124.193 -97.915 123.003 -98.765C121.813 -99.6263 120.912 -100.788 120.3 -102.25C119.688 -103.712 119.382 -105.361 119.382 -107.197C119.382 -109.033 119.682 -110.682 120.283 -112.144C120.895 -113.606 121.79 -114.756 122.969 -115.595C124.159 -116.445 125.621 -116.87 127.355 -116.87C129.077 -116.87 130.562 -116.445 131.809 -115.595C133.067 -114.756 134.036 -113.606 134.716 -112.144C135.396 -110.693 135.736 -109.044 135.736 -107.197C135.736 -105.361 135.396 -103.706 134.716 -102.233C134.047 -100.771 133.089 -99.615 131.843 -98.765C130.607 -97.915 129.134 -97.49 127.423 -97.49ZM118.787 -98V-122.48H122.357V-111.209H121.949V-98H118.787ZM126.93 -100.703C128.063 -100.703 128.998 -100.992 129.735 -101.57C130.483 -102.148 131.038 -102.924 131.401 -103.899C131.775 -104.885 131.962 -105.984 131.962 -107.197C131.962 -108.398 131.775 -109.486 131.401 -110.461C131.038 -111.436 130.477 -112.212 129.718 -112.79C128.958 -113.368 127.989 -113.657 126.811 -113.657C125.7 -113.657 124.782 -113.385 124.057 -112.841C123.343 -112.297 122.81 -111.538 122.459 -110.563C122.119 -109.588 121.949 -108.466 121.949 -107.197C121.949 -105.928 122.119 -104.806 122.459 -103.831C122.799 -102.856 123.337 -102.091 124.074 -101.536C124.81 -100.981 125.762 -100.703 126.93 -100.703ZM139.829 -98V-122.99H143.382V-98H139.829ZM156.63 -97.49C154.806 -97.49 153.202 -97.8867 151.819 -98.68C150.448 -99.4847 149.377 -100.601 148.606 -102.029C147.847 -103.468 147.467 -105.134 147.467 -107.027C147.467 -109.033 147.841 -110.773 148.589 -112.246C149.349 -113.719 150.403 -114.858 151.751 -115.663C153.1 -116.468 154.67 -116.87 156.46 -116.87C158.33 -116.87 159.923 -116.434 161.237 -115.561C162.552 -114.7 163.532 -113.47 164.178 -111.872C164.836 -110.274 165.096 -108.376 164.96 -106.177H161.407V-107.469C161.385 -109.6 160.977 -111.175 160.183 -112.195C159.401 -113.215 158.206 -113.725 156.596 -113.725C154.817 -113.725 153.48 -113.164 152.584 -112.042C151.689 -110.92 151.241 -109.299 151.241 -107.18C151.241 -105.163 151.689 -103.599 152.584 -102.488C153.48 -101.389 154.772 -100.839 156.46 -100.839C157.571 -100.839 158.529 -101.088 159.333 -101.587C160.149 -102.097 160.784 -102.822 161.237 -103.763L164.722 -102.658C164.008 -101.015 162.926 -99.7397 161.475 -98.833C160.025 -97.9377 158.41 -97.49 156.63 -97.49ZM150.085 -106.177V-108.948H163.192V-106.177H150.085ZM179.281 -98C178.125 -97.7733 176.991 -97.677 175.881 -97.711C174.77 -97.745 173.778 -97.9603 172.906 -98.357C172.033 -98.7537 171.376 -99.377 170.934 -100.227C170.537 -100.986 170.322 -101.757 170.288 -102.539C170.265 -103.332 170.254 -104.228 170.254 -105.225V-121.46H173.824V-105.395C173.824 -104.658 173.829 -104.018 173.841 -103.474C173.863 -102.93 173.982 -102.471 174.198 -102.097C174.606 -101.394 175.252 -100.992 176.136 -100.89C177.031 -100.799 178.079 -100.839 179.281 -101.009V-98ZM166.735 -113.504V-116.36H179.281V-113.504H166.735ZM190.172 -97.507C187.94 -97.507 186.121 -98 184.715 -98.986C183.31 -99.972 182.449 -101.36 182.131 -103.151L185.769 -103.712C185.996 -102.76 186.517 -102.006 187.333 -101.451C188.161 -100.907 189.186 -100.635 190.41 -100.635C191.521 -100.635 192.388 -100.862 193.011 -101.315C193.646 -101.768 193.963 -102.392 193.963 -103.185C193.963 -103.65 193.85 -104.024 193.623 -104.307C193.408 -104.602 192.949 -104.879 192.246 -105.14C191.544 -105.401 190.473 -105.724 189.033 -106.109C187.458 -106.517 186.206 -106.953 185.276 -107.418C184.358 -107.894 183.701 -108.444 183.304 -109.067C182.919 -109.702 182.726 -110.467 182.726 -111.362C182.726 -112.473 183.021 -113.442 183.61 -114.269C184.2 -115.096 185.027 -115.737 186.092 -116.19C187.169 -116.643 188.427 -116.87 189.866 -116.87C191.272 -116.87 192.524 -116.649 193.623 -116.207C194.723 -115.765 195.612 -115.136 196.292 -114.32C196.972 -113.515 197.38 -112.569 197.516 -111.481L193.878 -110.818C193.754 -111.702 193.34 -112.399 192.637 -112.909C191.935 -113.419 191.022 -113.697 189.9 -113.742C188.824 -113.787 187.951 -113.606 187.282 -113.198C186.614 -112.801 186.279 -112.252 186.279 -111.549C186.279 -111.141 186.404 -110.795 186.653 -110.512C186.914 -110.229 187.413 -109.957 188.149 -109.696C188.886 -109.435 189.974 -109.124 191.413 -108.761C192.955 -108.364 194.179 -107.922 195.085 -107.435C195.992 -106.959 196.638 -106.387 197.023 -105.718C197.42 -105.061 197.618 -104.262 197.618 -103.321C197.618 -101.508 196.955 -100.085 195.629 -99.054C194.315 -98.0227 192.496 -97.507 190.172 -97.507Z" fill="url(#paint2_linear_145_1615)"/>
<path d="M70.9661 -32V-56.48H74.5191V-35.349H85.6031V-32H70.9661ZM93.6744 -31.49C92.3144 -31.49 91.1754 -31.7393 90.2574 -32.238C89.3394 -32.748 88.6424 -33.4167 88.1664 -34.244C87.7017 -35.0827 87.4694 -36.0007 87.4694 -36.998C87.4694 -37.9273 87.6337 -38.7433 87.9624 -39.446C88.291 -40.1487 88.7784 -40.7437 89.4244 -41.231C90.0704 -41.7297 90.8637 -42.132 91.8044 -42.438C92.6204 -42.676 93.544 -42.8857 94.5754 -43.067C95.6067 -43.2483 96.689 -43.4183 97.8224 -43.577C98.967 -43.7357 100.1 -43.8943 101.222 -44.053L99.9304 -43.339C99.953 -44.7783 99.647 -45.8437 99.0124 -46.535C98.389 -47.2377 97.3124 -47.589 95.7824 -47.589C94.819 -47.589 93.935 -47.3623 93.1304 -46.909C92.3257 -46.467 91.7647 -45.7303 91.4474 -44.699L88.1324 -45.719C88.5857 -47.2943 89.447 -48.5467 90.7164 -49.476C91.997 -50.4053 93.697 -50.87 95.8164 -50.87C97.4597 -50.87 98.8877 -50.5867 100.1 -50.02C101.324 -49.4647 102.22 -48.5807 102.786 -47.368C103.081 -46.7673 103.262 -46.1327 103.33 -45.464C103.398 -44.7953 103.432 -44.0757 103.432 -43.305V-32H100.287V-36.199L100.899 -35.655C100.14 -34.2497 99.171 -33.2013 97.9924 -32.51C96.825 -31.83 95.3857 -31.49 93.6744 -31.49ZM94.3034 -34.397C95.312 -34.397 96.179 -34.5727 96.9044 -34.924C97.6297 -35.2867 98.2134 -35.7457 98.6554 -36.301C99.0974 -36.8563 99.3864 -37.4343 99.5224 -38.035C99.715 -38.579 99.8227 -39.191 99.8454 -39.871C99.8794 -40.551 99.8964 -41.095 99.8964 -41.503L101.052 -41.078C99.9304 -40.908 98.9104 -40.755 97.9924 -40.619C97.0744 -40.483 96.2414 -40.347 95.4934 -40.211C94.7567 -40.0863 94.0994 -39.9333 93.5214 -39.752C93.034 -39.582 92.5977 -39.378 92.2124 -39.14C91.8384 -38.902 91.538 -38.613 91.3114 -38.273C91.096 -37.933 90.9884 -37.5193 90.9884 -37.032C90.9884 -36.556 91.1074 -36.114 91.3454 -35.706C91.5834 -35.3093 91.946 -34.992 92.4334 -34.754C92.9207 -34.516 93.544 -34.397 94.3034 -34.397ZM116.466 -31.49C114.709 -31.49 113.236 -31.915 112.046 -32.765C110.856 -33.6263 109.955 -34.788 109.343 -36.25C108.731 -37.712 108.425 -39.361 108.425 -41.197C108.425 -43.033 108.725 -44.682 109.326 -46.144C109.938 -47.606 110.833 -48.7563 112.012 -49.595C113.202 -50.445 114.664 -50.87 116.398 -50.87C118.12 -50.87 119.605 -50.445 120.852 -49.595C122.11 -48.7563 123.079 -47.606 123.759 -46.144C124.439 -44.6933 124.779 -43.0443 124.779 -41.197C124.779 -39.361 124.439 -37.7063 123.759 -36.233C123.09 -34.771 122.132 -33.615 120.886 -32.765C119.65 -31.915 118.177 -31.49 116.466 -31.49ZM107.83 -23.84V-50.36H110.992V-37.151H111.4V-23.84H107.83ZM115.973 -34.703C117.106 -34.703 118.041 -34.992 118.778 -35.57C119.526 -36.148 120.081 -36.9243 120.444 -37.899C120.818 -38.885 121.005 -39.9843 121.005 -41.197C121.005 -42.3983 120.818 -43.4863 120.444 -44.461C120.081 -45.4357 119.52 -46.212 118.761 -46.79C118.001 -47.368 117.032 -47.657 115.854 -47.657C114.743 -47.657 113.825 -47.385 113.1 -46.841C112.386 -46.297 111.853 -45.5377 111.502 -44.563C111.162 -43.5883 110.992 -42.4663 110.992 -41.197C110.992 -39.9277 111.162 -38.8057 111.502 -37.831C111.842 -36.8563 112.38 -36.0913 113.117 -35.536C113.853 -34.9807 114.805 -34.703 115.973 -34.703ZM139.038 -32C137.882 -31.7733 136.749 -31.677 135.638 -31.711C134.528 -31.745 133.536 -31.9603 132.663 -32.357C131.791 -32.7537 131.133 -33.377 130.691 -34.227C130.295 -34.9863 130.079 -35.757 130.045 -36.539C130.023 -37.3323 130.011 -38.2277 130.011 -39.225V-55.46H133.581V-39.395C133.581 -38.6583 133.587 -38.018 133.598 -37.474C133.621 -36.93 133.74 -36.471 133.955 -36.097C134.363 -35.3943 135.009 -34.992 135.893 -34.89C136.789 -34.7993 137.837 -34.839 139.038 -35.009V-32ZM126.492 -47.504V-50.36H139.038V-47.504H126.492ZM150.052 -31.49C148.216 -31.49 146.624 -31.9037 145.275 -32.731C143.927 -33.5583 142.884 -34.6973 142.147 -36.148C141.422 -37.61 141.059 -39.293 141.059 -41.197C141.059 -43.1123 141.433 -44.7953 142.181 -46.246C142.929 -47.708 143.978 -48.8413 145.326 -49.646C146.675 -50.462 148.25 -50.87 150.052 -50.87C151.888 -50.87 153.481 -50.4563 154.829 -49.629C156.178 -48.8017 157.221 -47.6627 157.957 -46.212C158.694 -44.7613 159.062 -43.0897 159.062 -41.197C159.062 -39.2817 158.688 -37.593 157.94 -36.131C157.204 -34.6803 156.161 -33.5413 154.812 -32.714C153.464 -31.898 151.877 -31.49 150.052 -31.49ZM150.052 -34.839C151.809 -34.839 153.118 -35.4283 153.979 -36.607C154.852 -37.797 155.288 -39.327 155.288 -41.197C155.288 -43.1123 154.846 -44.6423 153.962 -45.787C153.09 -46.943 151.786 -47.521 150.052 -47.521C148.862 -47.521 147.882 -47.249 147.111 -46.705C146.341 -46.1723 145.768 -45.43 145.394 -44.478C145.02 -43.5373 144.833 -42.4437 144.833 -41.197C144.833 -39.2703 145.275 -37.729 146.159 -36.573C147.043 -35.417 148.341 -34.839 150.052 -34.839ZM171.417 -31.49C169.66 -31.49 168.187 -31.915 166.997 -32.765C165.807 -33.6263 164.906 -34.788 164.294 -36.25C163.682 -37.712 163.376 -39.361 163.376 -41.197C163.376 -43.033 163.676 -44.682 164.277 -46.144C164.889 -47.606 165.784 -48.7563 166.963 -49.595C168.153 -50.445 169.615 -50.87 171.349 -50.87C173.072 -50.87 174.556 -50.445 175.803 -49.595C177.061 -48.7563 178.03 -47.606 178.71 -46.144C179.39 -44.6933 179.73 -43.0443 179.73 -41.197C179.73 -39.361 179.39 -37.7063 178.71 -36.233C178.041 -34.771 177.084 -33.615 175.837 -32.765C174.602 -31.915 173.128 -31.49 171.417 -31.49ZM162.781 -23.84V-50.36H165.943V-37.151H166.351V-23.84H162.781ZM170.924 -34.703C172.057 -34.703 172.992 -34.992 173.729 -35.57C174.477 -36.148 175.032 -36.9243 175.395 -37.899C175.769 -38.885 175.956 -39.9843 175.956 -41.197C175.956 -42.3983 175.769 -43.4863 175.395 -44.461C175.032 -45.4357 174.471 -46.212 173.712 -46.79C172.953 -47.368 171.984 -47.657 170.805 -47.657C169.694 -47.657 168.776 -47.385 168.051 -46.841C167.337 -46.297 166.804 -45.5377 166.453 -44.563C166.113 -43.5883 165.943 -42.4663 165.943 -41.197C165.943 -39.9277 166.113 -38.8057 166.453 -37.831C166.793 -36.8563 167.331 -36.0913 168.068 -35.536C168.805 -34.9807 169.757 -34.703 170.924 -34.703ZM190.172 -31.507C187.94 -31.507 186.121 -32 184.715 -32.986C183.31 -33.972 182.449 -35.3603 182.131 -37.151L185.769 -37.712C185.996 -36.76 186.517 -36.0063 187.333 -35.451C188.161 -34.907 189.186 -34.635 190.41 -34.635C191.521 -34.635 192.388 -34.8617 193.011 -35.315C193.646 -35.7683 193.963 -36.3917 193.963 -37.185C193.963 -37.6497 193.85 -38.0237 193.623 -38.307C193.408 -38.6017 192.949 -38.8793 192.246 -39.14C191.544 -39.4007 190.473 -39.7237 189.033 -40.109C187.458 -40.517 186.206 -40.9533 185.276 -41.418C184.358 -41.894 183.701 -42.4437 183.304 -43.067C182.919 -43.7017 182.726 -44.4667 182.726 -45.362C182.726 -46.4727 183.021 -47.4417 183.61 -48.269C184.2 -49.0963 185.027 -49.7367 186.092 -50.19C187.169 -50.6433 188.427 -50.87 189.866 -50.87C191.272 -50.87 192.524 -50.649 193.623 -50.207C194.723 -49.765 195.612 -49.136 196.292 -48.32C196.972 -47.5153 197.38 -46.569 197.516 -45.481L193.878 -44.818C193.754 -45.702 193.34 -46.399 192.637 -46.909C191.935 -47.419 191.022 -47.6967 189.9 -47.742C188.824 -47.7873 187.951 -47.606 187.282 -47.198C186.614 -46.8013 186.279 -46.2517 186.279 -45.549C186.279 -45.141 186.404 -44.7953 186.653 -44.512C186.914 -44.2287 187.413 -43.9567 188.149 -43.696C188.886 -43.4353 189.974 -43.1237 191.413 -42.761C192.955 -42.3643 194.179 -41.9223 195.085 -41.435C195.992 -40.959 196.638 -40.3867 197.023 -39.718C197.42 -39.0607 197.618 -38.2617 197.618 -37.321C197.618 -35.5077 196.955 -34.0853 195.629 -33.054C194.315 -32.0227 192.496 -31.507 190.172 -31.507Z" fill="url(#paint3_linear_145_1615)"/>
<path d="M1.52375 34L9.47975 9.52H14.5968L22.5528 34H18.8638L11.5368 11.662H12.4548L5.21275 34H1.52375ZM5.65475 28.475V25.143H18.4388V28.475H5.65475ZM33.4567 34.51C31.5753 34.51 29.9773 34.0907 28.6627 33.252C27.348 32.4133 26.3393 31.263 25.6367 29.801C24.9453 28.339 24.594 26.6787 24.5827 24.82C24.594 22.9273 24.9567 21.2557 25.6707 19.805C26.3847 18.343 27.4047 17.1983 28.7307 16.371C30.0567 15.5437 31.649 15.13 33.5077 15.13C35.5137 15.13 37.225 15.6287 38.6417 16.626C40.0697 17.6233 41.0103 18.989 41.4637 20.723L37.9277 21.743C37.5763 20.7117 36.9983 19.9127 36.1937 19.346C35.4003 18.768 34.488 18.479 33.4567 18.479C32.2893 18.479 31.3317 18.7567 30.5837 19.312C29.8357 19.856 29.2803 20.604 28.9177 21.556C28.555 22.508 28.368 23.596 28.3567 24.82C28.368 26.7127 28.7987 28.2427 29.6487 29.41C30.51 30.5773 31.7793 31.161 33.4567 31.161C34.6013 31.161 35.525 30.9003 36.2277 30.379C36.9417 29.8463 37.4857 29.087 37.8597 28.101L41.4637 28.951C40.863 30.7417 39.8713 32.1187 38.4887 33.082C37.106 34.034 35.4287 34.51 33.4567 34.51ZM52.2828 34.51C50.4015 34.51 48.8035 34.0907 47.4888 33.252C46.1742 32.4133 45.1655 31.263 44.4628 29.801C43.7715 28.339 43.4202 26.6787 43.4088 24.82C43.4202 22.9273 43.7828 21.2557 44.4968 19.805C45.2108 18.343 46.2308 17.1983 47.5568 16.371C48.8828 15.5437 50.4752 15.13 52.3338 15.13C54.3398 15.13 56.0512 15.6287 57.4678 16.626C58.8958 17.6233 59.8365 18.989 60.2898 20.723L56.7538 21.743C56.4025 20.7117 55.8245 19.9127 55.0198 19.346C54.2265 18.768 53.3142 18.479 52.2828 18.479C51.1155 18.479 50.1578 18.7567 49.4098 19.312C48.6618 19.856 48.1065 20.604 47.7438 21.556C47.3812 22.508 47.1942 23.596 47.1828 24.82C47.1942 26.7127 47.6248 28.2427 48.4748 29.41C49.3362 30.5773 50.6055 31.161 52.2828 31.161C53.4275 31.161 54.3512 30.9003 55.0538 30.379C55.7678 29.8463 56.3118 29.087 56.6858 28.101L60.2898 28.951C59.6892 30.7417 58.6975 32.1187 57.3148 33.082C55.9322 34.034 54.2548 34.51 52.2828 34.51ZM71.398 34.51C69.5733 34.51 67.9697 34.1133 66.587 33.32C65.2157 32.5153 64.1447 31.399 63.374 29.971C62.6147 28.5317 62.235 26.8657 62.235 24.973C62.235 22.967 62.609 21.2273 63.357 19.754C64.1163 18.2807 65.1703 17.1417 66.519 16.337C67.8677 15.5323 69.4373 15.13 71.228 15.13C73.098 15.13 74.6903 15.5663 76.005 16.439C77.3197 17.3003 78.3 18.53 78.946 20.128C79.6033 21.726 79.864 23.6243 79.728 25.823H76.175V24.531C76.1523 22.4003 75.7443 20.825 74.951 19.805C74.169 18.785 72.9733 18.275 71.364 18.275C69.5847 18.275 68.2473 18.836 67.352 19.958C66.4567 21.08 66.009 22.7007 66.009 24.82C66.009 26.8373 66.4567 28.4013 67.352 29.512C68.2473 30.6113 69.5393 31.161 71.228 31.161C72.3387 31.161 73.2963 30.9117 74.101 30.413C74.917 29.903 75.5517 29.1777 76.005 28.237L79.49 29.342C78.776 30.9853 77.6937 32.2603 76.243 33.167C74.7923 34.0623 73.1773 34.51 71.398 34.51ZM64.853 25.823V23.052H77.96V25.823H64.853ZM90.5631 34.493C88.3304 34.493 86.5114 34 85.1061 33.014C83.7008 32.028 82.8394 30.6397 82.5221 28.849L86.1601 28.288C86.3868 29.24 86.9081 29.9937 87.7241 30.549C88.5514 31.093 89.5771 31.365 90.8011 31.365C91.9118 31.365 92.7788 31.1383 93.4021 30.685C94.0368 30.2317 94.3541 29.6083 94.3541 28.815C94.3541 28.3503 94.2408 27.9763 94.0141 27.693C93.7988 27.3983 93.3398 27.1207 92.6371 26.86C91.9344 26.5993 90.8634 26.2763 89.4241 25.891C87.8488 25.483 86.5964 25.0467 85.6671 24.582C84.7491 24.106 84.0918 23.5563 83.6951 22.933C83.3098 22.2983 83.1171 21.5333 83.1171 20.638C83.1171 19.5273 83.4118 18.5583 84.0011 17.731C84.5904 16.9037 85.4178 16.2633 86.4831 15.81C87.5598 15.3567 88.8178 15.13 90.2571 15.13C91.6624 15.13 92.9148 15.351 94.0141 15.793C95.1134 16.235 96.0031 16.864 96.6831 17.68C97.3631 18.4847 97.7711 19.431 97.9071 20.519L94.2691 21.182C94.1444 20.298 93.7308 19.601 93.0281 19.091C92.3254 18.581 91.4131 18.3033 90.2911 18.258C89.2144 18.2127 88.3418 18.394 87.6731 18.802C87.0044 19.1987 86.6701 19.7483 86.6701 20.451C86.6701 20.859 86.7948 21.2047 87.0441 21.488C87.3048 21.7713 87.8034 22.0433 88.5401 22.304C89.2768 22.5647 90.3648 22.8763 91.8041 23.239C93.3454 23.6357 94.5694 24.0777 95.4761 24.565C96.3828 25.041 97.0288 25.6133 97.4141 26.282C97.8108 26.9393 98.0091 27.7383 98.0091 28.679C98.0091 30.4923 97.3461 31.9147 96.0201 32.946C94.7054 33.9773 92.8864 34.493 90.5631 34.493ZM108.792 34.493C106.559 34.493 104.74 34 103.335 33.014C101.929 32.028 101.068 30.6397 100.751 28.849L104.389 28.288C104.615 29.24 105.137 29.9937 105.953 30.549C106.78 31.093 107.806 31.365 109.03 31.365C110.14 31.365 111.007 31.1383 111.631 30.685C112.265 30.2317 112.583 29.6083 112.583 28.815C112.583 28.3503 112.469 27.9763 112.243 27.693C112.027 27.3983 111.568 27.1207 110.866 26.86C110.163 26.5993 109.092 26.2763 107.653 25.891C106.077 25.483 104.825 25.0467 103.896 24.582C102.978 24.106 102.32 23.5563 101.924 22.933C101.538 22.2983 101.346 21.5333 101.346 20.638C101.346 19.5273 101.64 18.5583 102.23 17.731C102.819 16.9037 103.646 16.2633 104.712 15.81C105.788 15.3567 107.046 15.13 108.486 15.13C109.891 15.13 111.143 15.351 112.243 15.793C113.342 16.235 114.232 16.864 114.912 17.68C115.592 18.4847 116 19.431 116.136 20.519L112.498 21.182C112.373 20.298 111.959 19.601 111.257 19.091C110.554 18.581 109.642 18.3033 108.52 18.258C107.443 18.2127 106.57 18.394 105.902 18.802C105.233 19.1987 104.899 19.7483 104.899 20.451C104.899 20.859 105.023 21.2047 105.273 21.488C105.533 21.7713 106.032 22.0433 106.769 22.304C107.505 22.5647 108.593 22.8763 110.033 23.239C111.574 23.6357 112.798 24.0777 113.705 24.565C114.611 25.041 115.257 25.6133 115.643 26.282C116.039 26.9393 116.238 27.7383 116.238 28.679C116.238 30.4923 115.575 31.9147 114.249 32.946C112.934 33.9773 111.115 34.493 108.792 34.493ZM127.972 34.51C126.136 34.51 124.544 34.0963 123.195 33.269C121.846 32.4417 120.804 31.3027 120.067 29.852C119.342 28.39 118.979 26.707 118.979 24.803C118.979 22.8877 119.353 21.2047 120.101 19.754C120.849 18.292 121.897 17.1587 123.246 16.354C124.595 15.538 126.17 15.13 127.972 15.13C129.808 15.13 131.4 15.5437 132.749 16.371C134.098 17.1983 135.14 18.3373 135.877 19.788C136.614 21.2387 136.982 22.9103 136.982 24.803C136.982 26.7183 136.608 28.407 135.86 29.869C135.123 31.3197 134.081 32.4587 132.732 33.286C131.383 34.102 129.797 34.51 127.972 34.51ZM127.972 31.161C129.729 31.161 131.038 30.5717 131.899 29.393C132.772 28.203 133.208 26.673 133.208 24.803C133.208 22.8877 132.766 21.3577 131.882 20.213C131.009 19.057 129.706 18.479 127.972 18.479C126.782 18.479 125.802 18.751 125.031 19.295C124.26 19.8277 123.688 20.57 123.314 21.522C122.94 22.4627 122.753 23.5563 122.753 24.803C122.753 26.7297 123.195 28.271 124.079 29.427C124.963 30.583 126.261 31.161 127.972 31.161ZM140.718 34V15.64H143.88V20.094L143.438 19.516C143.665 18.9267 143.959 18.3883 144.322 17.901C144.685 17.4023 145.104 16.9943 145.58 16.677C146.045 16.337 146.56 16.0763 147.127 15.895C147.705 15.7023 148.294 15.589 148.895 15.555C149.496 15.5097 150.074 15.538 150.629 15.64V18.972C150.028 18.8133 149.36 18.768 148.623 18.836C147.898 18.904 147.229 19.1363 146.617 19.533C146.039 19.907 145.58 20.3603 145.24 20.893C144.911 21.4257 144.673 22.0207 144.526 22.678C144.379 23.324 144.305 24.0097 144.305 24.735V34H140.718ZM154.206 12.631V9.18H157.759V12.631H154.206ZM154.206 34V15.64H157.759V34H154.206ZM171.007 34.51C169.183 34.51 167.579 34.1133 166.196 33.32C164.825 32.5153 163.754 31.399 162.983 29.971C162.224 28.5317 161.844 26.8657 161.844 24.973C161.844 22.967 162.218 21.2273 162.966 19.754C163.726 18.2807 164.78 17.1417 166.128 16.337C167.477 15.5323 169.047 15.13 170.837 15.13C172.707 15.13 174.3 15.5663 175.614 16.439C176.929 17.3003 177.909 18.53 178.555 20.128C179.213 21.726 179.473 23.6243 179.337 25.823H175.784V24.531C175.762 22.4003 175.354 20.825 174.56 19.805C173.778 18.785 172.583 18.275 170.973 18.275C169.194 18.275 167.857 18.836 166.961 19.958C166.066 21.08 165.618 22.7007 165.618 24.82C165.618 26.8373 166.066 28.4013 166.961 29.512C167.857 30.6113 169.149 31.161 170.837 31.161C171.948 31.161 172.906 30.9117 173.71 30.413C174.526 29.903 175.161 29.1777 175.614 28.237L179.099 29.342C178.385 30.9853 177.303 32.2603 175.852 33.167C174.402 34.0623 172.787 34.51 171.007 34.51ZM164.462 25.823V23.052H177.569V25.823H164.462ZM190.172 34.493C187.94 34.493 186.121 34 184.715 33.014C183.31 32.028 182.449 30.6397 182.131 28.849L185.769 28.288C185.996 29.24 186.517 29.9937 187.333 30.549C188.161 31.093 189.186 31.365 190.41 31.365C191.521 31.365 192.388 31.1383 193.011 30.685C193.646 30.2317 193.963 29.6083 193.963 28.815C193.963 28.3503 193.85 27.9763 193.623 27.693C193.408 27.3983 192.949 27.1207 192.246 26.86C191.544 26.5993 190.473 26.2763 189.033 25.891C187.458 25.483 186.206 25.0467 185.276 24.582C184.358 24.106 183.701 23.5563 183.304 22.933C182.919 22.2983 182.726 21.5333 182.726 20.638C182.726 19.5273 183.021 18.5583 183.61 17.731C184.2 16.9037 185.027 16.2633 186.092 15.81C187.169 15.3567 188.427 15.13 189.866 15.13C191.272 15.13 192.524 15.351 193.623 15.793C194.723 16.235 195.612 16.864 196.292 17.68C196.972 18.4847 197.38 19.431 197.516 20.519L193.878 21.182C193.754 20.298 193.34 19.601 192.637 19.091C191.935 18.581 191.022 18.3033 189.9 18.258C188.824 18.2127 187.951 18.394 187.282 18.802C186.614 19.1987 186.279 19.7483 186.279 20.451C186.279 20.859 186.404 21.2047 186.653 21.488C186.914 21.7713 187.413 22.0433 188.149 22.304C188.886 22.5647 189.974 22.8763 191.413 23.239C192.955 23.6357 194.179 24.0777 195.085 24.565C195.992 25.041 196.638 25.6133 197.023 26.282C197.42 26.9393 197.618 27.7383 197.618 28.679C197.618 30.4923 196.955 31.9147 195.629 32.946C194.315 33.9773 192.496 34.493 190.172 34.493Z" fill="url(#paint4_linear_145_1615)"/>
</g>
<defs>
<linearGradient id="paint0_linear_145_1615" x1="168.5" y1="66" x2="168.5" y2="108" gradientUnits="userSpaceOnUse">
<stop stop-color="#90E0EF"/>
<stop offset="1" stop-color="#00B4D8"/>
</linearGradient>
<linearGradient id="paint1_linear_145_1615" x1="137.5" y1="-198" x2="137.5" y2="-156" gradientUnits="userSpaceOnUse">
<stop stop-color="#90E0EF"/>
<stop offset="1" stop-color="#00B4D8"/>
</linearGradient>
<linearGradient id="paint2_linear_145_1615" x1="138.5" y1="-132" x2="138.5" y2="-90" gradientUnits="userSpaceOnUse">
<stop stop-color="#90E0EF"/>
<stop offset="1" stop-color="#00B4D8"/>
</linearGradient>
<linearGradient id="paint3_linear_145_1615" x1="133.5" y1="-66" x2="133.5" y2="-24" gradientUnits="userSpaceOnUse">
<stop stop-color="#90E0EF"/>
<stop offset="1" stop-color="#00B4D8"/>
</linearGradient>
<linearGradient id="paint4_linear_145_1615" x1="99.5" y1="0" x2="99.5" y2="42" gradientUnits="userSpaceOnUse">
<stop stop-color="#90E0EF"/>
<stop offset="1" stop-color="#00B4D8"/>
</linearGradient>
</defs>
</svg>
