<svg width="199" height="48" viewBox="0 0 199 48" fill="none" xmlns="http://www.w3.org/2000/svg">
<mask id="mask0_145_1617" style="mask-type:alpha" maskUnits="userSpaceOnUse" x="0" y="0" width="199" height="48">
<rect width="199" height="48" fill="#111111"/>
</mask>
<g mask="url(#mask0_145_1617)">
<path d="M140.552 232V207.52H150.174C151.727 207.52 153.03 207.837 154.084 208.472C155.138 209.107 155.931 209.928 156.464 210.937C156.997 211.934 157.263 212.988 157.263 214.099C157.263 215.448 156.929 216.604 156.26 217.567C155.603 218.53 154.713 219.188 153.591 219.539L153.557 218.706C155.121 219.091 156.322 219.845 157.161 220.967C158 222.078 158.419 223.375 158.419 224.86C158.419 226.299 158.13 227.552 157.552 228.617C156.985 229.682 156.152 230.515 155.053 231.116C153.965 231.705 152.645 232 151.092 232H140.552ZM144.156 228.617H150.548C151.353 228.617 152.072 228.464 152.707 228.158C153.353 227.852 153.857 227.416 154.22 226.849C154.594 226.271 154.781 225.585 154.781 224.792C154.781 224.055 154.617 223.392 154.288 222.803C153.971 222.202 153.506 221.732 152.894 221.392C152.293 221.041 151.585 220.865 150.769 220.865H144.156V228.617ZM144.156 217.516H150.123C150.78 217.516 151.37 217.386 151.891 217.125C152.424 216.853 152.843 216.468 153.149 215.969C153.466 215.459 153.625 214.847 153.625 214.133C153.625 213.181 153.308 212.399 152.673 211.787C152.038 211.175 151.188 210.869 150.123 210.869H144.156V217.516ZM168.721 232.493C167.452 232.493 166.386 232.289 165.525 231.881C164.664 231.473 163.961 230.94 163.417 230.283C162.884 229.614 162.476 228.889 162.193 228.107C161.91 227.325 161.717 226.56 161.615 225.812C161.513 225.064 161.462 224.407 161.462 223.84V213.64H165.066V222.667C165.066 223.381 165.123 224.118 165.236 224.877C165.361 225.625 165.587 226.322 165.916 226.968C166.256 227.614 166.726 228.135 167.327 228.532C167.939 228.929 168.732 229.127 169.707 229.127C170.342 229.127 170.942 229.025 171.509 228.821C172.076 228.606 172.569 228.266 172.988 227.801C173.419 227.336 173.753 226.724 173.991 225.965C174.24 225.206 174.365 224.282 174.365 223.194L176.575 224.027C176.575 225.693 176.263 227.166 175.64 228.447C175.017 229.716 174.121 230.708 172.954 231.422C171.787 232.136 170.376 232.493 168.721 232.493ZM174.79 232V226.696H174.365V213.64H177.952V232H174.79ZM185.202 240.16L188.755 230.487L188.806 233.343L180.799 213.64H184.505L190.489 228.855H189.401L195.113 213.64H198.717L188.585 240.16H185.202Z" fill="url(#paint0_linear_145_1617)"/>
<path d="M79.2257 -32V-56.48H89.1197C89.3577 -56.48 89.6524 -56.4687 90.0037 -56.446C90.355 -56.4347 90.6894 -56.4007 91.0067 -56.344C92.3667 -56.1287 93.5 -55.664 94.4067 -54.95C95.3247 -54.236 96.0104 -53.335 96.4637 -52.247C96.917 -51.159 97.1437 -49.9577 97.1437 -48.643C97.1437 -47.317 96.917 -46.11 96.4637 -45.022C96.0104 -43.934 95.3247 -43.033 94.4067 -42.319C93.5 -41.605 92.3667 -41.1403 91.0067 -40.925C90.6894 -40.8797 90.3494 -40.8457 89.9867 -40.823C89.6354 -40.8003 89.3464 -40.789 89.1197 -40.789H82.7787V-32H79.2257ZM82.7787 -44.155H88.9837C89.2104 -44.155 89.4597 -44.1663 89.7317 -44.189C90.015 -44.2117 90.2814 -44.2513 90.5307 -44.308C91.256 -44.478 91.8397 -44.7897 92.2817 -45.243C92.7237 -45.7077 93.041 -46.2403 93.2337 -46.841C93.4264 -47.4417 93.5227 -48.0423 93.5227 -48.643C93.5227 -49.2437 93.4264 -49.8387 93.2337 -50.428C93.041 -51.0287 92.7237 -51.5557 92.2817 -52.009C91.8397 -52.4737 91.256 -52.791 90.5307 -52.961C90.2814 -53.029 90.015 -53.0743 89.7317 -53.097C89.4597 -53.1197 89.2104 -53.131 88.9837 -53.131H82.7787V-44.155ZM113.428 -32V-41.027C113.428 -41.741 113.366 -42.472 113.241 -43.22C113.128 -43.9793 112.901 -44.682 112.561 -45.328C112.232 -45.974 111.762 -46.4953 111.15 -46.892C110.549 -47.2887 109.762 -47.487 108.787 -47.487C108.152 -47.487 107.552 -47.3793 106.985 -47.164C106.418 -46.96 105.92 -46.6257 105.489 -46.161C105.07 -45.6963 104.735 -45.0843 104.486 -44.325C104.248 -43.5657 104.129 -42.642 104.129 -41.554L101.919 -42.387C101.919 -44.053 102.231 -45.5207 102.854 -46.79C103.477 -48.0707 104.373 -49.068 105.54 -49.782C106.707 -50.496 108.118 -50.853 109.773 -50.853C111.042 -50.853 112.108 -50.649 112.969 -50.241C113.83 -49.833 114.527 -49.2947 115.06 -48.626C115.604 -47.9687 116.018 -47.249 116.301 -46.467C116.584 -45.685 116.777 -44.92 116.879 -44.172C116.981 -43.424 117.032 -42.7667 117.032 -42.2V-32H113.428ZM100.525 -32V-56.48H103.704V-43.271H104.129V-32H100.525ZM129.433 -31.49C127.597 -31.49 126.005 -31.9037 124.656 -32.731C123.307 -33.5583 122.265 -34.6973 121.528 -36.148C120.803 -37.61 120.44 -39.293 120.44 -41.197C120.44 -43.1123 120.814 -44.7953 121.562 -46.246C122.31 -47.708 123.358 -48.8413 124.707 -49.646C126.056 -50.462 127.631 -50.87 129.433 -50.87C131.269 -50.87 132.861 -50.4563 134.21 -49.629C135.559 -48.8017 136.601 -47.6627 137.338 -46.212C138.075 -44.7613 138.443 -43.0897 138.443 -41.197C138.443 -39.2817 138.069 -37.593 137.321 -36.131C136.584 -34.6803 135.542 -33.5413 134.193 -32.714C132.844 -31.898 131.258 -31.49 129.433 -31.49ZM129.433 -34.839C131.19 -34.839 132.499 -35.4283 133.36 -36.607C134.233 -37.797 134.669 -39.327 134.669 -41.197C134.669 -43.1123 134.227 -44.6423 133.343 -45.787C132.47 -46.943 131.167 -47.521 129.433 -47.521C128.243 -47.521 127.263 -47.249 126.492 -46.705C125.721 -46.1723 125.149 -45.43 124.775 -44.478C124.401 -43.5373 124.214 -42.4437 124.214 -41.197C124.214 -39.2703 124.656 -37.729 125.54 -36.573C126.424 -35.417 127.722 -34.839 129.433 -34.839ZM155.065 -32V-41.027C155.065 -41.741 155.002 -42.472 154.878 -43.22C154.764 -43.9793 154.538 -44.682 154.198 -45.328C153.869 -45.974 153.399 -46.4953 152.787 -46.892C152.186 -47.2887 151.398 -47.487 150.424 -47.487C149.789 -47.487 149.188 -47.3793 148.622 -47.164C148.055 -46.96 147.556 -46.6257 147.126 -46.161C146.706 -45.6963 146.372 -45.0843 146.123 -44.325C145.885 -43.5657 145.766 -42.642 145.766 -41.554L143.556 -42.387C143.556 -44.053 143.867 -45.5207 144.491 -46.79C145.114 -48.0707 146.009 -49.068 147.177 -49.782C148.344 -50.496 149.755 -50.853 151.41 -50.853C152.679 -50.853 153.744 -50.649 154.606 -50.241C155.467 -49.833 156.164 -49.2947 156.697 -48.626C157.241 -47.9687 157.654 -47.249 157.938 -46.467C158.221 -45.685 158.414 -44.92 158.516 -44.172C158.618 -43.424 158.669 -42.7667 158.669 -42.2V-32H155.065ZM142.162 -32V-50.36H145.341V-45.056H145.766V-32H142.162ZM171.007 -31.49C169.183 -31.49 167.579 -31.8867 166.196 -32.68C164.825 -33.4847 163.754 -34.601 162.983 -36.029C162.224 -37.4683 161.844 -39.1343 161.844 -41.027C161.844 -43.033 162.218 -44.7727 162.966 -46.246C163.726 -47.7193 164.78 -48.8583 166.128 -49.663C167.477 -50.4677 169.047 -50.87 170.837 -50.87C172.707 -50.87 174.3 -50.4337 175.614 -49.561C176.929 -48.6997 177.909 -47.47 178.555 -45.872C179.213 -44.274 179.473 -42.3757 179.337 -40.177H175.784V-41.469C175.762 -43.5997 175.354 -45.175 174.56 -46.195C173.778 -47.215 172.583 -47.725 170.973 -47.725C169.194 -47.725 167.857 -47.164 166.961 -46.042C166.066 -44.92 165.618 -43.2993 165.618 -41.18C165.618 -39.1627 166.066 -37.5987 166.961 -36.488C167.857 -35.3887 169.149 -34.839 170.837 -34.839C171.948 -34.839 172.906 -35.0883 173.71 -35.587C174.526 -36.097 175.161 -36.8223 175.614 -37.763L179.099 -36.658C178.385 -35.0147 177.303 -33.7397 175.852 -32.833C174.402 -31.9377 172.787 -31.49 171.007 -31.49ZM164.462 -40.177V-42.948H177.569V-40.177H164.462ZM190.172 -31.507C187.94 -31.507 186.121 -32 184.715 -32.986C183.31 -33.972 182.449 -35.3603 182.131 -37.151L185.769 -37.712C185.996 -36.76 186.517 -36.0063 187.333 -35.451C188.161 -34.907 189.186 -34.635 190.41 -34.635C191.521 -34.635 192.388 -34.8617 193.011 -35.315C193.646 -35.7683 193.963 -36.3917 193.963 -37.185C193.963 -37.6497 193.85 -38.0237 193.623 -38.307C193.408 -38.6017 192.949 -38.8793 192.246 -39.14C191.544 -39.4007 190.473 -39.7237 189.033 -40.109C187.458 -40.517 186.206 -40.9533 185.276 -41.418C184.358 -41.894 183.701 -42.4437 183.304 -43.067C182.919 -43.7017 182.726 -44.4667 182.726 -45.362C182.726 -46.4727 183.021 -47.4417 183.61 -48.269C184.2 -49.0963 185.027 -49.7367 186.092 -50.19C187.169 -50.6433 188.427 -50.87 189.866 -50.87C191.272 -50.87 192.524 -50.649 193.623 -50.207C194.723 -49.765 195.612 -49.136 196.292 -48.32C196.972 -47.5153 197.38 -46.569 197.516 -45.481L193.878 -44.818C193.754 -45.702 193.34 -46.399 192.637 -46.909C191.935 -47.419 191.022 -47.6967 189.9 -47.742C188.824 -47.7873 187.951 -47.606 187.282 -47.198C186.614 -46.8013 186.279 -46.2517 186.279 -45.549C186.279 -45.141 186.404 -44.7953 186.653 -44.512C186.914 -44.2287 187.413 -43.9567 188.149 -43.696C188.886 -43.4353 189.974 -43.1237 191.413 -42.761C192.955 -42.3643 194.179 -41.9223 195.085 -41.435C195.992 -40.959 196.638 -40.3867 197.023 -39.718C197.42 -39.0607 197.618 -38.2617 197.618 -37.321C197.618 -35.5077 196.955 -34.0853 195.629 -33.054C194.315 -32.0227 192.496 -31.507 190.172 -31.507Z" fill="url(#paint1_linear_145_1617)"/>
<path d="M87.4205 34V12.869H79.2775V9.52H99.1165V12.869H90.9735V34H87.4205ZM104.631 34.51C103.271 34.51 102.132 34.2607 101.214 33.762C100.296 33.252 99.5994 32.5833 99.1234 31.756C98.6587 30.9173 98.4264 29.9993 98.4264 29.002C98.4264 28.0727 98.5907 27.2567 98.9194 26.554C99.2481 25.8513 99.7354 25.2563 100.381 24.769C101.027 24.2703 101.821 23.868 102.761 23.562C103.577 23.324 104.501 23.1143 105.532 22.933C106.564 22.7517 107.646 22.5817 108.779 22.423C109.924 22.2643 111.057 22.1057 112.179 21.947L110.887 22.661C110.91 21.2217 110.604 20.1563 109.969 19.465C109.346 18.7623 108.269 18.411 106.739 18.411C105.776 18.411 104.892 18.6377 104.087 19.091C103.283 19.533 102.722 20.2697 102.404 21.301L99.0894 20.281C99.5427 18.7057 100.404 17.4533 101.673 16.524C102.954 15.5947 104.654 15.13 106.773 15.13C108.417 15.13 109.845 15.4133 111.057 15.98C112.281 16.5353 113.177 17.4193 113.743 18.632C114.038 19.2327 114.219 19.8673 114.287 20.536C114.355 21.2047 114.389 21.9243 114.389 22.695V34H111.244V29.801L111.856 30.345C111.097 31.7503 110.128 32.7987 108.949 33.49C107.782 34.17 106.343 34.51 104.631 34.51ZM105.26 31.603C106.269 31.603 107.136 31.4273 107.861 31.076C108.587 30.7133 109.17 30.2543 109.612 29.699C110.054 29.1437 110.343 28.5657 110.479 27.965C110.672 27.421 110.78 26.809 110.802 26.129C110.836 25.449 110.853 24.905 110.853 24.497L112.009 24.922C110.887 25.092 109.867 25.245 108.949 25.381C108.031 25.517 107.198 25.653 106.45 25.789C105.714 25.9137 105.056 26.0667 104.478 26.248C103.991 26.418 103.555 26.622 103.169 26.86C102.795 27.098 102.495 27.387 102.268 27.727C102.053 28.067 101.945 28.4807 101.945 28.968C101.945 29.444 102.064 29.886 102.302 30.294C102.54 30.6907 102.903 31.008 103.39 31.246C103.878 31.484 104.501 31.603 105.26 31.603ZM127.423 34.51C125.666 34.51 124.193 34.085 123.003 33.235C121.813 32.3737 120.912 31.212 120.3 29.75C119.688 28.288 119.382 26.639 119.382 24.803C119.382 22.967 119.682 21.318 120.283 19.856C120.895 18.394 121.79 17.2437 122.969 16.405C124.159 15.555 125.621 15.13 127.355 15.13C129.077 15.13 130.562 15.555 131.809 16.405C133.067 17.2437 134.036 18.394 134.716 19.856C135.396 21.3067 135.736 22.9557 135.736 24.803C135.736 26.639 135.396 28.2937 134.716 29.767C134.047 31.229 133.089 32.385 131.843 33.235C130.607 34.085 129.134 34.51 127.423 34.51ZM118.787 34V9.52H122.357V20.791H121.949V34H118.787ZM126.93 31.297C128.063 31.297 128.998 31.008 129.735 30.43C130.483 29.852 131.038 29.0757 131.401 28.101C131.775 27.115 131.962 26.0157 131.962 24.803C131.962 23.6017 131.775 22.5137 131.401 21.539C131.038 20.5643 130.477 19.788 129.718 19.21C128.958 18.632 127.989 18.343 126.811 18.343C125.7 18.343 124.782 18.615 124.057 19.159C123.343 19.703 122.81 20.4623 122.459 21.437C122.119 22.4117 121.949 23.5337 121.949 24.803C121.949 26.0723 122.119 27.1943 122.459 28.169C122.799 29.1437 123.337 29.9087 124.074 30.464C124.81 31.0193 125.762 31.297 126.93 31.297ZM139.829 34V9.01H143.382V34H139.829ZM156.63 34.51C154.806 34.51 153.202 34.1133 151.819 33.32C150.448 32.5153 149.377 31.399 148.606 29.971C147.847 28.5317 147.467 26.8657 147.467 24.973C147.467 22.967 147.841 21.2273 148.589 19.754C149.349 18.2807 150.403 17.1417 151.751 16.337C153.1 15.5323 154.67 15.13 156.46 15.13C158.33 15.13 159.923 15.5663 161.237 16.439C162.552 17.3003 163.532 18.53 164.178 20.128C164.836 21.726 165.096 23.6243 164.96 25.823H161.407V24.531C161.385 22.4003 160.977 20.825 160.183 19.805C159.401 18.785 158.206 18.275 156.596 18.275C154.817 18.275 153.48 18.836 152.584 19.958C151.689 21.08 151.241 22.7007 151.241 24.82C151.241 26.8373 151.689 28.4013 152.584 29.512C153.48 30.6113 154.772 31.161 156.46 31.161C157.571 31.161 158.529 30.9117 159.333 30.413C160.149 29.903 160.784 29.1777 161.237 28.237L164.722 29.342C164.008 30.9853 162.926 32.2603 161.475 33.167C160.025 34.0623 158.41 34.51 156.63 34.51ZM150.085 25.823V23.052H163.192V25.823H150.085ZM179.281 34C178.125 34.2267 176.991 34.323 175.881 34.289C174.77 34.255 173.778 34.0397 172.906 33.643C172.033 33.2463 171.376 32.623 170.934 31.773C170.537 31.0137 170.322 30.243 170.288 29.461C170.265 28.6677 170.254 27.7723 170.254 26.775V10.54H173.824V26.605C173.824 27.3417 173.829 27.982 173.841 28.526C173.863 29.07 173.982 29.529 174.198 29.903C174.606 30.6057 175.252 31.008 176.136 31.11C177.031 31.2007 178.079 31.161 179.281 30.991V34ZM166.735 18.496V15.64H179.281V18.496H166.735ZM190.172 34.493C187.94 34.493 186.121 34 184.715 33.014C183.31 32.028 182.449 30.6397 182.131 28.849L185.769 28.288C185.996 29.24 186.517 29.9937 187.333 30.549C188.161 31.093 189.186 31.365 190.41 31.365C191.521 31.365 192.388 31.1383 193.011 30.685C193.646 30.2317 193.963 29.6083 193.963 28.815C193.963 28.3503 193.85 27.9763 193.623 27.693C193.408 27.3983 192.949 27.1207 192.246 26.86C191.544 26.5993 190.473 26.2763 189.033 25.891C187.458 25.483 186.206 25.0467 185.276 24.582C184.358 24.106 183.701 23.5563 183.304 22.933C182.919 22.2983 182.726 21.5333 182.726 20.638C182.726 19.5273 183.021 18.5583 183.61 17.731C184.2 16.9037 185.027 16.2633 186.092 15.81C187.169 15.3567 188.427 15.13 189.866 15.13C191.272 15.13 192.524 15.351 193.623 15.793C194.723 16.235 195.612 16.864 196.292 17.68C196.972 18.4847 197.38 19.431 197.516 20.519L193.878 21.182C193.754 20.298 193.34 19.601 192.637 19.091C191.935 18.581 191.022 18.3033 189.9 18.258C188.824 18.2127 187.951 18.394 187.282 18.802C186.614 19.1987 186.279 19.7483 186.279 20.451C186.279 20.859 186.404 21.2047 186.653 21.488C186.914 21.7713 187.413 22.0433 188.149 22.304C188.886 22.5647 189.974 22.8763 191.413 23.239C192.955 23.6357 194.179 24.0777 195.085 24.565C195.992 25.041 196.638 25.6133 197.023 26.282C197.42 26.9393 197.618 27.7383 197.618 28.679C197.618 30.4923 196.955 31.9147 195.629 32.946C194.315 33.9773 192.496 34.493 190.172 34.493Z" fill="url(#paint2_linear_145_1617)"/>
<path d="M70.9661 100V75.52H74.5191V96.651H85.6031V100H70.9661ZM93.6744 100.51C92.3144 100.51 91.1754 100.261 90.2574 99.762C89.3394 99.252 88.6424 98.5833 88.1664 97.756C87.7017 96.9173 87.4694 95.9993 87.4694 95.002C87.4694 94.0727 87.6337 93.2567 87.9624 92.554C88.291 91.8513 88.7784 91.2563 89.4244 90.769C90.0704 90.2703 90.8637 89.868 91.8044 89.562C92.6204 89.324 93.544 89.1143 94.5754 88.933C95.6067 88.7517 96.689 88.5817 97.8224 88.423C98.967 88.2643 100.1 88.1057 101.222 87.947L99.9304 88.661C99.953 87.2217 99.647 86.1563 99.0124 85.465C98.389 84.7623 97.3124 84.411 95.7824 84.411C94.819 84.411 93.935 84.6377 93.1304 85.091C92.3257 85.533 91.7647 86.2697 91.4474 87.301L88.1324 86.281C88.5857 84.7057 89.447 83.4533 90.7164 82.524C91.997 81.5947 93.697 81.13 95.8164 81.13C97.4597 81.13 98.8877 81.4133 100.1 81.98C101.324 82.5353 102.22 83.4193 102.786 84.632C103.081 85.2327 103.262 85.8673 103.33 86.536C103.398 87.2047 103.432 87.9243 103.432 88.695V100H100.287V95.801L100.899 96.345C100.14 97.7503 99.171 98.7987 97.9924 99.49C96.825 100.17 95.3857 100.51 93.6744 100.51ZM94.3034 97.603C95.312 97.603 96.179 97.4273 96.9044 97.076C97.6297 96.7133 98.2134 96.2543 98.6554 95.699C99.0974 95.1437 99.3864 94.5657 99.5224 93.965C99.715 93.421 99.8227 92.809 99.8454 92.129C99.8794 91.449 99.8964 90.905 99.8964 90.497L101.052 90.922C99.9304 91.092 98.9104 91.245 97.9924 91.381C97.0744 91.517 96.2414 91.653 95.4934 91.789C94.7567 91.9137 94.0994 92.0667 93.5214 92.248C93.034 92.418 92.5977 92.622 92.2124 92.86C91.8384 93.098 91.538 93.387 91.3114 93.727C91.096 94.067 90.9884 94.4807 90.9884 94.968C90.9884 95.444 91.1074 95.886 91.3454 96.294C91.5834 96.6907 91.946 97.008 92.4334 97.246C92.9207 97.484 93.544 97.603 94.3034 97.603ZM116.466 100.51C114.709 100.51 113.236 100.085 112.046 99.235C110.856 98.3737 109.955 97.212 109.343 95.75C108.731 94.288 108.425 92.639 108.425 90.803C108.425 88.967 108.725 87.318 109.326 85.856C109.938 84.394 110.833 83.2437 112.012 82.405C113.202 81.555 114.664 81.13 116.398 81.13C118.12 81.13 119.605 81.555 120.852 82.405C122.11 83.2437 123.079 84.394 123.759 85.856C124.439 87.3067 124.779 88.9557 124.779 90.803C124.779 92.639 124.439 94.2937 123.759 95.767C123.09 97.229 122.132 98.385 120.886 99.235C119.65 100.085 118.177 100.51 116.466 100.51ZM107.83 108.16V81.64H110.992V94.849H111.4V108.16H107.83ZM115.973 97.297C117.106 97.297 118.041 97.008 118.778 96.43C119.526 95.852 120.081 95.0757 120.444 94.101C120.818 93.115 121.005 92.0157 121.005 90.803C121.005 89.6017 120.818 88.5137 120.444 87.539C120.081 86.5643 119.52 85.788 118.761 85.21C118.001 84.632 117.032 84.343 115.854 84.343C114.743 84.343 113.825 84.615 113.1 85.159C112.386 85.703 111.853 86.4623 111.502 87.437C111.162 88.4117 110.992 89.5337 110.992 90.803C110.992 92.0723 111.162 93.1943 111.502 94.169C111.842 95.1437 112.38 95.9087 113.117 96.464C113.853 97.0193 114.805 97.297 115.973 97.297ZM139.038 100C137.882 100.227 136.749 100.323 135.638 100.289C134.528 100.255 133.536 100.04 132.663 99.643C131.791 99.2463 131.133 98.623 130.691 97.773C130.295 97.0137 130.079 96.243 130.045 95.461C130.023 94.6677 130.011 93.7723 130.011 92.775V76.54H133.581V92.605C133.581 93.3417 133.587 93.982 133.598 94.526C133.621 95.07 133.74 95.529 133.955 95.903C134.363 96.6057 135.009 97.008 135.893 97.11C136.789 97.2007 137.837 97.161 139.038 96.991V100ZM126.492 84.496V81.64H139.038V84.496H126.492ZM150.052 100.51C148.216 100.51 146.624 100.096 145.275 99.269C143.927 98.4417 142.884 97.3027 142.147 95.852C141.422 94.39 141.059 92.707 141.059 90.803C141.059 88.8877 141.433 87.2047 142.181 85.754C142.929 84.292 143.978 83.1587 145.326 82.354C146.675 81.538 148.25 81.13 150.052 81.13C151.888 81.13 153.481 81.5437 154.829 82.371C156.178 83.1983 157.221 84.3373 157.957 85.788C158.694 87.2387 159.062 88.9103 159.062 90.803C159.062 92.7183 158.688 94.407 157.94 95.869C157.204 97.3197 156.161 98.4587 154.812 99.286C153.464 100.102 151.877 100.51 150.052 100.51ZM150.052 97.161C151.809 97.161 153.118 96.5717 153.979 95.393C154.852 94.203 155.288 92.673 155.288 90.803C155.288 88.8877 154.846 87.3577 153.962 86.213C153.09 85.057 151.786 84.479 150.052 84.479C148.862 84.479 147.882 84.751 147.111 85.295C146.341 85.8277 145.768 86.57 145.394 87.522C145.02 88.4627 144.833 89.5563 144.833 90.803C144.833 92.7297 145.275 94.271 146.159 95.427C147.043 96.583 148.341 97.161 150.052 97.161ZM171.417 100.51C169.66 100.51 168.187 100.085 166.997 99.235C165.807 98.3737 164.906 97.212 164.294 95.75C163.682 94.288 163.376 92.639 163.376 90.803C163.376 88.967 163.676 87.318 164.277 85.856C164.889 84.394 165.784 83.2437 166.963 82.405C168.153 81.555 169.615 81.13 171.349 81.13C173.072 81.13 174.556 81.555 175.803 82.405C177.061 83.2437 178.03 84.394 178.71 85.856C179.39 87.3067 179.73 88.9557 179.73 90.803C179.73 92.639 179.39 94.2937 178.71 95.767C178.041 97.229 177.084 98.385 175.837 99.235C174.602 100.085 173.128 100.51 171.417 100.51ZM162.781 108.16V81.64H165.943V94.849H166.351V108.16H162.781ZM170.924 97.297C172.057 97.297 172.992 97.008 173.729 96.43C174.477 95.852 175.032 95.0757 175.395 94.101C175.769 93.115 175.956 92.0157 175.956 90.803C175.956 89.6017 175.769 88.5137 175.395 87.539C175.032 86.5643 174.471 85.788 173.712 85.21C172.953 84.632 171.984 84.343 170.805 84.343C169.694 84.343 168.776 84.615 168.051 85.159C167.337 85.703 166.804 86.4623 166.453 87.437C166.113 88.4117 165.943 89.5337 165.943 90.803C165.943 92.0723 166.113 93.1943 166.453 94.169C166.793 95.1437 167.331 95.9087 168.068 96.464C168.805 97.0193 169.757 97.297 170.924 97.297ZM190.172 100.493C187.94 100.493 186.121 100 184.715 99.014C183.31 98.028 182.449 96.6397 182.131 94.849L185.769 94.288C185.996 95.24 186.517 95.9937 187.333 96.549C188.161 97.093 189.186 97.365 190.41 97.365C191.521 97.365 192.388 97.1383 193.011 96.685C193.646 96.2317 193.963 95.6083 193.963 94.815C193.963 94.3503 193.85 93.9763 193.623 93.693C193.408 93.3983 192.949 93.1207 192.246 92.86C191.544 92.5993 190.473 92.2763 189.033 91.891C187.458 91.483 186.206 91.0467 185.276 90.582C184.358 90.106 183.701 89.5563 183.304 88.933C182.919 88.2983 182.726 87.5333 182.726 86.638C182.726 85.5273 183.021 84.5583 183.61 83.731C184.2 82.9037 185.027 82.2633 186.092 81.81C187.169 81.3567 188.427 81.13 189.866 81.13C191.272 81.13 192.524 81.351 193.623 81.793C194.723 82.235 195.612 82.864 196.292 83.68C196.972 84.4847 197.38 85.431 197.516 86.519L193.878 87.182C193.754 86.298 193.34 85.601 192.637 85.091C191.935 84.581 191.022 84.3033 189.9 84.258C188.824 84.2127 187.951 84.394 187.282 84.802C186.614 85.1987 186.279 85.7483 186.279 86.451C186.279 86.859 186.404 87.2047 186.653 87.488C186.914 87.7713 187.413 88.0433 188.149 88.304C188.886 88.5647 189.974 88.8763 191.413 89.239C192.955 89.6357 194.179 90.0777 195.085 90.565C195.992 91.041 196.638 91.6133 197.023 92.282C197.42 92.9393 197.618 93.7383 197.618 94.679C197.618 96.4923 196.955 97.9147 195.629 98.946C194.315 99.9773 192.496 100.493 190.172 100.493Z" fill="url(#paint3_linear_145_1617)"/>
<path d="M1.52375 166L9.47975 141.52H14.5968L22.5528 166H18.8638L11.5368 143.662H12.4548L5.21275 166H1.52375ZM5.65475 160.475V157.143H18.4388V160.475H5.65475ZM33.4567 166.51C31.5753 166.51 29.9773 166.091 28.6627 165.252C27.348 164.413 26.3393 163.263 25.6367 161.801C24.9453 160.339 24.594 158.679 24.5827 156.82C24.594 154.927 24.9567 153.256 25.6707 151.805C26.3847 150.343 27.4047 149.198 28.7307 148.371C30.0567 147.544 31.649 147.13 33.5077 147.13C35.5137 147.13 37.225 147.629 38.6417 148.626C40.0697 149.623 41.0103 150.989 41.4637 152.723L37.9277 153.743C37.5763 152.712 36.9983 151.913 36.1937 151.346C35.4003 150.768 34.488 150.479 33.4567 150.479C32.2893 150.479 31.3317 150.757 30.5837 151.312C29.8357 151.856 29.2803 152.604 28.9177 153.556C28.555 154.508 28.368 155.596 28.3567 156.82C28.368 158.713 28.7987 160.243 29.6487 161.41C30.51 162.577 31.7793 163.161 33.4567 163.161C34.6013 163.161 35.525 162.9 36.2277 162.379C36.9417 161.846 37.4857 161.087 37.8597 160.101L41.4637 160.951C40.863 162.742 39.8713 164.119 38.4887 165.082C37.106 166.034 35.4287 166.51 33.4567 166.51ZM52.2828 166.51C50.4015 166.51 48.8035 166.091 47.4888 165.252C46.1742 164.413 45.1655 163.263 44.4628 161.801C43.7715 160.339 43.4202 158.679 43.4088 156.82C43.4202 154.927 43.7828 153.256 44.4968 151.805C45.2108 150.343 46.2308 149.198 47.5568 148.371C48.8828 147.544 50.4752 147.13 52.3338 147.13C54.3398 147.13 56.0512 147.629 57.4678 148.626C58.8958 149.623 59.8365 150.989 60.2898 152.723L56.7538 153.743C56.4025 152.712 55.8245 151.913 55.0198 151.346C54.2265 150.768 53.3142 150.479 52.2828 150.479C51.1155 150.479 50.1578 150.757 49.4098 151.312C48.6618 151.856 48.1065 152.604 47.7438 153.556C47.3812 154.508 47.1942 155.596 47.1828 156.82C47.1942 158.713 47.6248 160.243 48.4748 161.41C49.3362 162.577 50.6055 163.161 52.2828 163.161C53.4275 163.161 54.3512 162.9 55.0538 162.379C55.7678 161.846 56.3118 161.087 56.6858 160.101L60.2898 160.951C59.6892 162.742 58.6975 164.119 57.3148 165.082C55.9322 166.034 54.2548 166.51 52.2828 166.51ZM71.398 166.51C69.5733 166.51 67.9697 166.113 66.587 165.32C65.2157 164.515 64.1447 163.399 63.374 161.971C62.6147 160.532 62.235 158.866 62.235 156.973C62.235 154.967 62.609 153.227 63.357 151.754C64.1163 150.281 65.1703 149.142 66.519 148.337C67.8677 147.532 69.4373 147.13 71.228 147.13C73.098 147.13 74.6903 147.566 76.005 148.439C77.3197 149.3 78.3 150.53 78.946 152.128C79.6033 153.726 79.864 155.624 79.728 157.823H76.175V156.531C76.1523 154.4 75.7443 152.825 74.951 151.805C74.169 150.785 72.9733 150.275 71.364 150.275C69.5847 150.275 68.2473 150.836 67.352 151.958C66.4567 153.08 66.009 154.701 66.009 156.82C66.009 158.837 66.4567 160.401 67.352 161.512C68.2473 162.611 69.5393 163.161 71.228 163.161C72.3387 163.161 73.2963 162.912 74.101 162.413C74.917 161.903 75.5517 161.178 76.005 160.237L79.49 161.342C78.776 162.985 77.6937 164.26 76.243 165.167C74.7923 166.062 73.1773 166.51 71.398 166.51ZM64.853 157.823V155.052H77.96V157.823H64.853ZM90.5631 166.493C88.3304 166.493 86.5114 166 85.1061 165.014C83.7008 164.028 82.8394 162.64 82.5221 160.849L86.1601 160.288C86.3868 161.24 86.9081 161.994 87.7241 162.549C88.5514 163.093 89.5771 163.365 90.8011 163.365C91.9118 163.365 92.7788 163.138 93.4021 162.685C94.0368 162.232 94.3541 161.608 94.3541 160.815C94.3541 160.35 94.2408 159.976 94.0141 159.693C93.7988 159.398 93.3398 159.121 92.6371 158.86C91.9344 158.599 90.8634 158.276 89.4241 157.891C87.8488 157.483 86.5964 157.047 85.6671 156.582C84.7491 156.106 84.0918 155.556 83.6951 154.933C83.3098 154.298 83.1171 153.533 83.1171 152.638C83.1171 151.527 83.4118 150.558 84.0011 149.731C84.5904 148.904 85.4178 148.263 86.4831 147.81C87.5598 147.357 88.8178 147.13 90.2571 147.13C91.6624 147.13 92.9148 147.351 94.0141 147.793C95.1134 148.235 96.0031 148.864 96.6831 149.68C97.3631 150.485 97.7711 151.431 97.9071 152.519L94.2691 153.182C94.1444 152.298 93.7308 151.601 93.0281 151.091C92.3254 150.581 91.4131 150.303 90.2911 150.258C89.2144 150.213 88.3418 150.394 87.6731 150.802C87.0044 151.199 86.6701 151.748 86.6701 152.451C86.6701 152.859 86.7948 153.205 87.0441 153.488C87.3048 153.771 87.8034 154.043 88.5401 154.304C89.2768 154.565 90.3648 154.876 91.8041 155.239C93.3454 155.636 94.5694 156.078 95.4761 156.565C96.3828 157.041 97.0288 157.613 97.4141 158.282C97.8108 158.939 98.0091 159.738 98.0091 160.679C98.0091 162.492 97.3461 163.915 96.0201 164.946C94.7054 165.977 92.8864 166.493 90.5631 166.493ZM108.792 166.493C106.559 166.493 104.74 166 103.335 165.014C101.929 164.028 101.068 162.64 100.751 160.849L104.389 160.288C104.615 161.24 105.137 161.994 105.953 162.549C106.78 163.093 107.806 163.365 109.03 163.365C110.14 163.365 111.007 163.138 111.631 162.685C112.265 162.232 112.583 161.608 112.583 160.815C112.583 160.35 112.469 159.976 112.243 159.693C112.027 159.398 111.568 159.121 110.866 158.86C110.163 158.599 109.092 158.276 107.653 157.891C106.077 157.483 104.825 157.047 103.896 156.582C102.978 156.106 102.32 155.556 101.924 154.933C101.538 154.298 101.346 153.533 101.346 152.638C101.346 151.527 101.64 150.558 102.23 149.731C102.819 148.904 103.646 148.263 104.712 147.81C105.788 147.357 107.046 147.13 108.486 147.13C109.891 147.13 111.143 147.351 112.243 147.793C113.342 148.235 114.232 148.864 114.912 149.68C115.592 150.485 116 151.431 116.136 152.519L112.498 153.182C112.373 152.298 111.959 151.601 111.257 151.091C110.554 150.581 109.642 150.303 108.52 150.258C107.443 150.213 106.57 150.394 105.902 150.802C105.233 151.199 104.899 151.748 104.899 152.451C104.899 152.859 105.023 153.205 105.273 153.488C105.533 153.771 106.032 154.043 106.769 154.304C107.505 154.565 108.593 154.876 110.033 155.239C111.574 155.636 112.798 156.078 113.705 156.565C114.611 157.041 115.257 157.613 115.643 158.282C116.039 158.939 116.238 159.738 116.238 160.679C116.238 162.492 115.575 163.915 114.249 164.946C112.934 165.977 111.115 166.493 108.792 166.493ZM127.972 166.51C126.136 166.51 124.544 166.096 123.195 165.269C121.846 164.442 120.804 163.303 120.067 161.852C119.342 160.39 118.979 158.707 118.979 156.803C118.979 154.888 119.353 153.205 120.101 151.754C120.849 150.292 121.897 149.159 123.246 148.354C124.595 147.538 126.17 147.13 127.972 147.13C129.808 147.13 131.4 147.544 132.749 148.371C134.098 149.198 135.14 150.337 135.877 151.788C136.614 153.239 136.982 154.91 136.982 156.803C136.982 158.718 136.608 160.407 135.86 161.869C135.123 163.32 134.081 164.459 132.732 165.286C131.383 166.102 129.797 166.51 127.972 166.51ZM127.972 163.161C129.729 163.161 131.038 162.572 131.899 161.393C132.772 160.203 133.208 158.673 133.208 156.803C133.208 154.888 132.766 153.358 131.882 152.213C131.009 151.057 129.706 150.479 127.972 150.479C126.782 150.479 125.802 150.751 125.031 151.295C124.26 151.828 123.688 152.57 123.314 153.522C122.94 154.463 122.753 155.556 122.753 156.803C122.753 158.73 123.195 160.271 124.079 161.427C124.963 162.583 126.261 163.161 127.972 163.161ZM140.718 166V147.64H143.88V152.094L143.438 151.516C143.665 150.927 143.959 150.388 144.322 149.901C144.685 149.402 145.104 148.994 145.58 148.677C146.045 148.337 146.56 148.076 147.127 147.895C147.705 147.702 148.294 147.589 148.895 147.555C149.496 147.51 150.074 147.538 150.629 147.64V150.972C150.028 150.813 149.36 150.768 148.623 150.836C147.898 150.904 147.229 151.136 146.617 151.533C146.039 151.907 145.58 152.36 145.24 152.893C144.911 153.426 144.673 154.021 144.526 154.678C144.379 155.324 144.305 156.01 144.305 156.735V166H140.718ZM154.206 144.631V141.18H157.759V144.631H154.206ZM154.206 166V147.64H157.759V166H154.206ZM171.007 166.51C169.183 166.51 167.579 166.113 166.196 165.32C164.825 164.515 163.754 163.399 162.983 161.971C162.224 160.532 161.844 158.866 161.844 156.973C161.844 154.967 162.218 153.227 162.966 151.754C163.726 150.281 164.78 149.142 166.128 148.337C167.477 147.532 169.047 147.13 170.837 147.13C172.707 147.13 174.3 147.566 175.614 148.439C176.929 149.3 177.909 150.53 178.555 152.128C179.213 153.726 179.473 155.624 179.337 157.823H175.784V156.531C175.762 154.4 175.354 152.825 174.56 151.805C173.778 150.785 172.583 150.275 170.973 150.275C169.194 150.275 167.857 150.836 166.961 151.958C166.066 153.08 165.618 154.701 165.618 156.82C165.618 158.837 166.066 160.401 166.961 161.512C167.857 162.611 169.149 163.161 170.837 163.161C171.948 163.161 172.906 162.912 173.71 162.413C174.526 161.903 175.161 161.178 175.614 160.237L179.099 161.342C178.385 162.985 177.303 164.26 175.852 165.167C174.402 166.062 172.787 166.51 171.007 166.51ZM164.462 157.823V155.052H177.569V157.823H164.462ZM190.172 166.493C187.94 166.493 186.121 166 184.715 165.014C183.31 164.028 182.449 162.64 182.131 160.849L185.769 160.288C185.996 161.24 186.517 161.994 187.333 162.549C188.161 163.093 189.186 163.365 190.41 163.365C191.521 163.365 192.388 163.138 193.011 162.685C193.646 162.232 193.963 161.608 193.963 160.815C193.963 160.35 193.85 159.976 193.623 159.693C193.408 159.398 192.949 159.121 192.246 158.86C191.544 158.599 190.473 158.276 189.033 157.891C187.458 157.483 186.206 157.047 185.276 156.582C184.358 156.106 183.701 155.556 183.304 154.933C182.919 154.298 182.726 153.533 182.726 152.638C182.726 151.527 183.021 150.558 183.61 149.731C184.2 148.904 185.027 148.263 186.092 147.81C187.169 147.357 188.427 147.13 189.866 147.13C191.272 147.13 192.524 147.351 193.623 147.793C194.723 148.235 195.612 148.864 196.292 149.68C196.972 150.485 197.38 151.431 197.516 152.519L193.878 153.182C193.754 152.298 193.34 151.601 192.637 151.091C191.935 150.581 191.022 150.303 189.9 150.258C188.824 150.213 187.951 150.394 187.282 150.802C186.614 151.199 186.279 151.748 186.279 152.451C186.279 152.859 186.404 153.205 186.653 153.488C186.914 153.771 187.413 154.043 188.149 154.304C188.886 154.565 189.974 154.876 191.413 155.239C192.955 155.636 194.179 156.078 195.085 156.565C195.992 157.041 196.638 157.613 197.023 158.282C197.42 158.939 197.618 159.738 197.618 160.679C197.618 162.492 196.955 163.915 195.629 164.946C194.315 165.977 192.496 166.493 190.172 166.493Z" fill="url(#paint4_linear_145_1617)"/>
</g>
<defs>
<linearGradient id="paint0_linear_145_1617" x1="168.5" y1="198" x2="168.5" y2="240" gradientUnits="userSpaceOnUse">
<stop stop-color="#90E0EF"/>
<stop offset="1" stop-color="#00B4D8"/>
</linearGradient>
<linearGradient id="paint1_linear_145_1617" x1="137.5" y1="-66" x2="137.5" y2="-24" gradientUnits="userSpaceOnUse">
<stop stop-color="#90E0EF"/>
<stop offset="1" stop-color="#00B4D8"/>
</linearGradient>
<linearGradient id="paint2_linear_145_1617" x1="138.5" y1="0" x2="138.5" y2="42" gradientUnits="userSpaceOnUse">
<stop stop-color="#90E0EF"/>
<stop offset="1" stop-color="#00B4D8"/>
</linearGradient>
<linearGradient id="paint3_linear_145_1617" x1="133.5" y1="66" x2="133.5" y2="108" gradientUnits="userSpaceOnUse">
<stop stop-color="#90E0EF"/>
<stop offset="1" stop-color="#00B4D8"/>
</linearGradient>
<linearGradient id="paint4_linear_145_1617" x1="99.5" y1="132" x2="99.5" y2="174" gradientUnits="userSpaceOnUse">
<stop stop-color="#90E0EF"/>
<stop offset="1" stop-color="#00B4D8"/>
</linearGradient>
</defs>
</svg>
