<svg width="177" height="176" viewBox="0 0 177 176" fill="none" xmlns="http://www.w3.org/2000/svg">
<path d="M88.5 0L97.3235 18.1551L110.385 2.76468L114.416 22.5437L130.894 10.885L129.88 31.0452L148.74 23.8508L142.744 43.1254L162.801 40.8472L152.2 58.0251L172.193 60.8065L157.653 74.8084L176.326 82.4744L158.761 92.4205L174.941 104.49L155.454 109.755L168.125 125.469L147.941 125.722L156.305 144.093L136.692 139.319L140.225 159.193L122.415 149.692L120.895 169.82L106.008 156.188L99.5293 175.306L88.5 158.4L77.4707 175.306L70.9922 156.188L56.105 169.82L54.5845 149.692L36.7749 159.193L40.3079 139.319L20.6948 144.093L29.0593 125.722L8.87522 125.469L21.5456 109.755L2.05872 104.49L18.2389 92.4205L0.673645 82.4744L19.347 74.8084L4.80703 60.8065L24.8002 58.0251L14.1991 40.8472L34.2559 43.1254L28.2599 23.8508L47.1199 31.0452L46.1057 10.885L62.584 22.5437L66.6153 2.76468L79.6765 18.1551L88.5 0Z" fill="#F2F2F5"/>
</svg>
