<svg width="176" height="176" viewBox="0 0 176 176" fill="none" xmlns="http://www.w3.org/2000/svg">
<path d="M88 0L96.8235 18.1551L109.885 2.76468L113.916 22.5437L130.394 10.885L129.38 31.0452L148.24 23.8508L142.244 43.1254L162.301 40.8472L151.7 58.0251L171.693 60.8065L157.153 74.8084L175.826 82.4744L158.261 92.4205L174.441 104.49L154.954 109.755L167.625 125.469L147.441 125.722L155.805 144.093L136.192 139.319L139.725 159.193L121.915 149.692L120.395 169.82L105.508 156.188L99.0293 175.306L88 158.4L76.9707 175.306L70.4922 156.188L55.605 169.82L54.0845 149.692L36.2749 159.193L39.8079 139.319L20.1948 144.093L28.5593 125.722L8.37522 125.469L21.0456 109.755L1.55872 104.49L17.7389 92.4205L0.173645 82.4744L18.847 74.8084L4.30703 60.8065L24.3002 58.0251L13.6991 40.8472L33.7559 43.1254L27.7599 23.8508L46.6199 31.0452L45.6057 10.885L62.084 22.5437L66.1153 2.76468L79.1765 18.1551L88 0Z" fill="#F2F2F5"/>
</svg>
