<svg width="318" height="175" viewBox="0 0 318 175" fill="none" xmlns="http://www.w3.org/2000/svg">
<rect x="1.09375" y="1.09375" width="315" height="172.812" rx="3.28125" fill="white"/>
<path d="M18.4336 20.3946C18.22 20.181 17.8737 20.181 17.6602 20.3946L14.1799 23.8748C13.9663 24.0884 13.9663 24.4347 14.1799 24.6482C14.3935 24.8618 14.7397 24.8618 14.9533 24.6482L18.0469 21.5546L21.1405 24.6482C21.354 24.8618 21.7003 24.8618 21.9139 24.6482C22.1274 24.4347 22.1274 24.0884 21.9139 23.8748L18.4336 20.3946ZM17.5 20.7812L17.5 157.5L18.5937 157.5L18.5938 20.7813L17.5 20.7812Z" fill="#111111"/>
<path d="M308.824 157.34C309.038 157.126 309.038 156.78 308.824 156.566L305.344 153.086C305.13 152.873 304.784 152.873 304.57 153.086C304.357 153.3 304.357 153.646 304.57 153.86L307.664 156.953L304.57 160.047C304.357 160.26 304.357 160.607 304.57 160.82C304.784 161.034 305.13 161.034 305.344 160.82L308.824 157.34ZM18.5938 157.5H308.438V156.406H18.5938V157.5Z" fill="#111111"/>
<path d="M110.881 81.5668C90.8307 81.7171 70.7799 102.77 50.7291 118.961C40.0173 127.451 29.3055 134.552 18.5938 136.857V156.406H50.7291H110.881H171.034H231.186H291.338V41.4652C271.25 33.9063 251.237 17.5547 231.186 28.0813C211.135 38.608 191.085 81.7171 171.034 92.2438C150.983 102.77 130.932 81.7171 110.881 81.5668Z" fill="url(#paint0_linear_579_7450)"/>
<path d="M291.338 41.4652C271.25 33.9062 251.237 17.5546 231.186 28.0813C211.135 38.6079 191.085 81.7171 171.034 92.2437C150.983 102.77 130.932 81.7171 110.881 81.5667C90.8307 81.7171 70.7799 102.77 50.7291 118.961C40.0173 127.45 29.3055 134.552 18.5938 136.857" stroke="#ABABB5" stroke-width="2" stroke-linecap="round"/>
<rect x="1.09375" y="1.09375" width="315" height="172.812" rx="3.28125" stroke="#D5D5DE" stroke-width="2.1875" stroke-linecap="round"/>
<defs>
<linearGradient id="paint0_linear_579_7450" x1="154.966" y1="24.6494" x2="154.966" y2="156.406" gradientUnits="userSpaceOnUse">
<stop stop-color="#EDEDED"/>
<stop offset="1" stop-color="#EDEDED" stop-opacity="0"/>
</linearGradient>
</defs>
</svg>
