<svg width="213" height="194" viewBox="0 0 213 194" fill="none" xmlns="http://www.w3.org/2000/svg">
<path d="M193.06 31.407L83.1094 141.8L42.2512 100.814L55.8385 87.1837L83.1094 114.54L179.473 17.8737L193.06 31.407ZM96.6966 174.667C54.2003 174.667 19.6057 139.964 19.6057 97.3337C19.6057 54.7037 54.2003 20.0003 96.6966 20.0003C111.826 20.0003 125.991 24.447 137.94 32.0837L151.913 18.067C136.206 7.14366 117.222 0.666992 96.6966 0.666992C43.5039 0.666992 0.333008 43.9737 0.333008 97.3337C0.333008 150.694 43.5039 194 96.6966 194C113.368 194 129.075 189.747 142.758 182.207L128.304 167.707C118.668 172.154 107.971 174.667 96.6966 174.667ZM164.151 126.334H135.242V145.667H164.151V174.667H183.424V145.667H212.333V126.334H183.424V97.3337H164.151V126.334Z" fill="#17E5A1"/>
</svg>
